<svg width="200" height="200" viewBox="0 0 200 200" fill="none" xmlns="http://www.w3.org/2000/svg">
<rect width="200" height="200" rx="72" fill="white"/>
<path d="M158.93 168.085C146.187 164.9 138.441 152.568 135.566 147.108L143.989 144.299C145.902 147.379 150.02 152.972 155.637 154.844C155.978 154.958 156.337 155.004 156.695 154.978C157.053 154.953 157.403 154.857 157.724 154.697C158.045 154.536 158.331 154.314 158.566 154.042C158.801 153.771 158.98 153.456 159.093 153.115C159.322 152.428 159.269 151.678 158.946 151.03C158.622 150.382 158.054 149.889 157.367 149.659C152.737 148.117 148.814 142.001 147.691 139.773C147.396 139.186 146.9 138.725 146.292 138.474C145.685 138.223 145.008 138.199 144.384 138.407L130.963 142.881C130.106 143.109 106.442 149.329 87.3335 145.084C75.2848 142.406 63.8742 133.885 55.5432 127.662C54.4818 126.867 53.417 126.077 52.3488 125.292C50.9292 124.255 48.7274 123.412 46.7825 122.667C45.9579 122.353 44.8321 121.92 44.621 121.801C44.571 121.762 44.5309 121.711 44.504 121.654C44.4771 121.596 44.464 121.533 44.4659 121.469V116.271C44.6504 111.93 61.8999 48.6286 64.4562 40.8352C64.5122 40.7737 64.6803 40.6562 64.795 40.6016L98.6935 25.1187L109.525 39.2209C109.725 39.4971 109.824 39.833 109.808 40.1735C109.791 40.5139 109.659 40.8386 109.434 41.0941L98.4927 53.3607C97.9509 53.964 97.041 54.0357 96.5102 53.5916L92.0854 49.5126C91.4398 48.9162 90.5641 48.6292 89.7026 48.8096C88.8405 48.9872 88.1389 49.5331 87.7789 50.3358C87.2077 51.0414 83.9122 51.741 81.0649 51.7676L79.9787 51.6583C79.4467 51.6021 78.91 51.7042 78.4358 51.9517C77.9616 52.1993 77.571 52.5813 77.313 53.0499C77.0535 53.5171 76.9366 54.0501 76.9769 54.5831C77.0173 55.116 77.213 55.6254 77.5398 56.0482C78.2211 56.9282 78.8945 57.8143 79.5599 58.7064L81.7187 95.4235L79.7949 99.2737C79.5866 99.6901 79.4882 100.153 79.5089 100.618C79.5297 101.083 79.669 101.535 79.9137 101.931C80.1583 102.327 80.5001 102.654 80.9066 102.881C81.3132 103.108 81.7709 103.227 82.2365 103.227C82.7446 103.228 83.2429 103.087 83.6751 102.819C84.1074 102.552 84.4567 102.17 84.6835 101.715L86.6373 97.805C104.163 84.5997 119.499 96.8349 120.862 97.9778C126.336 103.474 126.748 107.113 126.764 107.318C126.784 108.03 127.08 108.706 127.59 109.202C128.101 109.699 128.785 109.977 129.497 109.977C131.007 109.977 132.229 108.754 132.229 107.245C132.229 106.717 132.035 102.239 126.349 95.843C134.724 85.7016 144.688 82.4273 155.995 86.13C157.423 86.602 158.973 85.815 159.44 84.3832C159.552 84.0421 159.596 83.6823 159.568 83.3244C159.541 82.9665 159.443 82.6176 159.281 82.2975C159.118 81.9774 158.895 81.6924 158.622 81.4589C158.349 81.2254 158.033 81.0479 157.692 80.9367C148.216 77.8304 134.54 77.4144 122.227 92.238C116.845 88.6822 102.742 81.5372 86.9331 91.0035L84.9663 57.5758C84.9555 57.3644 84.9188 57.1552 84.857 56.9527C86.6503 56.6897 88.6567 56.191 90.2478 55.2503L92.9004 57.6933C94.2824 58.8666 96.0695 59.4511 97.8778 59.3211C99.6861 59.191 101.371 58.3569 102.571 56.9978L113.512 44.7319C115.679 42.3006 115.861 38.6273 113.899 35.9459L101.703 20.0668C101.327 19.5777 100.795 19.2303 100.196 19.0811C99.5968 18.9319 98.9648 18.9897 98.4025 19.245L62.5584 35.6166C62.1499 35.797 60.0847 36.7964 59.3934 38.8698C57.2989 45.1486 39.0001 111.054 39.0001 116.247V121.471C38.9962 122.364 39.1969 123.246 39.5869 124.049C39.9768 124.853 40.5456 125.556 41.2497 126.106C41.9595 126.66 42.9657 127.059 44.828 127.772C46.2906 128.332 48.2915 129.098 49.1216 129.704C50.1087 130.427 51.1601 131.213 52.2702 132.042C60.9988 138.56 72.9539 147.487 86.1475 150.418C103.467 154.268 123.547 150.266 130.216 148.698C132.911 154.128 141.075 168.121 155.535 172.795V177.487C155.535 178.996 156.757 180.22 158.267 180.22C159.778 180.22 161 178.996 161 177.487V170.736C161 170.126 160.796 169.535 160.421 169.054C160.046 168.574 159.521 168.233 158.93 168.085Z" fill="black"/>
<path d="M113.169 133.826C84.0554 140.074 71.5907 120.183 71.0729 119.333C70.6995 118.714 70.0954 118.268 69.3935 118.094C68.6915 117.919 67.9491 118.031 67.3292 118.403C67.0215 118.588 66.7532 118.832 66.5395 119.12C66.3259 119.408 66.1712 119.736 66.0842 120.084C65.9973 120.432 65.9797 120.794 66.0326 121.149C66.0856 121.504 66.2079 121.845 66.3926 122.153C66.545 122.403 70.1793 128.374 77.929 133.442C83.2637 136.929 91.4 140.484 102.394 140.484C106.05 140.484 110.023 140.091 114.317 139.171C114.668 139.096 115 138.952 115.296 138.749C115.591 138.545 115.843 138.285 116.038 137.983C116.233 137.682 116.366 137.345 116.431 136.992C116.495 136.639 116.49 136.277 116.414 135.926C116.34 135.574 116.198 135.241 115.994 134.945C115.791 134.648 115.531 134.395 115.229 134.2C114.928 134.005 114.59 133.871 114.237 133.807C113.883 133.743 113.52 133.749 113.169 133.826Z" fill="black"/>
</svg>
