<svg viewBox="0 0 114 151" xmlns="http://www.w3.org/2000/svg">
    <path d="M111.584 139.293C99.7277 136.329 92.5206 124.856 89.846 119.775L97.6824 117.162C99.4627 120.027 103.293 125.231 108.52 126.973C108.837 127.079 109.171 127.122 109.504 127.098C109.838 127.074 110.163 126.985 110.461 126.836C110.76 126.686 111.026 126.48 111.245 126.227C111.464 125.975 111.63 125.682 111.736 125.365C111.949 124.725 111.899 124.027 111.598 123.424C111.297 122.821 110.769 122.363 110.129 122.149C105.822 120.714 102.172 115.023 101.127 112.951C100.852 112.405 100.39 111.976 99.8255 111.742C99.2605 111.509 98.6303 111.487 98.0504 111.68L85.5633 115.843C84.7656 116.055 62.7489 121.841 44.9697 117.892C33.7596 115.4 23.1431 107.472 15.3919 101.683C14.4044 100.943 13.4137 100.208 12.4198 99.4777C11.099 98.5129 9.05043 97.7285 7.24087 97.0357C6.47369 96.7427 5.42621 96.3404 5.22981 96.2298C5.1833 96.1931 5.14601 96.1461 5.12096 96.0925C5.0959 96.0388 5.08377 95.9801 5.08553 95.9209V91.0846C5.25714 87.0453 21.3062 28.1495 23.6846 20.8985C23.7367 20.8413 23.8931 20.732 23.9999 20.6811L55.5392 6.27578L65.6167 19.3966C65.8025 19.6535 65.8954 19.9661 65.88 20.2828C65.8646 20.5995 65.742 20.9016 65.5322 21.1394L55.3523 32.5523C54.8483 33.1136 54.0017 33.1803 53.5078 32.7672L49.391 28.972C48.7904 28.4171 47.9755 28.1501 47.174 28.3179C46.3719 28.4832 45.7191 28.991 45.3842 29.7379C44.8528 30.3944 41.7866 31.0453 39.1374 31.0701L38.1268 30.9684C37.6319 30.9161 37.1325 31.011 36.6913 31.2414C36.2501 31.4717 35.8867 31.8271 35.6467 32.2631C35.4052 32.6978 35.2965 33.1938 35.334 33.6896C35.3715 34.1854 35.5536 34.6594 35.8577 35.0528C36.4916 35.8715 37.1181 36.696 37.7372 37.5259L39.7457 71.6878L37.9558 75.2701C37.762 75.6574 37.6704 76.0879 37.6898 76.5206C37.7091 76.9533 37.8387 77.3739 38.0663 77.7424C38.2939 78.111 38.6119 78.4152 38.9902 78.6262C39.3684 78.8373 39.7944 78.9482 40.2275 78.9483C40.7003 78.9489 41.1638 78.8175 41.566 78.569C41.9682 78.3205 42.2932 77.9648 42.5042 77.5417L44.3221 73.9035C60.6279 61.6173 74.8972 73.0009 76.1652 74.0643C81.2583 79.1784 81.641 82.5636 81.6562 82.7543C81.6744 83.4166 81.9502 84.0456 82.425 84.5077C82.8998 84.9698 83.5361 85.2285 84.1986 85.2287C85.604 85.2287 86.7411 84.0903 86.7411 82.6863C86.7411 82.195 86.5606 78.0292 81.2704 72.078C89.0623 62.6425 98.3326 59.596 108.853 63.041C110.182 63.4802 111.624 62.748 112.058 61.4158C112.162 61.0984 112.203 60.7637 112.177 60.4307C112.152 60.0978 112.061 59.7731 111.91 59.4752C111.759 59.1774 111.551 58.9123 111.297 58.695C111.043 58.4778 110.749 58.3127 110.432 58.2092C101.615 55.3191 88.8907 54.932 77.4352 68.724C72.4272 65.4156 59.3058 58.7678 44.5973 67.5754L42.7674 36.474C42.7573 36.2774 42.7231 36.0827 42.6657 35.8943C44.3341 35.6496 46.2009 35.1856 47.6812 34.3104L50.1493 36.5833C51.4351 37.6751 53.0979 38.2189 54.7803 38.0979C56.4627 37.9769 58.0305 37.2008 59.1469 35.9363L69.3268 24.524C71.3429 22.2619 71.512 18.8442 69.6865 16.3495L58.3397 1.57548C57.989 1.12036 57.4948 0.797157 56.9372 0.658349C56.3797 0.519542 55.7916 0.573282 55.2685 0.810844L21.9189 16.0431C21.5388 16.2109 19.6174 17.1408 18.9741 19.0699C17.0254 24.9117 5.1312e-05 86.2304 5.1312e-05 91.0623V95.9221C-0.00355726 96.7531 0.183212 97.5738 0.546027 98.3214C0.908842 99.0689 1.43807 99.7234 2.0931 100.235C2.7535 100.751 3.68974 101.122 5.4224 101.785C6.78323 102.306 8.64492 103.019 9.41718 103.582C10.3356 104.256 11.3138 104.987 12.3467 105.757C20.4678 111.822 31.5909 120.128 43.8663 122.855C59.9802 126.437 78.6632 122.714 84.8679 121.255C87.3754 126.307 94.9709 139.326 108.425 143.675V148.04C108.425 149.445 109.562 150.583 110.967 150.583C112.372 150.583 113.51 149.445 113.51 148.04V141.759C113.509 141.192 113.32 140.641 112.971 140.194C112.622 139.748 112.134 139.43 111.584 139.293Z"/>
    <path d="M69.0075 107.418C41.9199 113.231 30.3226 94.7242 29.8408 93.9335C29.4934 93.3572 28.9314 92.9424 28.2783 92.7802C27.6252 92.618 26.9344 92.7217 26.3577 93.0684C26.0714 93.2402 25.8217 93.4667 25.623 93.735C25.4242 94.0033 25.2803 94.3081 25.1994 94.632C25.1184 94.9559 25.1021 95.2926 25.1514 95.6229C25.2006 95.9531 25.3144 96.2704 25.4863 96.5566C25.628 96.7899 29.0095 102.345 36.2198 107.06C41.1832 110.305 48.7533 113.612 58.9821 113.612C62.3838 113.612 66.0805 113.246 70.0753 112.391C70.4018 112.321 70.7112 112.187 70.986 111.998C71.2608 111.808 71.4955 111.566 71.6767 111.286C71.858 111.005 71.9821 110.692 72.0422 110.364C72.1022 110.035 72.0969 109.698 72.0266 109.372C71.958 109.044 71.8253 108.734 71.6361 108.458C71.4469 108.183 71.205 107.947 70.9243 107.766C70.6436 107.584 70.3297 107.46 70.0007 107.4C69.6717 107.34 69.3341 107.346 69.0075 107.418Z"/>
</svg>
