<svg width="202" height="150" viewBox="0 0 202 150" fill="none" xmlns="http://www.w3.org/2000/svg">
<path d="M109.427 32.8942C108.697 32.2842 107.247 31.3542 105.727 31.9242L105.407 31.4042C103.147 22.8942 106.707 16.5942 108.897 14.8642C110.057 13.9542 110.947 13.8742 111.757 14.3842C112.467 14.8242 113.127 15.7042 113.857 16.8642C113.857 16.8642 113.657 28.6942 109.537 32.7542L109.427 32.8942Z" fill="#2D1800"/>
<path d="M146.777 18.1942C145.297 17.8042 143.417 16.7942 141.207 14.7742C136.457 10.4242 128.617 7.74417 121.977 10.1942C114.147 13.0842 113.857 16.8642 113.857 16.8642C113.127 15.7042 112.467 14.8242 111.757 14.3842L111.867 14.2242C111.867 14.2242 109.107 6.55417 116.177 2.13417C123.247 -2.27583 139.987 1.99417 143.817 9.42417C147.117 15.8242 150.807 15.3742 150.537 16.9642C150.377 17.9242 149.037 18.7942 146.777 18.2042V18.1942Z" fill="#2D1800"/>
<path d="M175.327 122.704C175.327 122.704 175.897 118.264 179.457 116.974C180.007 116.774 180.627 116.644 181.327 116.624C186.587 116.454 190.087 125.954 190.087 125.954C188.287 123.394 181.687 122.944 175.337 123.094L175.327 122.704Z" fill="#3C3123"/>
<path d="M184.367 89.7742C181.487 88.8842 178.577 89.7741 176.327 91.1241C175.597 91.5641 175.367 92.1742 175.477 92.8642L175.417 92.8741C174.557 92.7341 173.227 92.0942 172.237 91.5242L172.207 91.5842C172.207 91.5842 168.387 92.2041 163.897 93.1541L163.827 92.7842C163.827 92.7842 165.297 90.5841 164.617 88.7941L164.827 88.7041C164.827 88.7041 173.747 83.5341 184.417 89.6241L184.367 89.7742Z" fill="#3C3123"/>
<path d="M179.417 116.874C179.417 116.874 178.357 110.524 181.357 108.694C180.917 107.854 178.537 102.024 181.137 99.5742L180.917 99.2842C180.917 99.2842 175.857 95.4842 175.477 92.8642C175.367 92.1742 175.597 91.5642 176.327 91.1242C178.577 89.7742 181.487 88.8842 184.367 89.7742C185.957 90.2642 187.537 91.3042 188.997 93.1242C188.997 93.1242 197.457 94.3242 197.207 108.324C196.957 122.324 192.087 130.824 196.827 138.204C197.657 139.484 200.827 140.204 201.327 139.584C201.327 139.584 199.817 141.854 196.017 142.184C195.807 142.114 195.567 142.084 195.327 142.084H193.207H186.317C188.857 141.864 190.667 141.574 191.207 141.204C193.707 139.454 193.327 130.584 190.087 125.954C190.087 125.954 186.587 116.454 181.327 116.624C180.627 116.644 180.007 116.774 179.457 116.974L179.417 116.874Z" fill="#3C3123"/>
<path d="M5.94666 142.084H7.03666C4.48666 145.284 2.89666 148.164 3.32666 149.204C3.41666 149.424 3.63666 149.524 3.95666 149.524V149.584H2.32666C1.22666 149.584 0.32666 148.904 0.32666 148.084V143.584C0.32666 142.754 1.22666 142.084 2.32666 142.084H5.94666Z" fill="#2C73B5"/>
<path d="M55.2567 147.274V149.584H3.95667V149.524C6.64667 149.524 16.5267 142.374 19.2067 142.824C21.6167 143.224 43.0767 147.274 55.2567 147.274Z" fill="#2C73B5"/>
<path d="M197.327 143.584V148.084C197.327 148.904 196.437 149.584 195.327 149.584H55.2567V147.274C58.2167 147.274 60.6267 147.044 62.0867 146.454C63.7067 145.804 65.9867 144.214 68.5667 142.084H80.3267H127.917H156.457C156.457 142.084 186.457 141.871 186.317 142.084C186.317 142.084 195.249 141.954 196.017 142.184C196.777 142.384 197.327 142.934 197.327 143.584Z" fill="#2C73B5"/>
<path d="M190.087 125.954C193.327 130.584 193.707 139.454 191.207 141.204C190.667 141.574 188.857 141.864 186.317 142.084H156.457C154.757 141.344 153.537 138.284 154.607 135.584C155.327 134.934 155.837 134.224 156.087 133.454C156.557 131.994 156.297 130.444 155.777 129.074C156.037 128.614 157.017 126.974 158.657 125.644C159.817 124.704 161.307 123.924 163.087 123.824C165.207 123.714 170.187 123.204 175.337 123.094C181.687 122.944 188.287 123.394 190.087 125.954Z" fill="#9CD8D2"/>
<path d="M127.707 93.2142C127.547 93.4542 127.457 93.5842 127.457 93.5842C127.457 93.5842 118.457 97.0842 114.707 97.8242C111.727 98.4242 106.147 98.3842 103.977 98.3442C104.407 88.9442 105.277 71.2842 105.347 69.7642C106.347 72.5442 107.807 75.2842 109.637 77.8842C114.097 84.2542 120.697 89.8142 127.707 93.2142Z" fill="#75D3CC"/>
<path d="M141.587 49.7042L139.447 49.5342C137.787 50.6242 135.767 51.5742 133.297 52.2042L133.417 52.7242C133.417 52.7242 132.827 57.8642 129.017 58.1542C125.727 58.4042 123.647 53.8742 123.127 52.6142C121.197 52.2042 119.487 51.4742 117.987 50.5942L117.977 50.6142C117.477 50.4942 106.227 47.8042 104.227 58.4442C103.537 62.1442 104.007 65.9942 105.347 69.7642C106.347 72.5442 107.807 75.2842 109.637 77.8842L109.997 77.6242C109.997 77.6242 117.027 76.6542 120.577 70.6142C124.627 77.1542 130.237 82.2042 133.837 85.0542C136.107 82.2042 138.837 78.9442 141.837 75.7142C143.139 74.3102 144.494 72.9202 145.878 71.5702L144.957 64.2042L151.698 66.3882C153.368 65.0512 155.046 63.8342 156.707 62.8252C157.827 62.1452 158.927 61.4852 159.997 60.8352C155.297 57.9342 141.587 49.7042 141.587 49.7042Z" fill="#75D3CC"/>
<path d="M167.327 67.3242C166.877 68.0042 168.747 69.8742 169.137 70.2542C169.127 70.2542 169.127 70.2642 169.117 70.2642C168.627 69.9242 166.167 68.3042 165.827 69.2042C165.457 70.2042 167.327 71.9542 167.327 71.9542L167.347 71.9742C166.397 72.8942 165.427 73.8442 164.457 74.8242C160.707 78.5742 156.917 82.6142 153.697 86.5442L153.587 86.4542C150.707 80.3242 141.957 75.8242 141.957 75.8242L141.837 75.7142C146.437 70.7542 151.657 65.8942 156.707 62.8242C157.827 62.1442 158.927 61.4842 159.997 60.8342C172.347 53.4442 181.397 48.6242 182.207 49.0842C183.087 49.5842 179.707 52.4542 180.087 52.3242C180.457 52.2042 184.827 49.7042 185.207 50.3242C185.587 50.9542 182.327 53.7042 182.327 53.7042C182.327 53.7042 186.327 51.8242 187.087 52.5842C187.827 53.3242 183.827 55.3242 183.827 55.3242C183.827 55.3242 186.827 56.2042 187.207 56.7042C187.587 57.2042 182.207 58.4542 182.207 58.4542C182.207 58.4542 178.327 61.7142 173.077 66.5442C171.607 65.4742 169.447 65.3142 168.707 65.5842C167.467 66.0342 170.057 67.9842 170.607 68.3842C170.107 68.0742 167.777 66.6642 167.327 67.3242Z" fill="#D6B59F"/>
<path d="M154.607 135.584C149.207 140.464 132.167 141.974 127.917 141.974C127.607 141.974 127.367 141.964 127.207 141.954C124.457 141.704 123.707 133.704 124.327 131.824C124.327 131.824 110.587 134.084 104.587 134.584C103.787 134.654 102.927 134.704 102.027 134.764L101.997 134.284C95.3367 119.284 103.087 98.3241 103.087 98.3241C103.087 98.3241 103.417 98.3341 103.977 98.3441C106.147 98.3841 111.727 98.4241 114.707 97.8241C118.457 97.0841 127.457 93.5841 127.457 93.5841C127.457 93.5841 127.547 93.4541 127.707 93.2141C132.027 95.3141 136.507 96.5841 140.747 96.7241C140.747 96.7241 142.947 95.7041 139.137 94.0841C139.137 94.0841 144.857 94.9641 143.537 93.3541C142.557 92.1541 140.837 91.9241 140.027 91.8941C141.297 91.9041 144.827 91.8741 144.707 91.1541C144.557 90.2741 140.597 89.5441 140.597 89.5441C140.597 89.5441 144.707 87.1941 144.117 86.1641C143.537 85.1441 137.377 87.6341 137.377 87.6341C137.377 87.6341 135.957 86.7241 133.837 85.0541C136.107 82.2041 138.837 78.9441 141.837 75.7141L141.957 75.8241C141.957 75.8241 150.707 80.3241 153.587 86.4541L153.697 86.5441C151.547 89.1441 149.667 91.7041 148.207 94.0841C146.827 96.3241 146.827 101.824 147.327 103.954L147.367 103.964C147.057 105.224 146.837 106.554 146.697 107.874H146.667C146.667 107.874 141.387 108.534 141.587 112.704C141.807 117.614 147.007 116.684 147.677 116.554C149.757 120.594 154.327 124.744 158.327 125.454L158.657 125.644C157.017 126.974 156.037 128.614 155.777 129.074C156.297 130.444 156.557 131.994 156.087 133.454C155.837 134.224 155.327 134.934 154.607 135.584Z" fill="#B0D0F7"/>
<path d="M62.4267 118.744C58.7867 123.964 56.2067 127.954 56.2067 127.954C54.8267 128.874 28.3667 128.414 18.8567 131.864C18.6367 129.984 18.7467 128.294 18.8267 127.504C28.5667 123.964 59.1767 119.244 62.4267 118.744Z" fill="#4E6C8C"/>
<path d="M68.5667 142.084C65.9867 144.214 63.7067 145.804 62.0867 146.454C60.6267 147.044 58.2167 147.274 55.2567 147.274C43.0767 147.274 21.6167 143.224 19.2067 142.824C19.2067 142.824 16.5367 137.084 17.3567 132.514C17.7867 132.284 18.2967 132.064 18.8567 131.864C28.3667 128.414 54.8267 128.874 56.2067 127.954C56.2067 127.954 58.7867 123.964 62.4267 118.744C67.6767 111.224 75.1167 101.134 80.2067 96.7042C88.8267 89.2042 103.087 98.3242 103.087 98.3242C103.087 98.3242 95.3367 119.284 101.997 134.284L102.027 134.764C96.1467 135.114 88.5767 135.304 86.0867 136.704C83.2067 138.324 80.3267 141.954 80.3267 141.954V142.084H68.5667Z" fill="#6A8DB7"/>
<path d="M17.3567 132.514C17.1667 132.614 16.9867 132.714 16.8267 132.824C13.3267 135.114 9.66666 138.764 7.03666 142.084H5.94666C7.53666 138.484 12.0767 131.974 16.3267 128.704C16.8167 128.324 17.6767 127.924 18.8267 127.504C18.7467 128.294 18.6367 129.984 18.8567 131.864C18.2967 132.064 17.7867 132.284 17.3567 132.514Z" fill="#BC9E8A"/>
<path d="M7.0367 142.084C9.6667 138.764 13.3267 135.114 16.8267 132.824C16.9867 132.714 17.1667 132.614 17.3567 132.514C16.5367 137.084 19.2067 142.824 19.2067 142.824C16.5267 142.374 6.6467 149.524 3.9567 149.524C3.6367 149.524 3.4167 149.424 3.3267 149.204C2.8967 148.164 4.4867 145.284 7.0367 142.084Z" fill="#D6B59F"/>
<path d="M80.3267 141.954C80.3267 141.954 83.2067 138.324 86.0867 136.704C88.5767 135.304 96.1467 135.114 102.027 134.764C102.927 134.704 103.787 134.654 104.587 134.584C110.587 134.084 124.327 131.824 124.327 131.824C123.707 133.704 124.457 141.704 127.207 141.954C127.367 141.964 127.607 141.974 127.917 141.974V142.084H80.3267V141.954Z" fill="#D6B59F"/>
<path d="M147.327 115.824C147.437 116.064 147.547 116.314 147.677 116.554C147.007 116.684 141.807 117.614 141.587 112.704C141.387 108.534 146.667 107.874 146.667 107.874H146.697C146.367 110.994 146.527 114.024 147.327 115.824Z" fill="#D6B59F"/>
<path d="M164.617 88.7942C165.297 90.5842 163.827 92.7842 163.827 92.7842L163.897 93.1542C162.187 93.5142 160.377 93.9342 158.637 94.3842L158.587 94.2042C157.417 93.7842 156.247 91.6242 157.087 89.2842C157.917 86.9542 161.227 85.9442 163.587 87.5342C164.127 87.8942 164.447 88.3342 164.617 88.7942Z" fill="#D6B59F"/>
<path d="M181.357 108.694C178.357 110.524 179.417 116.874 179.417 116.874L179.457 116.974C175.897 118.264 175.327 122.704 175.327 122.704L175.337 123.094C170.187 123.204 165.207 123.714 163.087 123.824C161.307 123.924 159.817 124.704 158.657 125.644L158.327 125.454C154.327 124.744 149.757 120.594 147.677 116.554C147.547 116.314 147.437 116.064 147.327 115.824C146.527 114.024 146.367 110.994 146.697 107.874C146.837 106.554 147.057 105.224 147.367 103.964C148.027 101.194 149.047 98.7642 150.327 97.5842C151.547 96.4642 154.907 95.3442 158.637 94.3842C160.377 93.9342 162.187 93.5142 163.897 93.1542C168.387 92.2042 172.207 91.5842 172.207 91.5842L172.237 91.5242C173.227 92.0942 174.557 92.7342 175.417 92.8742L175.477 92.8642C175.857 95.4842 180.917 99.2842 180.917 99.2842L181.137 99.5742C178.537 102.024 180.917 107.854 181.357 108.694Z" fill="#D6B59F"/>
<path d="M173.077 66.5442C171.607 65.4742 169.447 65.3142 168.707 65.5842C167.467 66.0342 170.057 67.9842 170.607 68.3842C170.107 68.0742 167.777 66.6642 167.327 67.3242C166.877 68.0042 168.747 69.8742 169.137 70.2542C169.157 70.2742 169.177 70.2942 169.187 70.3042C169.167 70.2942 169.147 70.2842 169.117 70.2642C168.627 69.9242 166.167 68.3042 165.827 69.2042C165.457 70.2042 167.327 71.9542 167.327 71.9542L167.347 71.9742C166.397 72.8942 165.427 73.8442 164.457 74.8242L164.587 74.9542C164.587 74.9542 171.457 77.3242 173.957 71.7042C175.117 69.0842 174.357 67.4742 173.077 66.5442Z" fill="#EFD1BD"/>
<path d="M140.597 89.5443C140.597 89.5443 144.707 87.1943 144.117 86.1643C143.537 85.1443 137.377 87.6342 137.377 87.6342C137.377 87.6342 135.957 86.7243 133.837 85.0543C130.237 82.2043 124.627 77.1543 120.577 70.6143C117.027 76.6543 109.997 77.6243 109.997 77.6243L109.637 77.8842C114.097 84.2542 120.697 89.8142 127.707 93.2142C132.027 95.3142 136.507 96.5843 140.747 96.7243C140.747 96.7243 142.947 95.7043 139.137 94.0843C139.137 94.0843 144.857 94.9642 143.537 93.3542C142.557 92.1542 140.837 91.9243 140.027 91.8943C141.297 91.9043 144.827 91.8743 144.707 91.1543C144.557 90.2743 140.597 89.5443 140.597 89.5443Z" fill="#EFD1BD"/>
<path d="M146.777 18.1942C145.297 17.8042 143.417 16.7942 141.207 14.7742C136.457 10.4242 128.617 7.74419 121.977 10.1942C114.147 13.0842 113.857 16.8642 113.857 16.8642C113.857 16.8642 113.657 28.6942 109.537 32.7542L109.427 32.8942C108.697 32.2842 107.247 31.3542 105.727 31.9242C105.387 32.0442 105.057 32.2442 104.727 32.5242C102.227 34.6642 101.497 42.0642 109.717 41.6842C109.717 41.6842 112.347 47.2642 117.987 50.5942C119.487 51.4742 121.197 52.2042 123.127 52.6142C123.647 53.8742 125.727 58.4042 129.017 58.1542C132.827 57.8642 133.417 52.7242 133.417 52.7242L133.297 52.2042C135.767 51.5742 137.787 50.6242 139.447 49.5342C143.077 47.1242 144.917 44.0142 145.647 42.0142C146.897 38.6142 147.667 20.6842 146.777 18.2042V18.1942Z" fill="#EFD1BD"/>
<path d="M92.5397 118.359C92.5397 118.359 92.3357 118.623 91.9547 119.119C91.5927 119.625 90.9547 120.309 90.1967 121.21C89.4287 122.11 88.4697 123.145 87.3837 124.364C86.2857 125.567 85.0307 126.909 83.6457 128.359C82.2357 129.784 80.7517 131.371 79.1027 132.972C78.2847 133.779 77.4437 134.607 76.5847 135.454C75.7047 136.281 74.8067 137.125 73.8927 137.985C73.4347 138.413 72.9727 138.845 72.5067 139.28C72.0257 139.699 71.5407 140.12 71.0527 140.545C70.0737 141.376 69.1027 142.291 68.0647 143.09C67.0547 143.916 65.9707 144.729 64.8437 145.48C64.2627 145.835 63.7197 146.235 63.0737 146.522C62.7427 146.672 62.4917 146.844 62.0947 146.974L61.1347 147.256C60.4707 147.402 59.7427 147.512 59.0667 147.59C58.3907 147.631 57.7127 147.709 57.0417 147.719C56.3647 147.725 55.7127 147.756 55.0197 147.742C54.3587 147.716 53.6997 147.69 53.0427 147.665C50.4207 147.618 47.8257 147.332 45.3187 147.119C42.8227 146.844 40.4177 146.56 38.1407 146.252C35.8677 145.921 33.7137 145.641 31.7367 145.311C27.7757 144.696 24.4927 144.078 22.1947 143.656C21.0477 143.443 20.1457 143.275 19.5307 143.16C19.3937 143.136 19.2037 143.096 19.1627 143.095C19.0437 143.094 18.9437 143.093 18.8627 143.093C18.7007 143.091 18.6177 143.091 18.6177 143.091C18.4717 143.09 18.3557 142.971 18.3567 142.825C18.3587 142.682 18.4737 142.566 18.6167 142.564L18.6287 142.563C18.6287 142.563 18.7117 142.562 18.8737 142.56C18.9547 142.559 19.0557 142.557 19.1747 142.556C19.3707 142.569 19.4507 142.596 19.6227 142.62C20.2407 142.722 21.1467 142.871 22.2997 143.061C24.6017 143.447 27.8987 143.954 31.8547 144.541C33.8307 144.855 35.9797 145.12 38.2497 145.433C40.5207 145.724 42.9237 145.99 45.4037 146.245C47.8857 146.437 50.4377 146.703 53.0737 146.731C53.7297 146.751 54.3887 146.772 55.0507 146.794C55.6797 146.802 56.3547 146.768 57.0067 146.757C57.6647 146.742 58.3127 146.662 58.9667 146.618C59.6107 146.536 60.2087 146.448 60.8447 146.309L61.8037 146.02C62.0417 145.945 62.3617 145.757 62.6367 145.632C63.2187 145.383 63.7577 144.994 64.3127 144.661C65.4017 143.946 66.4477 143.177 67.4777 142.348C68.5287 141.551 69.4627 140.679 70.4537 139.852C70.9407 139.435 71.4247 139.02 71.9047 138.609C72.3707 138.18 72.8337 137.754 73.2927 137.331C74.2087 136.483 75.1097 135.649 75.9907 134.833C76.8537 133.996 77.6977 133.176 78.5187 132.379C80.1737 130.797 81.6667 129.225 83.0837 127.815C84.4717 126.376 85.7437 125.057 86.8717 123.887C87.9767 122.701 88.9687 121.676 89.7357 120.816C90.4997 119.947 91.1337 119.303 91.5127 118.798C91.9057 118.311 92.1147 118.051 92.1147 118.051L92.1277 118.035C92.2187 117.922 92.3847 117.904 92.4977 117.995C92.6087 118.083 92.6267 118.246 92.5397 118.359Z" fill="#45617F"/>
<path d="M141.243 127.965C141.243 127.965 140.173 128.141 138.3 128.449C136.429 128.768 133.761 129.266 130.591 129.956C129.022 130.323 127.275 130.707 125.62 131.395C125.416 131.481 125.222 131.583 125.049 131.688C124.882 131.776 124.726 131.961 124.734 131.941C124.61 132.36 124.583 132.798 124.563 133.279C124.536 134.225 124.605 135.211 124.738 136.197C124.876 137.182 125.082 138.179 125.407 139.13C125.728 140.046 126.214 141.058 126.928 141.395C127.122 141.474 127.223 141.481 127.534 141.485L127.914 141.494L128.317 141.484C128.859 141.478 129.385 141.441 129.918 141.416C130.988 141.352 132.065 141.25 133.142 141.16C137.443 140.746 141.739 140.111 145.651 139.098C147.609 138.605 149.471 138.003 151.134 137.24C152.791 136.467 154.292 135.591 155.204 134.339C155.301 134.18 155.397 134.023 155.492 133.867C155.563 133.701 155.634 133.538 155.703 133.377C155.775 133.095 155.858 132.65 155.936 132.31C155.939 131.974 155.942 131.647 155.945 131.328C155.915 131.002 155.845 130.678 155.801 130.367C155.526 129.131 155.016 128.089 154.554 127.303C154.085 126.5 153.635 125.916 153.313 125.544C153.155 125.349 153.024 125.231 152.939 125.14C152.881 125.098 152.873 125.073 152.87 125.072L152.768 124.835C152.724 124.733 152.771 124.613 152.874 124.569C152.93 124.545 152.992 124.549 153.043 124.573C153.043 124.573 153.144 124.623 153.294 124.743C153.392 124.841 153.554 124.983 153.722 125.181C154.076 125.57 154.557 126.163 155.07 126.989C155.588 127.825 156.136 128.869 156.476 130.214C156.536 130.556 156.618 130.902 156.662 131.273C156.668 131.656 156.683 132.061 156.668 132.46C156.59 132.845 156.551 133.156 156.43 133.625C156.348 133.822 156.271 134.026 156.179 134.224C156.068 134.41 155.956 134.598 155.842 134.787C155.702 134.962 155.561 135.14 155.419 135.319C155.274 135.481 155.125 135.619 154.976 135.773C154.628 136.089 154.272 136.332 153.91 136.622C153.159 137.127 152.353 137.612 151.482 137.99C149.758 138.8 147.861 139.428 145.875 139.948C141.905 141.012 137.58 141.69 133.238 142.147C132.151 142.258 131.062 142.333 129.971 142.392C129.423 142.413 128.869 142.445 128.335 142.446L127.932 142.452L127.507 142.439C127.283 142.441 126.839 142.411 126.543 142.259C125.913 141.956 125.517 141.449 125.223 140.959C124.927 140.46 124.715 139.944 124.54 139.426C124.196 138.389 123.993 137.345 123.858 136.313C123.729 135.28 123.666 134.26 123.704 133.246C123.727 132.75 123.768 132.211 123.92 131.71C124.019 131.474 124.137 131.329 124.255 131.235C124.375 131.112 124.488 131.057 124.604 130.976C124.835 130.837 125.062 130.725 125.288 130.631C127.094 129.902 128.825 129.551 130.425 129.19C133.628 128.504 136.324 128.134 138.207 127.848C140.094 127.59 141.173 127.442 141.173 127.442C141.317 127.422 141.45 127.523 141.469 127.668C141.489 127.81 141.391 127.94 141.251 127.964L141.243 127.965Z" fill="#87B3DD"/>
<path d="M150.518 97.7651C150.518 97.7651 150.43 97.8651 150.263 98.0531C150.077 98.2381 149.898 98.5241 149.653 98.8861C149.544 99.0841 149.422 99.3031 149.29 99.5421C149.176 99.7921 149.053 100.062 148.922 100.351C148.689 100.944 148.441 101.62 148.219 102.377C147.992 103.146 147.792 103.942 147.631 104.856C147.434 105.764 147.324 106.705 147.199 107.674C147.09 108.65 147.021 109.686 147.028 110.704C147.021 111.736 147.093 112.783 147.27 113.794C147.437 114.82 147.758 115.73 148.274 116.62C148.544 117.068 148.791 117.541 149.072 117.957C149.364 118.358 149.653 118.754 149.936 119.144C150.574 119.879 151.16 120.636 151.831 121.236C152.455 121.889 153.134 122.402 153.747 122.893C154.377 123.356 154.991 123.734 155.529 124.072C156.1 124.342 156.59 124.609 157.01 124.778C157.877 125.044 158.372 125.195 158.372 125.195L158.42 125.21C158.558 125.252 158.636 125.399 158.594 125.537C158.553 125.671 158.414 125.747 158.28 125.715C158.28 125.715 157.744 125.581 156.807 125.348C156.353 125.193 155.826 124.943 155.205 124.685C154.624 124.363 153.954 124.005 153.285 123.533C152.631 123.041 151.906 122.523 151.236 121.865C150.521 121.253 149.875 120.501 149.203 119.723C148.893 119.304 148.578 118.879 148.26 118.448C147.961 118.012 147.719 117.558 147.442 117.107C146.884 116.185 146.467 115.054 146.289 113.968C146.091 112.872 146.042 111.774 146.056 110.701C146.061 109.614 146.141 108.578 146.265 107.563C146.399 106.543 146.546 105.562 146.771 104.678C146.956 103.786 147.204 102.901 147.458 102.139C147.705 101.361 147.999 100.668 148.282 100.064C148.437 99.7681 148.583 99.4901 148.717 99.2331C148.872 98.9861 149.014 98.7601 149.143 98.5551C149.441 98.1561 149.683 97.8361 149.865 97.6761C150.041 97.4981 150.136 97.4031 150.136 97.4031C150.238 97.2991 150.405 97.2991 150.509 97.4021C150.608 97.5001 150.61 97.6611 150.518 97.7651Z" fill="#AC8471"/>
<path d="M175.161 122.681C175.161 122.681 175.176 122.307 175.31 121.685C175.452 121.065 175.691 120.165 176.259 119.194C176.555 118.719 176.905 118.21 177.385 117.756C177.864 117.312 178.431 116.872 179.115 116.613C179.517 116.436 179.784 116.401 180.132 116.285C180.488 116.21 180.892 116.181 181.278 116.135C181.743 116.157 182.005 116.173 182.398 116.223C182.783 116.34 183.217 116.419 183.561 116.597C184.976 117.257 186.045 118.347 186.903 119.411C187.339 119.945 187.686 120.509 188.019 121.036C188.332 121.576 188.622 122.087 188.863 122.573C189.352 123.54 189.672 124.383 189.895 124.97C190.109 125.562 190.206 125.911 190.206 125.911C190.225 125.978 190.186 126.048 190.118 126.067C190.058 126.084 189.996 126.052 189.969 125.998C189.969 125.998 189.812 125.681 189.537 125.125C189.262 124.569 188.827 123.797 188.288 122.889C188.021 122.433 187.706 121.957 187.368 121.459C187.018 120.97 186.629 120.472 186.217 119.972C185.386 118.987 184.361 118.024 183.162 117.506C182.868 117.369 182.586 117.324 182.302 117.212C181.996 117.163 181.546 117.14 181.314 117.12C181.003 117.161 180.709 117.171 180.391 117.219C180.084 117.309 179.671 117.383 179.464 117.482C178.886 117.684 178.394 118.026 177.95 118.376C177.511 118.738 177.169 119.171 176.872 119.582C176.314 120.433 175.951 121.231 175.765 121.811C175.567 122.391 175.494 122.728 175.494 122.728C175.474 122.819 175.385 122.876 175.294 122.856C175.212 122.838 175.158 122.761 175.161 122.681Z" fill="#302418"/>
<path d="M179.251 116.9C179.251 116.9 179.143 116.457 179.049 115.675C178.973 114.892 178.839 113.76 179.013 112.388C179.093 111.704 179.239 110.955 179.572 110.199C179.89 109.446 180.448 108.671 181.301 108.201C181.464 108.1 181.712 108.005 181.956 107.918C182.193 107.856 182.426 107.789 182.665 107.768C183.163 107.703 183.582 107.724 184.123 107.823C185.099 108.048 185.958 108.615 186.609 109.303C187.273 109.989 187.776 110.772 188.222 111.554C188.663 112.34 189.032 113.137 189.359 113.917C190.006 115.48 190.46 116.98 190.866 118.252C191.266 119.527 191.562 120.597 191.811 121.331C192.049 122.068 192.203 122.482 192.203 122.482C192.227 122.547 192.194 122.62 192.129 122.645C192.069 122.667 192.002 122.64 191.973 122.585C191.973 122.585 191.76 122.189 191.447 121.469C191.139 120.749 190.715 119.715 190.248 118.466C189.782 117.217 189.217 115.771 188.547 114.268C188.213 113.517 187.841 112.755 187.41 112.022C186.976 111.294 186.491 110.578 185.901 109.997C185.323 109.405 184.65 108.942 183.91 108.762C183.186 108.612 182.357 108.67 181.735 109.018C181.118 109.361 180.649 109.923 180.336 110.553C180.015 111.181 179.84 111.861 179.733 112.494C179.517 113.767 179.5 114.874 179.522 115.64C179.542 116.411 179.585 116.847 179.585 116.847C179.594 116.939 179.526 117.021 179.434 117.031C179.348 117.039 179.271 116.98 179.251 116.9Z" fill="#302418"/>
<path d="M181.281 108.882C181.281 108.882 181.265 108.861 181.233 108.819C181.17 108.727 181.159 108.693 181.102 108.595C181.005 108.412 180.864 108.139 180.715 107.791C180.424 107.088 180.008 106.073 179.747 104.774C179.625 104.123 179.526 103.406 179.529 102.626C179.546 101.851 179.669 100.991 180.104 100.19C180.322 99.7781 180.583 99.4361 181 99.0891L181.504 98.7201C181.69 98.6041 181.942 98.5161 182.163 98.4171L182.509 98.2771L182.595 98.2431C182.628 98.2351 182.553 98.2491 182.674 98.2221L182.694 98.2191L182.734 98.2131L182.891 98.1871L183.523 98.0831C183.72 98.0331 184.012 98.0891 184.255 98.0941C184.505 98.1181 184.776 98.1151 184.991 98.2111L185.669 98.4381C185.891 98.5201 186.081 98.6561 186.287 98.7641C186.71 98.9711 187.04 99.2801 187.397 99.5521C187.737 99.8401 188.032 100.162 188.338 100.465C188.611 100.792 188.896 101.106 189.147 101.432C190.15 102.74 190.896 104.059 191.565 105.159C192.223 106.264 192.765 107.179 193.218 107.758C193.442 108.051 193.624 108.27 193.773 108.391C193.913 108.526 193.987 108.598 193.987 108.598L194.007 108.618C194.056 108.666 194.058 108.745 194.01 108.794C193.966 108.84 193.895 108.844 193.845 108.807C193.845 108.807 193.756 108.741 193.588 108.616C193.409 108.497 193.178 108.298 192.921 108.011C192.65 107.734 192.367 107.368 192.042 106.95C191.722 106.528 191.372 106.048 191.012 105.511C190.647 104.983 190.252 104.41 189.834 103.805C189.412 103.206 188.941 102.601 188.453 101.983C188.207 101.676 187.933 101.389 187.671 101.085C187.382 100.814 187.103 100.519 186.793 100.269C186.472 100.039 186.169 99.7631 185.813 99.6041C185.639 99.5191 185.474 99.4011 185.292 99.3401L184.745 99.1711C184.56 99.0901 184.39 99.1161 184.216 99.0871C184.032 99.0861 183.894 99.0061 183.67 99.0551L183.037 99.1481L182.879 99.1711L182.84 99.1771L182.82 99.1801C182.929 99.1571 182.841 99.1771 182.862 99.1741L182.801 99.1991L182.557 99.2951C182.393 99.3671 182.231 99.3931 182.061 99.4921L181.551 99.8531C181.335 100.027 181.062 100.334 180.911 100.634C180.234 101.887 180.291 103.428 180.459 104.648C180.653 105.886 180.92 106.918 181.154 107.621C181.273 107.975 181.363 108.245 181.435 108.428C181.468 108.51 181.494 108.572 181.511 108.614C181.537 108.659 181.551 108.682 181.551 108.682L181.557 108.693C181.603 108.773 181.577 108.875 181.496 108.922C181.425 108.969 181.331 108.949 181.281 108.882Z" fill="#302418"/>
<path d="M181.584 108.784C181.584 108.784 181.664 108.785 181.784 108.785C181.871 108.786 181.922 108.788 181.914 108.789C181.729 108.791 181.543 108.794 181.543 108.794C181.474 108.795 181.359 108.795 181.29 108.794C181.29 108.794 181.104 108.792 180.919 108.789C180.911 108.788 180.963 108.786 181.049 108.785C181.169 108.784 181.249 108.784 181.249 108.784C181.322 108.784 181.512 108.784 181.584 108.784Z" fill="#302418"/>
<path d="M180.816 99.417C180.816 99.417 180.481 99.207 179.934 98.8C179.392 98.383 178.602 97.799 177.75 96.979C177.322 96.571 176.871 96.112 176.43 95.583C175.985 95.059 175.544 94.46 175.237 93.709C175.147 93.532 175.103 93.317 175.048 93.109L175.009 92.952C174.989 92.787 175 92.826 174.994 92.754L174.981 92.474C174.964 92.295 175.062 91.959 175.136 91.716C175.263 91.504 175.398 91.28 175.563 91.106C175.748 90.957 175.917 90.807 176.129 90.669L176.634 90.388C176.957 90.194 177.346 90.026 177.718 89.861C178.468 89.541 179.242 89.32 180.024 89.149C180.421 89.098 180.813 89.029 181.204 88.997C181.598 88.995 181.986 88.963 182.367 88.99C182.747 89.036 183.126 89.053 183.484 89.136C183.852 89.237 184.163 89.307 184.55 89.429C185.16 89.7 185.744 89.913 186.26 90.287C186.514 90.458 186.78 90.596 186.987 90.777C187.189 90.961 187.38 91.136 187.56 91.3C187.737 91.464 187.903 91.618 188.056 91.76C188.189 91.921 188.311 92.069 188.421 92.202C188.851 92.739 189.097 93.045 189.097 93.045C189.14 93.099 189.132 93.178 189.077 93.222C189.027 93.262 188.956 93.258 188.911 93.215L188.899 93.204C188.899 93.204 188.622 92.938 188.137 92.472C188.019 92.355 187.888 92.225 187.744 92.084C187.584 91.964 187.411 91.834 187.226 91.695C187.041 91.558 186.845 91.412 186.638 91.258C186.426 91.115 186.188 91.004 185.951 90.865C185.506 90.567 184.887 90.379 184.262 90.149C183.961 90.088 183.651 90.027 183.335 89.963C183.007 89.914 182.666 89.912 182.325 89.874C181.982 89.857 181.63 89.897 181.276 89.905C180.923 89.943 180.568 90.015 180.209 90.067C179.503 90.24 178.787 90.462 178.116 90.768C177.786 90.932 177.453 91.054 177.112 91.257L176.605 91.535L176.261 91.798C176.169 91.899 176.111 92.013 176.031 92.112C176.032 92.237 175.945 92.254 175.948 92.449L175.953 92.729C175.953 92.749 175.956 92.882 175.954 92.808L175.981 92.92C176.019 93.069 176.036 93.219 176.109 93.37C176.339 93.971 176.705 94.548 177.088 95.062C177.469 95.582 177.876 96.049 178.265 96.468C179.051 97.3 179.733 97.983 180.233 98.435C180.732 98.889 181.017 99.148 181.017 99.148C181.086 99.21 181.091 99.316 181.029 99.385C180.974 99.45 180.883 99.46 180.816 99.417Z" fill="#302418"/>
<path d="M171.057 90.5322C171.057 90.5322 171.076 90.5432 171.112 90.5632C171.146 90.5762 171.204 90.6282 171.261 90.6372C171.314 90.6512 171.379 90.6692 171.453 90.6892C171.52 90.7072 171.642 90.7522 171.742 90.7962C171.951 90.8852 172.219 90.9912 172.461 91.1132C172.735 91.2302 173.015 91.3842 173.293 91.5302C173.563 91.6672 173.83 91.8112 174.076 91.9602C174.329 92.0912 174.562 92.2252 174.76 92.3542C175.154 92.5662 175.437 92.7492 175.437 92.7492L175.452 92.7592C175.513 92.7982 175.53 92.8792 175.491 92.9392C175.469 92.9732 175.433 92.9942 175.396 92.9982C175.396 92.9982 175.313 93.0082 175.165 93.0092C175.021 93.0012 174.798 93.0152 174.544 92.9792C174.3 92.9342 174.018 92.8642 173.717 92.7772C173.424 92.6752 173.121 92.5422 172.819 92.4062C172.264 92.1202 171.711 91.7582 171.343 91.4122C171.245 91.3252 171.179 91.2592 171.091 91.1612C171.002 91.0652 170.934 90.9822 170.881 90.9162C170.82 90.8502 170.821 90.8022 170.799 90.7672C170.784 90.7332 170.777 90.7152 170.777 90.7152C170.74 90.6312 170.778 90.5332 170.863 90.4972C170.912 90.4752 170.967 90.4802 171.01 90.5042L171.057 90.5322Z" fill="#302418"/>
<path d="M117.933 50.7791L117.913 50.7701L117.938 50.7781C117.158 50.6361 116.359 50.5641 115.567 50.5311C114.774 50.4941 113.98 50.5341 113.199 50.6251C111.637 50.7901 110.103 51.2321 108.803 52.0481C108.457 52.2191 108.177 52.4851 107.878 52.7201C107.731 52.8411 107.575 52.9511 107.434 53.0791L107.053 53.5051C106.503 54.0371 106.14 54.7251 105.747 55.3761C105.457 56.0901 105.106 56.7781 104.965 57.5511C104.878 57.9221 104.755 58.3141 104.696 58.6691L104.52 59.8651C104.451 60.6391 104.386 61.4081 104.402 62.2011C104.388 62.5951 104.422 62.9881 104.447 63.3811C104.466 63.7751 104.496 64.1681 104.557 64.5591C104.64 65.3451 104.801 66.1201 104.96 66.8961C105.156 67.6631 105.336 68.4351 105.585 69.1911C105.795 69.9241 106.135 70.6931 106.404 71.4431C106.702 72.1881 107.063 72.8881 107.383 73.6191C107.739 74.3331 108.126 75.0351 108.497 75.7461L109.741 77.8101L109.745 77.8161C109.781 77.8751 109.762 77.9531 109.702 77.9891C109.646 78.0231 109.573 78.0081 109.535 77.9551C109.06 77.3001 108.582 76.6441 108.122 75.9761C107.7 75.2831 107.262 74.5991 106.852 73.8951C106.482 73.1691 106.084 72.4431 105.75 71.7051C105.444 70.9491 105.096 70.2531 104.823 69.4471C104.539 68.6791 104.306 67.8931 104.1 67.0981C103.923 66.2971 103.745 65.4941 103.645 64.6761C103.576 64.2701 103.539 63.8601 103.512 63.4481C103.48 63.0371 103.439 62.6271 103.447 62.2131C103.417 61.3921 103.472 60.5521 103.538 59.7191L103.714 58.5231C103.792 58.0841 103.919 57.7051 104.02 57.2931C104.184 56.4711 104.57 55.7121 104.901 54.9391C105.34 54.2201 105.756 53.4681 106.376 52.8761L106.809 52.4081C106.968 52.2671 107.142 52.1431 107.308 52.0111C107.646 51.7531 107.974 51.4811 108.361 51.3021C109.833 50.4581 111.498 50.0571 113.141 49.9481C113.966 49.9041 114.79 49.9181 115.604 50.0101C116.419 50.0911 117.226 50.2251 118.017 50.4491L118.034 50.4541L118.043 50.4571L118.063 50.4681L118.081 50.4781C118.162 50.5221 118.192 50.6241 118.148 50.7051C118.104 50.7821 118.011 50.8121 117.933 50.7791Z" fill="#4E6C8C"/>
<path d="M109.972 77.458C110.497 77.329 111.02 77.17 111.534 76.994C112.049 76.819 112.548 76.604 113.047 76.393C113.542 76.174 114.027 75.937 114.5 75.678C114.966 75.408 115.434 75.14 115.868 74.824C116.32 74.534 116.732 74.192 117.153 73.864C117.543 73.5 117.956 73.162 118.31 72.764C118.488 72.566 118.69 72.39 118.848 72.176L119.344 71.552C119.519 71.351 119.644 71.114 119.8 70.9C119.943 70.68 120.109 70.459 120.235 70.24L120.26 70.75C119.217 69.161 118.211 67.565 117.36 65.867C116.936 65.019 116.524 64.161 116.187 63.269C116.025 62.819 115.876 62.364 115.758 61.897C115.693 61.667 115.662 61.421 115.618 61.185C115.579 60.947 115.594 60.694 115.581 60.454C115.578 60.385 115.631 60.326 115.7 60.322C115.766 60.318 115.823 60.367 115.831 60.431L115.834 60.454C115.947 61.35 116.311 62.214 116.714 63.043C117.125 63.873 117.561 64.694 118.037 65.495C119.007 67.082 119.983 68.683 121.057 70.198C121.165 70.351 121.17 70.546 121.087 70.701L121.083 70.708C120.94 70.972 120.779 71.197 120.627 71.443C120.466 71.679 120.334 71.937 120.143 72.151L119.604 72.819C119.431 73.048 119.214 73.237 119.021 73.447C118.639 73.875 118.188 74.228 117.757 74.601C117.297 74.936 116.851 75.292 116.358 75.576C115.879 75.881 115.37 76.133 114.865 76.385C114.354 76.626 113.833 76.841 113.305 77.037C112.239 77.4 111.149 77.681 110.025 77.789C109.933 77.798 109.851 77.73 109.842 77.638C109.834 77.554 109.889 77.478 109.969 77.459L109.972 77.458Z" fill="#4E6C8C"/>
<path d="M144.433 59.0332C144.433 59.0332 144.643 59.8012 144.883 60.9632C145.12 62.1252 145.372 63.6832 145.567 65.2492C145.762 66.8142 145.894 68.3882 145.955 69.5722C146.01 70.7582 146.003 71.5542 146.003 71.5542C146.002 71.6242 145.945 71.6812 145.875 71.6802C145.817 71.6802 145.768 71.6392 145.753 71.5862C145.753 71.5862 145.545 70.8172 145.298 69.6572C145.057 68.4952 144.786 66.9402 144.579 65.3762C144.371 63.8132 144.22 62.2422 144.155 61.0572C144.092 59.8722 144.101 59.0762 144.101 59.0762C144.102 58.9822 144.178 58.9082 144.272 58.9092C144.349 58.9092 144.414 58.9622 144.433 59.0332Z" fill="#4E6C8C"/>
<path d="M109.811 33.4841C109.494 33.1941 109.21 32.9271 108.865 32.7141C108.539 32.4871 108.169 32.3191 107.803 32.1761C107.427 32.0651 107.042 31.9771 106.662 32.0061C106.472 32.0161 106.283 32.0271 106.103 32.0951L105.832 32.1721L105.573 32.3011C105.37 32.3851 105.229 32.5041 105.088 32.6161C105.025 32.6701 104.922 32.7311 104.891 32.7761L104.678 33.0051C104.52 33.1551 104.42 33.3141 104.323 33.4701C104.216 33.6191 104.118 33.7811 104.04 33.9661C103.853 34.3111 103.739 34.6911 103.617 35.0641C103.528 35.4481 103.444 35.8331 103.428 36.2261C103.4 36.4211 103.408 36.6171 103.42 36.8111C103.435 37.0051 103.419 37.2031 103.469 37.3911L103.577 37.9601L103.773 38.4991C103.821 38.6871 103.949 38.8341 104.035 39.0031C104.126 39.1701 104.22 39.3341 104.357 39.4661C104.485 39.6051 104.599 39.7561 104.734 39.8861L105.185 40.2311C105.481 40.4661 105.856 40.5951 106.192 40.7711C106.57 40.8671 106.929 41.0181 107.319 41.0741C107.714 41.1131 108.097 41.2051 108.497 41.2131L109.697 41.2231H109.704C109.892 41.2251 110.054 41.3311 110.135 41.4871C110.544 42.2691 111.02 43.0681 111.552 43.8071C112.059 44.5691 112.659 45.2611 113.235 45.9701L114.184 46.9571L114.66 47.4491L115.18 47.8921L116.219 48.7791C116.579 49.0561 116.969 49.2921 117.341 49.5511C117.72 49.7901 118.087 50.0931 118.47 50.2901C118.879 50.5001 119.289 50.7661 119.696 50.9301C120.499 51.3121 121.352 51.6391 122.221 51.8861C122.655 51.9861 123.105 52.1511 123.524 52.1991L124.904 52.4221C125.371 52.5261 125.805 52.4761 126.256 52.5101C126.697 52.5141 127.166 52.5671 127.585 52.5331L130.373 52.3161L133.057 51.8321C133.911 51.5981 134.871 51.3701 135.688 51.0251C136.543 50.7291 137.368 50.3181 138.179 49.8971C138.566 49.6661 138.987 49.4361 139.349 49.2051L140.489 48.3951L141.539 47.5241C141.881 47.2221 142.194 46.8841 142.525 46.5651C142.842 46.2331 143.128 45.8721 143.432 45.5261C143.705 45.1571 143.986 44.7911 144.241 44.4081C144.742 43.6361 145.185 42.8231 145.53 41.9681C145.554 41.9031 145.627 41.8701 145.693 41.8941C145.756 41.9181 145.788 41.9911 145.768 42.0551C145.453 42.9451 145.037 43.7941 144.557 44.6071C144.312 45.0101 144.041 45.3981 143.777 45.7891C143.481 46.1561 143.202 46.5401 142.891 46.8951C142.565 47.2381 142.258 47.5981 141.915 47.9281L140.851 48.8871L139.732 49.7261C139.317 50.0081 138.922 50.2331 138.515 50.4901C137.685 50.9481 136.847 51.3921 135.947 51.7301C135.05 52.1251 134.19 52.3471 133.257 52.6261C132.323 52.8141 131.385 53.0321 130.448 53.1891L127.662 53.4311C127.152 53.4741 126.687 53.4231 126.197 53.4211C125.72 53.3901 125.211 53.4341 124.762 53.3361L123.38 53.1261C122.871 53.0651 122.438 52.9061 121.963 52.8001C121.039 52.5451 120.141 52.2131 119.257 51.8011C118.797 51.6141 118.421 51.3711 117.999 51.1591C117.553 50.9281 117.189 50.6391 116.785 50.3761C116.394 50.1011 115.986 49.8481 115.611 49.5551L114.529 48.6191L113.988 48.1511L113.495 47.6341L112.513 46.5981C111.918 45.8571 111.301 45.1331 110.779 44.3371C110.229 43.5571 109.75 42.7491 109.303 41.8761L109.741 42.1401L108.444 42.1211C108.011 42.1091 107.577 42.0101 107.145 41.9511C106.713 41.8771 106.295 41.6991 105.872 41.5741C105.477 41.3641 105.052 41.1971 104.699 40.9101L104.169 40.4821C104.009 40.3211 103.872 40.1371 103.724 39.9641C103.566 39.7971 103.454 39.5991 103.349 39.3981C103.249 39.1951 103.108 39.0091 103.052 38.7891L102.837 38.1481L102.726 37.4871C102.676 37.2681 102.696 37.0451 102.685 36.8241C102.677 36.6021 102.675 36.3811 102.71 36.1631C102.739 35.7221 102.841 35.2941 102.952 34.8691C103.094 34.4541 103.236 34.0361 103.464 33.6571C103.558 33.4611 103.681 33.2711 103.826 33.0861C103.961 32.8961 104.098 32.7131 104.251 32.5811L104.473 32.3611C104.581 32.2491 104.668 32.2141 104.766 32.1371C104.959 31.9991 105.152 31.8691 105.341 31.8001L105.648 31.6651L105.981 31.5841C106.2 31.5151 106.427 31.5071 106.654 31.5061C107.108 31.4931 107.545 31.6121 107.958 31.7561C108.36 31.9321 108.744 32.1291 109.094 32.3931C109.449 32.6341 109.762 32.9541 110.047 33.2381C110.112 33.3031 110.113 33.4091 110.048 33.4751C109.981 33.5441 109.876 33.5441 109.811 33.4841Z" fill="#C99781"/>
<path d="M105.244 35.311C105.244 35.311 105.436 35.056 105.825 34.808C106.21 34.572 106.851 34.325 107.569 34.493C107.921 34.577 108.251 34.781 108.472 35.03C108.599 35.142 108.655 35.293 108.736 35.412C108.821 35.532 108.836 35.668 108.879 35.78C108.963 36.007 108.94 36.208 108.957 36.339C108.961 36.472 108.954 36.548 108.954 36.548C108.947 36.621 108.882 36.675 108.808 36.669C108.773 36.666 108.744 36.649 108.721 36.626L108.709 36.612C108.709 36.612 108.658 36.556 108.585 36.458C108.514 36.361 108.422 36.215 108.289 36.082C108.223 36.017 108.171 35.927 108.092 35.87C108.014 35.812 107.949 35.732 107.865 35.685C107.704 35.581 107.537 35.497 107.343 35.463C106.962 35.377 106.472 35.437 106.089 35.493C105.687 35.556 105.419 35.597 105.419 35.597C105.321 35.615 105.228 35.55 105.21 35.452C105.202 35.402 105.217 35.35 105.244 35.311Z" fill="#C99781"/>
<path d="M172.666 103.121C173.416 102.871 171.75 96.2872 170.166 96.6212C168.582 96.9542 171.249 103.454 172.249 103.204" fill="#302315"/>
<path d="M171.832 112.787C171.256 112.001 169.582 119.204 170.332 119.454C171.082 119.704 172.748 114.037 171.832 112.787Z" fill="#302315"/>
<path d="M161.507 107.924C161.504 107.931 161.511 108.004 161.523 108.157C161.529 108.307 161.572 108.521 161.628 108.755C161.685 108.992 161.815 109.228 161.973 109.427C162.058 109.524 162.159 109.61 162.271 109.687C162.394 109.754 162.522 109.813 162.667 109.861C162.778 109.916 163.026 109.957 163.062 109.972L163.34 109.983C163.441 109.993 163.523 109.989 163.554 109.963C163.642 109.929 163.749 109.941 163.866 109.869C163.985 109.832 164.083 109.755 164.178 109.686C164.561 109.405 164.76 109.08 164.754 109.104C164.809 108.969 164.963 108.904 165.098 108.959C165.233 109.014 165.298 109.168 165.243 109.303C165.243 109.303 165.214 109.42 165.145 109.592C165.102 109.675 165.058 109.78 164.99 109.894C164.912 110.001 164.85 110.143 164.721 110.258C164.604 110.381 164.475 110.516 164.296 110.62C164.142 110.741 163.914 110.839 163.655 110.892C163.516 110.931 163.419 110.935 163.335 110.932L163.057 110.936C162.833 110.933 162.81 110.901 162.675 110.884C162.567 110.863 162.458 110.846 162.348 110.802C162.128 110.738 161.921 110.615 161.724 110.488C161.532 110.343 161.364 110.178 161.227 109.994C161.093 109.808 161.002 109.61 160.943 109.418C160.889 109.225 160.858 109.044 160.842 108.879C160.805 108.217 160.991 107.817 160.991 107.817C161.055 107.681 161.216 107.623 161.351 107.686C161.444 107.73 161.501 107.82 161.507 107.916V107.924Z" fill="#AC8471"/>
<path d="M165.58 97.3603C165.58 97.3603 165.468 97.4383 165.271 97.5753C165.073 97.7073 164.81 97.9293 164.516 98.1943C164.226 98.4653 163.919 98.8023 163.674 99.1953C163.433 99.5903 163.256 100.039 163.214 100.517C163.185 100.634 163.203 100.757 163.196 100.877C163.193 100.913 163.197 101.052 163.188 101.003L163.224 101.21C163.28 101.465 163.278 101.804 163.385 101.949C163.464 102.132 163.511 102.333 163.653 102.499C163.757 102.683 163.888 102.834 164.026 102.965C164.289 103.238 164.572 103.423 164.776 103.538C164.984 103.65 165.105 103.705 165.105 103.705L165.114 103.709C165.178 103.738 165.207 103.814 165.177 103.879C165.156 103.925 165.11 103.953 165.061 103.954C165.061 103.954 164.903 103.955 164.644 103.906C164.52 103.868 164.356 103.842 164.185 103.77C164.017 103.693 163.803 103.635 163.618 103.487C163.417 103.361 163.206 103.208 163.032 102.988C162.83 102.799 162.674 102.528 162.536 102.228C162.36 101.913 162.357 101.68 162.278 101.4L162.234 101.195C162.209 101.007 162.223 101.006 162.215 100.902C162.216 100.741 162.194 100.58 162.223 100.418C162.249 100.093 162.337 99.7753 162.448 99.4753C162.565 99.1753 162.727 98.9073 162.903 98.6653C163.259 98.1853 163.689 97.8423 164.076 97.6073C164.858 97.1433 165.459 97.0483 165.459 97.0483C165.553 97.0333 165.64 97.0973 165.655 97.1913C165.665 97.2573 165.632 97.3243 165.58 97.3603Z" fill="#1E120D"/>
<path d="M162.903 96.1752C162.903 96.1752 163.038 96.3152 163.177 96.5142C163.316 96.7162 163.44 96.9962 163.543 97.2602C163.582 97.4052 163.638 97.5212 163.668 97.6522C163.694 97.7942 163.741 97.8662 163.759 97.9852C163.781 98.0982 163.81 98.1502 163.836 98.2212C163.863 98.2942 163.878 98.3362 163.878 98.3362L163.898 98.3912C163.923 98.4612 163.887 98.5372 163.818 98.5632C163.807 98.5672 163.795 98.5692 163.784 98.5702C163.784 98.5702 163.735 98.5742 163.643 98.5602C163.567 98.5372 163.385 98.5222 163.27 98.4322C163.155 98.3512 162.981 98.2302 162.891 98.0912C162.784 97.9522 162.679 97.7892 162.617 97.6262C162.472 97.2952 162.439 96.9472 162.462 96.6812C162.489 96.4102 162.572 96.2322 162.572 96.2322C162.617 96.1302 162.737 96.0852 162.839 96.1302C162.863 96.1412 162.886 96.1582 162.903 96.1752Z" fill="#1E120D"/>
<path d="M160.715 97.3903C160.715 97.3903 160.847 97.5623 161.046 97.8203C161.131 97.9483 161.243 98.0803 161.338 98.2303C161.442 98.3743 161.557 98.5093 161.66 98.6553C161.789 98.7623 161.879 98.9303 162.009 99.0193C162.139 99.1023 162.238 99.2563 162.366 99.3133C162.607 99.4553 162.806 99.6093 162.806 99.6093L162.835 99.6313C162.892 99.6753 162.903 99.7583 162.858 99.8153C162.841 99.8373 162.818 99.8533 162.793 99.8603C162.793 99.8603 162.566 99.9293 162.167 99.9443C161.966 99.9623 161.76 99.8503 161.522 99.7663C161.28 99.6793 161.109 99.4733 160.905 99.3043C160.818 99.2093 160.757 99.0963 160.685 98.9943C160.614 98.8903 160.549 98.7843 160.514 98.6743C160.428 98.4583 160.365 98.2523 160.354 98.0673C160.324 97.8903 160.349 97.7243 160.352 97.6183C160.36 97.5103 160.389 97.4563 160.384 97.4553L160.395 97.4293C160.436 97.3353 160.545 97.2923 160.64 97.3323C160.671 97.3463 160.697 97.3663 160.715 97.3903Z" fill="#1E120D"/>
<path d="M167.176 118.685C167.176 118.685 166.569 118.715 165.708 118.42C165.281 118.27 164.79 118.022 164.343 117.625C164.122 117.424 163.908 117.194 163.733 116.925C163.563 116.654 163.412 116.361 163.32 116.048C163.259 115.895 163.247 115.733 163.213 115.576C163.199 115.472 163.185 115.473 163.171 115.284L163.172 115.075C163.192 114.784 163.147 114.557 163.255 114.212C163.328 113.889 163.426 113.592 163.585 113.367C163.709 113.115 163.885 112.924 164.056 112.759C164.207 112.576 164.404 112.476 164.553 112.366C164.707 112.261 164.861 112.202 164.975 112.139C165.219 112.038 165.374 112.007 165.374 112.007C165.443 111.993 165.51 112.038 165.524 112.108C165.534 112.158 165.513 112.208 165.475 112.236L165.466 112.242C165.466 112.242 165.359 112.32 165.178 112.472C165.002 112.626 164.763 112.865 164.561 113.186C164.453 113.342 164.355 113.518 164.291 113.719C164.187 113.91 164.182 114.116 164.141 114.311C164.066 114.475 164.138 114.806 164.135 115.068L164.141 115.277C164.141 115.227 164.165 115.364 164.175 115.399C164.207 115.515 164.215 115.639 164.267 115.748C164.406 116.207 164.671 116.61 164.987 116.948C165.308 117.283 165.677 117.55 166.016 117.756C166.359 117.955 166.661 118.118 166.882 118.207C167.102 118.301 167.228 118.354 167.228 118.354C167.316 118.389 167.359 118.489 167.324 118.577C167.302 118.64 167.239 118.681 167.176 118.685Z" fill="#1E120D"/>
<path d="M164.517 120.072C164.517 120.072 164.4 119.915 164.318 119.655C164.24 119.399 164.202 119.052 164.276 118.698C164.304 118.526 164.373 118.344 164.45 118.187C164.509 118.032 164.656 117.878 164.752 117.775C164.845 117.664 165.022 117.612 165.091 117.574C165.177 117.541 165.226 117.535 165.226 117.535C165.3 117.527 165.366 117.579 165.374 117.653C165.375 117.665 165.375 117.676 165.374 117.687L165.366 117.745C165.366 117.745 165.36 117.789 165.348 117.867C165.337 117.942 165.319 117.999 165.321 118.114C165.328 118.235 165.297 118.315 165.3 118.459C165.297 118.593 165.266 118.718 165.258 118.868C165.211 119.148 165.147 119.447 165.052 119.673C164.956 119.896 164.853 120.061 164.853 120.061C164.794 120.155 164.669 120.184 164.575 120.125C164.552 120.112 164.532 120.092 164.517 120.072Z" fill="#1E120D"/>
<path d="M162.126 119.323C162.13 119.321 162.091 119.274 162.061 119.17C162.037 119.066 161.977 118.909 161.972 118.73C161.945 118.547 161.965 118.332 162.005 118.103C162.017 117.988 162.059 117.87 162.107 117.755C162.157 117.64 162.193 117.517 162.259 117.406C162.424 117.199 162.549 116.963 162.768 116.828C162.984 116.697 163.163 116.545 163.363 116.522C163.757 116.455 163.993 116.476 163.993 116.476C164.065 116.482 164.119 116.546 164.112 116.619C164.11 116.647 164.098 116.673 164.081 116.693L164.057 116.721C164.057 116.721 163.893 116.913 163.686 117.1C163.573 117.182 163.508 117.353 163.397 117.461C163.288 117.574 163.234 117.758 163.129 117.889C163.059 118.053 162.973 118.209 162.901 118.371C162.838 118.536 162.755 118.689 162.698 118.832C162.556 119.125 162.461 119.321 162.461 119.321C162.417 119.413 162.305 119.452 162.213 119.407C162.184 119.393 162.16 119.372 162.143 119.348L162.126 119.323Z" fill="#1E120D"/>
<path d="M155.961 105.701C155.961 105.701 153.672 107.114 154.153 109.794C154.634 112.474 157.514 112.739 157.514 112.739C157.514 112.739 158.402 106.51 155.961 105.701Z" fill="#CC8085"/>
<path d="M162.409 90.5733C162.273 89.7733 161.616 89.5422 161.038 89.1372C160.965 89.0852 160.881 89.1992 160.943 89.2602C161.25 89.5572 161.442 90.0462 161.63 90.4252C161.888 90.9462 161.751 91.3582 161.477 91.8442C161.375 92.0242 161.588 92.2742 161.776 92.1432C162.333 91.7542 162.522 91.2413 162.409 90.5733Z" fill="#AC8471"/>
<path d="M133.105 41.2182C133.105 41.2182 135.058 41.7912 136.994 41.3772C138.93 40.9642 137.127 28.5312 137.127 28.5312C137.127 28.5312 132.419 37.5082 132.957 41.6522" fill="url(#paint0_linear_216_388)"/>
<path d="M129.171 31.1471C129.018 32.2251 129.368 33.1671 129.959 33.2511C130.545 33.3351 131.147 32.5281 131.302 31.4501C131.455 30.3721 131.103 29.4301 130.514 29.3461C129.926 29.2621 129.324 30.0691 129.171 31.1471Z" fill="#1E120D"/>
<path d="M140.768 32.1791C140.614 33.2571 140.966 34.1991 141.553 34.2821C142.141 34.3661 142.743 33.5611 142.897 32.4821C143.049 31.4041 142.698 30.4621 142.11 30.3771C141.521 30.2931 140.919 31.1001 140.768 32.1791Z" fill="#1E120D"/>
<path d="M137.293 28.5072C137.293 28.5072 137.561 29.5502 137.818 31.1382C138.076 32.7252 138.352 34.8562 138.381 37.0212C138.375 38.1062 138.35 39.1902 138.135 40.2422C138.076 40.5072 138.011 40.7672 137.873 41.0322C137.748 41.2772 137.57 41.6062 137.14 41.7332C137.1 41.7432 137.126 41.7452 137.033 41.7602L136.99 41.7622L136.905 41.7672L136.737 41.7772C136.626 41.7832 136.516 41.7902 136.408 41.7962C136.192 41.8092 135.984 41.8212 135.784 41.8332C135.381 41.8542 134.976 41.7612 134.642 41.7292C134.299 41.6982 134.022 41.6132 133.789 41.5582C133.326 41.4502 133.07 41.3382 133.07 41.3382C133.005 41.3122 132.973 41.2372 133 41.1722C133.022 41.1162 133.084 41.0862 133.141 41.0952C133.141 41.0952 133.397 41.1432 133.858 41.1732C134.087 41.1932 134.365 41.2342 134.674 41.2132C134.989 41.1942 135.319 41.2282 135.711 41.1802C135.909 41.1502 136.115 41.1182 136.329 41.0862C136.435 41.0692 136.544 41.0532 136.654 41.0362L136.821 41.0112L136.905 40.9982L136.947 40.9922C136.881 41.0012 136.932 40.9882 136.92 40.9882C136.948 40.9882 137.045 40.8672 137.108 40.6832C137.175 40.5112 137.223 40.2882 137.267 40.0652C137.424 39.1482 137.421 38.0842 137.389 37.0382C137.331 34.9342 137.19 32.8112 137.098 31.2172C137.002 29.6232 136.961 28.5532 136.961 28.5532C136.958 28.4602 137.03 28.3822 137.123 28.3782C137.204 28.3772 137.273 28.4322 137.293 28.5072Z" fill="#C99781"/>
<path opacity="0.5" d="M120.059 35.5593C120.58 33.2933 122.839 31.8792 125.105 32.4002C127.371 32.9212 128.786 35.1802 128.265 37.4472C127.744 39.7132 125.484 41.1273 123.218 40.6063C120.952 40.0843 119.537 37.8253 120.059 35.5593Z" fill="#D8A093"/>
<path d="M136.732 44.6292C136.732 44.6292 136.55 44.7832 136.153 44.9822C135.955 45.0582 135.722 45.1942 135.434 45.2712C135.148 45.3452 134.825 45.4852 134.457 45.5042C134.092 45.5352 133.69 45.6302 133.27 45.5932C132.851 45.5662 132.39 45.6142 131.947 45.4892C131.502 45.3862 131.019 45.3332 130.568 45.1712C130.121 44.9992 129.666 44.8252 129.211 44.6502C128.695 44.4122 128.377 44.1672 127.957 43.9292C127.559 43.7102 127.192 43.3142 126.83 43.0252C126.454 42.7262 126.237 42.3292 125.959 42.0112C125.699 41.6792 125.53 41.3122 125.336 41.0052C125 40.3542 124.832 39.7682 124.723 39.3622C124.632 38.9492 124.612 38.7022 124.612 38.7022C124.606 38.6322 124.658 38.5712 124.728 38.5652C124.786 38.5602 124.838 38.5962 124.857 38.6482L124.86 38.6562C124.86 38.6562 124.937 38.8682 125.093 39.2372C125.183 39.4172 125.281 39.6392 125.413 39.8832C125.564 40.1172 125.713 40.3912 125.901 40.6722C126.113 40.9372 126.297 41.2552 126.567 41.5302C126.845 41.7922 127.101 42.1212 127.42 42.3642C127.757 42.6022 128.006 42.9032 128.427 43.1182C128.816 43.3192 129.274 43.6162 129.617 43.7462C130.036 43.9092 130.455 44.0732 130.868 44.2332C131.283 44.3822 131.71 44.4522 132.114 44.5682C132.518 44.6992 132.923 44.6822 133.302 44.7542C133.684 44.8302 134.042 44.7752 134.378 44.7832C134.717 44.7952 135.012 44.7102 135.287 44.6942C135.562 44.6692 135.783 44.5822 135.978 44.5442C136.342 44.4392 136.559 44.3422 136.559 44.3422C136.644 44.3042 136.744 44.3422 136.782 44.4272C136.813 44.4972 136.793 44.5772 136.736 44.6252L136.732 44.6292Z" fill="#1E120D"/>
<path d="M131.415 22.7592C130.31 22.6522 129.191 23.2432 128.293 23.8312C127.519 24.3392 126.418 25.0492 126.161 25.9922C126.054 26.3842 126.289 26.7772 126.672 26.8922C127.525 27.1492 128.369 26.5922 129.069 26.1602C129.946 25.6182 130.774 25.4242 131.732 25.1072C133.061 24.6662 132.742 22.8872 131.415 22.7592Z" fill="#21100C"/>
<path d="M143.841 24.7613C142.993 23.8233 141.306 22.5633 140.111 23.5623C139.671 23.9313 139.649 24.8203 140.111 25.1853C140.491 25.4853 140.915 25.5143 141.262 25.6733C141.718 25.8803 142.114 26.1883 142.528 26.4653C142.897 26.7123 143.242 26.9803 143.57 27.2793C143.709 27.4053 143.873 27.4923 144.03 27.5913C144.104 27.6493 144.187 27.6913 144.279 27.7153C144.31 27.7243 144.386 27.7383 144.446 27.7473C144.71 27.7823 144.912 27.7143 145.068 27.4883C145.677 26.6083 144.363 25.3393 143.841 24.7613Z" fill="#21100C"/>
<path d="M144.445 27.7473C144.44 27.7473 144.436 27.7473 144.432 27.7473C144.568 27.7663 144.521 27.7603 144.445 27.7473Z" fill="#21100C"/>
<path d="M157.52 101.599C157.52 101.599 157.319 102.464 157.019 103.762C156.863 104.408 156.727 105.171 156.57 105.979C156.421 106.787 156.3 107.659 156.28 108.501C156.253 108.926 156.292 109.33 156.36 109.695C156.486 110.026 156.607 110.541 156.787 110.842C156.947 111.184 157.105 111.53 157.304 111.852C157.476 112.181 157.68 112.472 157.857 112.747C158.221 113.291 158.541 113.74 158.777 114.044C159.012 114.345 159.147 114.518 159.147 114.518L159.152 114.525C159.242 114.64 159.221 114.806 159.107 114.896C159.005 114.976 158.863 114.968 158.77 114.886C158.77 114.886 158.594 114.732 158.313 114.45C158.04 114.162 157.639 113.754 157.219 113.21C157.013 112.935 156.778 112.645 156.569 112.306C156.345 111.984 156.119 111.618 155.925 111.199C155.688 110.769 155.614 110.427 155.428 109.937C155.317 109.441 155.269 108.949 155.286 108.479C155.289 108.004 155.35 107.544 155.415 107.097C155.476 106.648 155.561 106.214 155.649 105.797C155.818 104.96 156.055 104.203 156.25 103.554C156.657 102.263 157.021 101.432 157.021 101.432C157.08 101.298 157.236 101.237 157.37 101.296C157.487 101.349 157.548 101.478 157.52 101.599Z" fill="#1E120D"/>
<path d="M130.03 4.90113C129.495 4.58813 128.93 4.62013 128.338 4.72313C127.773 4.82213 127.365 5.07413 126.925 5.42313C126.634 5.65313 126.893 6.09413 127.207 6.10313C127.605 6.11513 127.968 6.08613 128.363 6.05113C128.817 6.01113 129.256 6.13613 129.707 6.09513C130.314 6.03913 130.616 5.24413 130.03 4.90113Z" fill="white"/>
<path d="M129.48 2.26527C128.822 2.12227 128.192 2.29526 127.613 2.61726C126.948 2.98726 127.4 4.11426 128.137 3.85926C128.578 3.70726 129.031 3.75526 129.48 3.64326C130.152 3.47626 130.176 2.41727 129.48 2.26527Z" fill="white"/>
<path d="M189.321 104.845C188.898 104.212 187.711 104.605 188.022 105.393C188.332 106.178 188.786 106.956 189.708 107.032C190.004 107.056 190.31 106.75 190.286 106.454C190.226 105.725 189.696 105.407 189.321 104.845Z" fill="white"/>
<path d="M189.957 99.1021C189.369 99.0321 189.125 99.9791 189.653 100.223C190.53 100.628 190.857 101.41 191.147 102.269C191.484 103.266 192.877 102.856 192.701 101.84C192.462 100.457 191.357 99.2691 189.957 99.1021Z" fill="white"/>
<path d="M190.346 96.1991C189.684 96.0641 189.427 96.9922 190.068 97.2092C190.522 97.3622 190.909 97.6121 191.252 97.9451C191.64 98.3221 191.864 98.8311 192.188 99.2581C192.609 99.8122 193.392 99.4841 193.288 98.7941C193.082 97.4391 191.604 96.4561 190.346 96.1991Z" fill="white"/>
<path d="M183.957 113.938C183.451 113.956 183.245 114.632 183.697 114.899C184.105 115.139 184.541 115.332 184.932 115.6C185.286 115.842 185.665 116.066 186.064 116.224C186.388 116.352 186.758 116.028 186.747 115.704C186.696 114.305 185.102 113.898 183.957 113.938Z" fill="white"/>
<path d="M187.386 113.586C187.18 112.781 186.413 112.35 185.697 112.043C185.146 111.807 184.678 112.536 185.216 112.866C185.731 113.182 186.215 113.592 186.642 114.019C186.961 114.339 187.497 114.014 187.386 113.586Z" fill="white"/>
<defs>
<linearGradient id="paint0_linear_216_388" x1="138.677" y1="35.9275" x2="134.061" y2="34.8661" gradientUnits="userSpaceOnUse">
<stop stop-color="#E8AA9A"/>
<stop offset="1" stop-color="#E1A697" stop-opacity="0"/>
</linearGradient>
</defs>
</svg>
