<svg width="229" height="236" viewBox="0 0 229 236" fill="none" xmlns="http://www.w3.org/2000/svg">
<path d="M40.9597 146.228V235.924" stroke="#00135E" stroke-width="4" stroke-miterlimit="10"/>
<path d="M190.257 146.228V235.924" stroke="#00135E" stroke-width="4" stroke-miterlimit="10"/>
<path d="M122.878 1.04399C125.338 1.76399 131.318 6.10399 128.978 11.804C125.298 13.184 123.418 15.444 123.418 15.444C123.418 15.444 120.638 16.624 117.968 18.654C117.228 18.484 110.989 16.794 111.698 9.21399C112.458 1.15499 120.298 0.293987 122.878 1.04399Z" fill="#3C3123"/>
<path d="M144.757 113.554C152.347 115.604 160.237 122.014 160.237 122.014C160.237 122.014 157.226 125.344 161.636 129.754L161.567 129.874C157.127 127.264 148.386 126.444 137.136 128.574C128.666 130.164 103.397 134.804 103.397 134.804C103.397 134.804 101.687 133.584 99.6467 133.044C100.016 129.174 106.506 115.784 106.506 115.784C106.506 115.784 133.156 112.344 141.536 112.984C142.587 113.064 143.667 113.264 144.757 113.554Z" fill="#B0D0F7"/>
<path d="M54.5266 124.734C55.2766 122.324 55.9756 120.464 56.4366 119.974C58.0266 118.274 61.4966 120.564 78.7156 118.764L78.7066 118.704C79.9566 111.584 84.9566 101.084 84.9566 101.084L85.3066 101.014C85.3066 101.064 85.3176 101.114 85.3366 101.164C85.6666 101.954 86.9766 102.294 88.8576 102.334C95.7166 102.504 110.137 98.7139 112.007 98.2239C109.847 104.034 106.507 115.784 106.507 115.784C106.507 115.784 100.017 129.174 99.6476 133.044C98.6676 132.794 97.6076 132.694 96.6266 132.974C94.0066 133.724 88.1966 137.814 86.9566 139.494C80.4766 140.054 52.4166 139.964 51.3866 139.964C51.2666 139.964 51.2166 139.744 51.2266 139.354C51.2466 137.194 52.9766 129.774 54.5266 124.734Z" fill="#2D4268"/>
<path d="M212.607 138.494H179.327V138.454C179.327 138.454 182.207 135.324 183.457 135.454L183.617 135.344C185.766 138.194 191.067 137.894 192.797 135.774C194.017 134.284 193.527 132.494 193.007 131.374L193.017 131.364C193.017 131.364 199.457 127.064 204.618 129.214C204.618 129.214 204.888 126.764 206.218 124.284V124.274C206.178 123.554 205.458 119.804 207.488 117.094C207.458 116.344 207.498 114.994 207.927 113.544L207.738 113.524C207.738 113.524 202.038 109.064 203.358 104.544C203.637 103.584 204.238 102.624 205.267 101.704C211.177 96.4439 229.408 103.534 228.908 110.414C228.597 114.684 224.438 111.984 224.188 111.814C224.427 112.084 228.858 117.234 227.188 119.114C225.538 120.964 222.007 116.704 221.717 116.344C221.907 116.804 225.277 124.944 222.568 126.094C219.778 127.284 218.267 123.304 218.267 123.304C218.267 123.304 219.037 136.804 212.607 138.494Z" fill="#8E6237"/>
<path d="M127.977 10.8039C130.137 10.0039 132.908 9.49395 136.278 9.93395C145.408 11.114 153.038 18.424 150.887 22.184C150.507 22.854 149.877 23.284 149.077 23.534C145.487 24.674 138.617 22.074 137.037 20.384L136.787 19.964C134.827 21.014 131.587 21.7839 126.277 21.5439L125.747 21.4439C124.907 24.1339 122.597 27.714 116.507 29.494L116.358 29.524C116.988 32.5639 117.587 37.484 116.078 41.204L115.758 41.254C114.819 40.464 113.448 39.7939 111.878 40.6639C109.088 31.424 112.308 23.5839 112.308 23.5839C112.968 21.2139 114.939 19.1939 116.968 17.6539C119.638 15.6239 122.418 14.4439 122.418 14.4439C122.418 14.4439 124.297 12.1839 127.977 10.8039Z" fill="#3C3123"/>
<path d="M123.047 60.074C124.027 60.734 125.108 61.214 126.277 61.404C129.386 61.904 134.226 61.924 138.617 60.644L138.747 61.084L138.637 63.774C138.637 63.774 135.007 68.634 131.007 68.284C123.597 67.644 123.277 63.984 123.277 63.984C123.277 63.984 123.167 63.774 122.947 63.444L123.047 60.074Z" fill="#D6B59F"/>
<path d="M123.047 60.0739C118.417 56.9639 115.858 49.8039 115.858 49.8039C109.087 50.1239 108.977 42.2839 111.878 40.6639C113.448 39.7939 114.818 40.4639 115.758 41.2539L116.078 41.2039C117.588 37.4839 116.988 32.5639 116.358 29.5239L116.507 29.4939C122.597 27.7139 124.907 24.1339 125.747 21.4439L126.277 21.5439C131.587 21.7839 134.827 21.0139 136.787 19.9639L137.037 20.3839C138.617 22.0739 145.487 24.6739 149.077 23.5339L149.167 23.7939C149.167 23.7939 149.787 40.0239 148.737 50.0139C148.107 56.0439 143.657 59.1839 138.617 60.6439C134.226 61.9239 129.387 61.9039 126.277 61.4039C125.107 61.2139 124.027 60.7339 123.047 60.0739Z" fill="#D6B59F"/>
<path d="M57.5767 82.324C57.5767 82.324 61.6267 81.534 61.9167 82.684C62.0767 83.354 60.2067 84.364 58.2667 84.834C56.8677 85.164 55.4377 85.204 54.7167 84.624C53.4667 83.604 52.5677 79.464 52.7067 75.454C52.8467 71.434 57.1467 70.864 57.1467 70.864H57.1757C57.1557 71.964 57.1557 73.104 57.1867 74.254C58.2367 74.034 59.4067 73.844 60.0157 74.444C61.1567 75.594 57.1467 78.894 57.1467 78.894C57.1467 78.894 61.1667 77.454 61.5857 78.464C62.0167 79.464 57.5767 82.324 57.5767 82.324Z" fill="#D6B59F"/>
<path d="M114.177 92.3839C111.797 89.8739 110.517 87.7239 110.597 87.3039C110.807 86.1239 115.108 86.8739 115.108 86.8739C115.108 86.8739 110.807 84.9439 111.347 84.0839C111.877 83.2239 115.967 84.8339 115.967 84.8339C115.967 84.8339 111.777 80.8539 112.417 79.9939C112.917 79.3339 116.427 81.1339 118.047 82.0139C118.358 80.9439 118.608 79.9239 118.757 78.9939L118.977 79.0339C118.977 79.0339 121.127 80.2139 122.087 81.9339C122.087 81.9339 128.987 91.1139 136.827 85.9539C137.806 85.3039 138.687 84.6039 139.467 83.8439C139.648 84.3239 142.867 92.6739 149.347 92.9839L149.568 93.1539C149.248 93.5739 148.918 93.9839 148.578 94.3739C145.458 98.0139 141.458 100.674 136.458 101.324C126.417 102.644 118.487 96.9239 114.177 92.3839Z" fill="#D6B59F"/>
<path d="M173.417 135.924C171.017 134.224 164.707 135.704 164.707 135.704L164.657 135.684C164.707 135.544 164.737 135.394 164.757 135.234C165.017 133.074 163.867 131.234 161.568 129.874L161.637 129.754C157.227 125.344 160.238 122.014 160.238 122.014L168.297 122.824C168.398 126.314 168.967 129.444 170.017 131.254C171.157 133.214 172.367 134.774 173.417 135.924Z" fill="#EFD1BD"/>
<path d="M183.617 135.344L183.457 135.454C182.207 135.324 179.327 138.454 179.327 138.454V138.494H176.087V138.454C176.087 138.454 174.927 137.624 173.417 135.924C172.367 134.774 171.157 133.214 170.017 131.254C168.967 129.444 168.398 126.314 168.297 122.824C168.127 117.004 169.287 110.204 171.847 106.974C175.927 101.814 203.227 104.504 203.227 104.504L203.358 104.544C202.038 109.064 207.738 113.524 207.738 113.524L207.927 113.544C207.497 114.994 207.457 116.344 207.488 117.094C205.458 119.804 206.177 123.554 206.218 124.274V124.284C204.888 126.764 204.618 129.214 204.618 129.214C199.458 127.064 193.017 131.364 193.017 131.364L193.007 131.374C193.528 132.494 194.017 134.284 192.797 135.774C191.067 137.894 185.767 138.194 183.617 135.344Z" fill="#EFD1BD"/>
<path d="M99.6467 133.044C101.687 133.584 103.397 134.804 103.397 134.804C103.397 134.804 128.667 130.164 137.136 128.574C148.386 126.444 157.126 127.264 161.567 129.874C163.867 131.234 165.016 133.074 164.756 135.234C164.737 135.394 164.706 135.544 164.656 135.684C164.305 136.914 163.095 137.824 161.276 138.494C154.475 141.014 139.106 140.224 127.356 140.394C112.095 140.604 99.3047 138.994 97.0547 139.424C94.7947 139.854 87.0547 141.034 86.7357 140.064C86.6957 139.944 86.7757 139.744 86.9557 139.494C88.1957 137.814 94.0057 133.724 96.6257 132.974C97.6067 132.694 98.6667 132.794 99.6467 133.044Z" fill="#EFD1BD"/>
<path d="M54.5267 124.734C52.9757 129.774 51.2467 137.194 51.2257 139.354H51.1257C51.1257 139.354 12.4457 139.924 9.72567 139.494C9.23667 139.414 8.76565 138.884 8.32665 138.044C6.28665 134.214 4.91665 124.104 5.85665 123.164C6.99665 122.014 11.5857 128.604 14.7367 128.894C17.8267 129.174 53.1667 124.904 54.5267 124.734Z" fill="#EFD1BD"/>
<path d="M71.0467 85.2641C67.9967 85.4041 62.2377 87.2041 59.4467 86.7641C58.9757 86.6941 58.5767 85.9841 58.2657 84.8341C60.2057 84.3641 62.0757 83.3541 61.9157 82.6841C61.6257 81.5341 57.5757 82.3241 57.5757 82.3241C57.5757 82.3241 62.0157 79.4641 61.5857 78.4641C61.1657 77.4541 57.1467 78.8941 57.1467 78.8941C57.1467 78.8941 61.1567 75.5941 60.0157 74.4441C59.4067 73.8441 58.2367 74.0341 57.1867 74.2541C57.1567 73.1041 57.1567 71.9641 57.1757 70.8641C57.2657 66.3041 57.7057 62.4541 58.4757 62.1641C60.4067 61.4041 63.9557 71.8341 64.7057 72.6941C65.4557 73.5541 82.3257 72.4741 91.3557 72.3741C94.0357 72.3441 97.1347 72.2941 100.276 72.2941C107.706 72.3041 115.336 72.6441 117.896 74.3041C118.986 75.0041 119.146 76.7441 118.755 78.9941C118.606 79.9241 118.356 80.9441 118.045 82.0141C116.425 81.1341 112.915 79.3341 112.415 79.9941C111.775 80.8541 115.965 84.8341 115.965 84.8341C115.965 84.8341 111.875 83.2241 111.345 84.0841C110.805 84.9441 115.106 86.8741 115.106 86.8741C115.106 86.8741 110.805 86.1241 110.595 87.3041C110.515 87.7241 111.795 89.8741 114.175 92.3841C113.436 94.1541 112.665 96.5141 112.205 97.7041C112.145 97.8741 112.075 98.0441 112.005 98.2241C110.135 98.7141 95.7147 102.504 88.8557 102.334C89.6157 101.034 90.3657 99.7941 91.0847 98.6241C93.4747 94.7341 95.5447 91.6141 96.8957 89.6241L96.4557 89.3241C83.5867 91.8241 75.8867 85.0441 71.0467 85.2641Z" fill="#EFD1BD"/>
<path d="M132.977 214.534C132.977 214.534 137.248 215.934 140.677 214.434H140.967C140.988 215.763 140.977 216.583 140.957 216.774C140.747 218.503 128.477 221.814 127.837 220.114C127.187 218.424 132.977 214.534 132.977 214.534Z" fill="#46867E"/>
<path d="M112.027 217.014C111.737 218.735 99.3456 221.525 98.7766 219.804C98.1966 218.084 104.147 214.435 104.147 214.435C104.147 214.435 109.247 216.674 112.086 216.195C112.057 216.634 112.047 216.914 112.027 217.014Z" fill="#2C625B"/>
<path d="M98.5767 146.224H115.507C113.017 164.694 112.377 209.424 112.087 216.194C109.247 216.673 104.148 214.434 104.148 214.434C99.5267 201.094 98.6967 155.624 98.5767 146.224Z" fill="#68BCB4"/>
<path d="M124.577 146.224H141.476C139.897 163.904 140.867 204.214 140.966 214.434H140.676C137.246 215.934 132.976 214.534 132.976 214.534C127.737 201.204 125.027 154.694 124.577 146.224Z" fill="#68BCB4"/>
<path d="M112.007 98.224C112.077 98.044 112.148 97.874 112.207 97.704C112.667 96.514 113.437 94.154 114.177 92.384C118.488 96.924 126.417 102.644 136.457 101.324C141.457 100.674 145.457 98.014 148.577 94.374C148.347 95.364 144.577 111.664 144.757 113.554C143.667 113.264 142.587 113.064 141.537 112.984C133.157 112.344 106.507 115.784 106.507 115.784C106.507 115.784 109.847 104.034 112.007 98.224Z" fill="#75D3CC"/>
<path d="M122.947 63.444C123.167 63.774 123.277 63.984 123.277 63.984C123.277 63.984 123.596 67.644 131.007 68.284C135.007 68.634 138.637 63.774 138.637 63.774C144.877 57.544 157.127 57.974 157.557 67.854C157.837 74.224 155.457 85.444 149.568 93.154L149.347 92.984C142.868 92.674 139.648 84.324 139.467 83.844C138.688 84.604 137.807 85.304 136.827 85.954C128.987 91.114 122.087 81.934 122.087 81.934C121.127 80.214 118.977 79.034 118.977 79.034L118.757 78.994C119.148 76.744 118.987 75.004 117.898 74.304C115.337 72.644 107.708 72.304 100.278 72.294V72.264C101.568 71.724 107.588 61.084 113.708 59.254C118.747 57.754 121.967 61.924 122.947 63.444Z" fill="#75D3CC"/>
<path d="M51.2267 139.354C51.2167 139.744 51.2667 139.964 51.3867 139.964C52.4167 139.964 80.4767 140.054 86.9567 139.494C86.7767 139.744 86.6967 139.944 86.7367 140.064C87.0557 141.034 94.7957 139.854 97.0557 139.424C99.3057 138.994 112.096 140.604 127.357 140.394C139.107 140.224 154.476 141.014 161.277 138.494H176.087H179.327H212.607H215.617C217.747 138.494 219.487 140.224 219.487 142.364C219.487 143.424 219.047 144.394 218.346 145.094C217.647 145.794 216.687 146.224 215.617 146.224H141.477H124.577H115.507H98.5767H4.70667C2.57666 146.224 0.83667 144.494 0.83667 142.364C0.83667 141.294 1.26665 140.324 1.97665 139.624C2.67665 138.924 3.64767 138.494 4.70667 138.494H7.87668L8.32666 138.044C8.76666 138.884 9.23668 139.414 9.72568 139.494C12.4467 139.924 51.1257 139.354 51.1257 139.354H51.2267Z" fill="#2C73B5"/>
<path d="M91.0867 98.624C90.3667 99.794 89.6167 101.034 88.8577 102.334C86.9767 102.294 85.6677 101.954 85.3367 101.164C85.3167 101.114 85.3067 101.064 85.3067 101.014C85.2777 99.774 91.0367 98.594 91.0367 98.594L91.0867 98.624Z" fill="#12233D"/>
<path d="M98.7237 87.3009C98.7237 87.3009 98.1557 88.3059 97.2507 89.7499C96.8147 90.4679 96.3217 91.3549 95.7537 92.2589C95.1947 93.1729 94.5777 94.1349 93.9557 95.0939C92.6837 96.9889 91.4127 98.8829 90.4597 100.303C89.5007 101.724 88.8127 102.651 88.8127 102.651C88.7717 102.707 88.6927 102.719 88.6357 102.677C88.5867 102.64 88.5718 102.575 88.5968 102.521L88.5997 102.516C88.5997 102.516 89.0887 101.484 89.8967 99.9659C90.1017 99.5889 90.3238 99.1809 90.5578 98.7489C90.7868 98.3179 91.0677 97.8479 91.3457 97.4039C91.9127 96.4949 92.5177 95.5249 93.1217 94.5549C94.3507 92.6239 95.6367 90.7469 96.6497 89.3419C97.1657 88.6399 97.6317 88.1079 97.9417 87.7109C98.2637 87.3259 98.4487 87.1069 98.4487 87.1069C98.5087 87.0359 98.6137 87.0259 98.6847 87.0859C98.7497 87.1399 98.7627 87.2309 98.7237 87.3009Z" fill="#D3A289"/>
<path d="M91.3527 112.793C91.3527 112.793 91.0847 113.153 90.6617 113.649C90.2357 114.144 89.6337 114.762 89.0397 115.374C88.7257 115.668 88.4497 115.985 88.1617 116.263C87.8617 116.536 87.6547 116.824 87.4197 117.048C87.1807 117.272 87.0667 117.486 86.9397 117.631C86.8237 117.778 86.7467 117.863 86.7467 117.863L86.7247 117.888C86.6777 117.939 86.5987 117.944 86.5477 117.897C86.5147 117.867 86.5007 117.823 86.5087 117.781C86.5087 117.781 86.5287 117.671 86.5817 117.476C86.6527 117.297 86.6897 116.966 86.8687 116.681C87.0357 116.39 87.2147 116.01 87.4787 115.688C87.7337 115.353 88.0117 114.995 88.3247 114.681C88.9357 114.03 89.6257 113.471 90.1777 113.097C90.7327 112.724 91.1417 112.533 91.1417 112.533C91.2277 112.491 91.3307 112.527 91.3717 112.613C91.3987 112.674 91.3897 112.744 91.3527 112.793Z" fill="#061830"/>
<path d="M93.6357 117.241C93.6357 117.241 91.3217 117.619 87.8397 118.095C86.0977 118.319 84.0697 118.621 81.8887 118.871C80.7947 119 79.6657 119.133 78.5187 119.269C77.3697 119.376 76.2117 119.521 75.0367 119.6C72.6867 119.775 70.3407 119.874 68.1357 119.918C65.9297 119.945 63.8697 119.851 62.1127 119.75C60.3577 119.654 58.8927 119.463 57.9087 119.548C57.4097 119.569 57.0677 119.711 56.8407 119.824C56.6387 119.979 56.5307 120.061 56.5307 120.061L56.5077 120.079C56.4527 120.121 56.3747 120.111 56.3327 120.056C56.2927 120.004 56.3007 119.932 56.3477 119.888C56.3477 119.888 56.4627 119.782 56.6807 119.581C56.9287 119.427 57.3297 119.214 57.8627 119.161C58.9207 119.01 60.3867 119.073 62.1387 119.095C63.0147 119.111 63.9627 119.117 64.9647 119.105C65.9667 119.082 67.0237 119.058 68.1157 119.032C70.2997 118.955 72.6327 118.82 74.9507 118.611C76.1167 118.509 77.2817 118.408 78.4297 118.308C79.5727 118.187 80.6987 118.068 81.7867 117.952C83.9687 117.707 86.0127 117.547 87.7607 117.375C91.2607 117.059 93.6007 116.909 93.6007 116.909C93.6937 116.903 93.7727 116.973 93.7787 117.066C93.7817 117.151 93.7197 117.227 93.6357 117.241Z" fill="#061830"/>
<path d="M139.275 83.662C139.275 83.662 139.45 83.454 139.754 83.09C139.909 82.91 140.097 82.692 140.312 82.442C140.503 82.183 140.718 81.891 140.953 81.573C141.196 81.266 141.434 80.911 141.666 80.516C141.905 80.129 142.166 79.727 142.392 79.285C142.631 78.85 142.879 78.403 143.081 77.921C143.308 77.452 143.506 76.961 143.689 76.464C143.898 75.977 144.054 75.47 144.219 74.975C144.388 74.48 144.501 73.977 144.638 73.499C144.735 73.011 144.876 72.548 144.954 72.097C145.046 71.649 145.124 71.223 145.179 70.827C145.3 70.037 145.38 69.373 145.413 68.909C145.444 68.447 145.462 68.184 145.462 68.184L145.463 68.174C145.473 68.028 145.599 67.919 145.744 67.928C145.874 67.937 145.974 68.037 145.989 68.161C145.989 68.161 146.021 68.445 146.03 68.925C146.034 69.407 146.041 70.097 145.962 70.919C145.895 71.742 145.755 72.697 145.547 73.711C145.415 74.211 145.307 74.736 145.142 75.254C144.98 75.773 144.827 76.305 144.619 76.818C144.434 77.34 144.203 77.844 143.96 78.332C143.738 78.831 143.469 79.295 143.209 79.746C142.969 80.207 142.674 80.616 142.395 81.002C142.129 81.395 141.856 81.754 141.574 82.069C141.303 82.388 141.058 82.688 140.825 82.926C140.586 83.153 140.377 83.352 140.205 83.515C139.856 83.838 139.658 84.022 139.658 84.022C139.551 84.121 139.384 84.115 139.284 84.008C139.193 83.913 139.191 83.763 139.275 83.662Z" fill="#4E6C8C"/>
<path d="M139.702 83.7268L139.713 83.7458L139.715 83.7508C140.231 84.7888 140.802 85.8108 141.439 86.7748C141.76 87.2548 142.086 87.7308 142.431 88.1908L142.977 88.8558C143.156 89.0798 143.368 89.2718 143.553 89.4888C143.938 89.9078 144.348 90.3068 144.789 90.6578C145.015 90.8268 145.227 91.0188 145.464 91.1698L146.173 91.6278C146.414 91.7718 146.674 91.8788 146.924 92.0078C147.171 92.1498 147.443 92.2198 147.709 92.3118C147.976 92.4008 148.238 92.5198 148.52 92.5518L149.359 92.7198L149.4 92.7278C149.542 92.7558 149.634 92.8948 149.606 93.0358C149.58 93.1658 149.463 93.2538 149.334 93.2458L148.414 93.1918C148.101 93.1888 147.806 93.0988 147.502 93.0348C147.2 92.9638 146.895 92.8968 146.612 92.7658C146.328 92.6458 146.031 92.5438 145.755 92.4048L144.946 91.9458C144.681 91.7848 144.447 91.5838 144.196 91.4038C143.705 91.0318 143.253 90.6118 142.829 90.1728C142.401 89.7338 142.033 89.2478 141.661 88.7658C141.316 88.2668 140.964 87.7728 140.672 87.2428C140.075 86.1908 139.569 85.0988 139.219 83.9358L139.221 83.9408L139.212 83.9198C139.16 83.7848 139.227 83.6328 139.361 83.5808C139.482 83.5338 139.618 83.5828 139.681 83.6918L139.702 83.7268Z" fill="#4E6C8C"/>
<path d="M139.994 15.6249C139.984 15.6119 140.06 15.8989 140.001 16.3719C139.993 16.6129 139.902 16.8849 139.828 17.2119C139.699 17.5109 139.594 17.8899 139.346 18.2159C139.23 18.3849 139.108 18.5619 138.983 18.7439C138.846 18.9169 138.675 19.0659 138.514 19.2369C138.203 19.5999 137.792 19.8639 137.369 20.1439C137.156 20.2909 136.946 20.4289 136.73 20.5369L136.69 20.5589L136.59 20.6029L136.504 20.6379L136.331 20.7059L135.981 20.8409L135.275 21.1149C135.045 21.2149 134.8 21.2989 134.531 21.3399C134.008 21.4469 133.486 21.5549 132.972 21.6599C132.458 21.7939 131.96 21.7709 131.474 21.8279C130.991 21.8729 130.52 21.8829 130.077 21.9079C129.634 21.9489 129.215 21.8869 128.829 21.8789C127.285 21.7839 126.269 21.6679 126.269 21.6679C126.2 21.6599 126.15 21.5979 126.158 21.5279C126.165 21.4679 126.213 21.4229 126.27 21.4169L126.281 21.4159C126.281 21.4159 127.302 21.3069 128.815 21.2229C129.192 21.1939 129.605 21.2159 130.032 21.1329C130.46 21.0729 130.908 20.9939 131.375 20.9469C131.835 20.8759 132.338 20.8799 132.794 20.7379C133.26 20.6269 133.732 20.5139 134.205 20.4009C134.677 20.3289 135.157 20.0729 135.626 19.9209C135.842 19.8409 136.056 19.7619 136.267 19.6839C136.496 19.5809 136.698 19.4609 136.882 19.3419C137.262 19.1049 137.653 18.9019 137.945 18.6179C138.097 18.4839 138.264 18.3669 138.395 18.2289C138.517 18.0819 138.634 17.9409 138.748 17.8039C138.873 17.6739 138.957 17.5269 139.034 17.3859C139.117 17.2479 139.206 17.1189 139.273 16.9899C139.376 16.7229 139.5 16.4909 139.535 16.2849C139.594 16.0799 139.626 15.9249 139.639 15.8169C139.66 15.7099 139.656 15.6369 139.659 15.6399C139.654 15.5469 139.725 15.4689 139.817 15.4639C139.911 15.4619 139.99 15.5329 139.994 15.6249Z" fill="#1E1606"/>
<path d="M126.342 17.9659C126.342 17.9659 126.355 18.0279 126.379 18.1449C126.408 18.2569 126.427 18.4409 126.439 18.6799C126.462 18.9229 126.466 19.2109 126.442 19.5239C126.427 19.8439 126.427 20.2109 126.329 20.5939C126.237 20.9809 126.202 21.403 126.044 21.85C125.913 22.268 125.788 22.7039 125.542 23.1639C125.432 23.3929 125.318 23.6249 125.204 23.8599C125.064 24.0749 124.923 24.2929 124.78 24.5119C124.512 24.9649 124.156 25.3609 123.802 25.7569C123.466 26.1719 123.038 26.4899 122.646 26.8309C122.265 27.1879 121.833 27.4589 121.415 27.7209C121.002 27.9889 120.601 28.246 120.18 28.408C119.77 28.587 119.383 28.7569 119.025 28.9129C118.678 29.0919 118.316 29.1419 118.016 29.2359C117.712 29.3179 117.447 29.389 117.229 29.448C116.793 29.555 116.544 29.617 116.544 29.617C116.477 29.634 116.408 29.5929 116.392 29.5249C116.377 29.4659 116.408 29.405 116.461 29.38L116.474 29.3739C116.474 29.3739 116.704 29.2659 117.107 29.0769C117.309 28.9869 117.553 28.878 117.835 28.753C118.109 28.617 118.44 28.5119 118.76 28.3139C119.086 28.1319 119.44 27.934 119.813 27.725C120.202 27.542 120.539 27.2389 120.923 26.9859C121.306 26.7269 121.701 26.461 122.04 26.116C122.391 25.787 122.778 25.4829 123.068 25.0899C123.382 24.7189 123.725 24.3709 123.969 23.9569C124.104 23.7599 124.237 23.5639 124.37 23.3709C124.479 23.1689 124.587 22.9699 124.693 22.7739C124.917 22.3989 125.086 21.9599 125.259 21.5579C125.431 21.1939 125.504 20.7859 125.622 20.4399C125.741 20.0879 125.786 19.7539 125.851 19.4599C125.921 19.1599 125.955 18.9089 125.969 18.7059C126.032 18.2979 126.012 18.0229 126.012 18.0229L126.011 18.0119C126.004 17.9199 126.075 17.8399 126.166 17.8329C126.251 17.8269 126.325 17.8849 126.342 17.9659Z" fill="#1E1606"/>
<path d="M115.809 26.6608C115.809 26.6608 116.14 27.5268 116.564 28.8448C116.617 29.0098 116.671 29.1808 116.728 29.3588C116.774 29.5488 116.821 29.7458 116.87 29.9478C116.963 30.3328 117.059 30.7388 117.126 31.1768C117.199 31.6108 117.291 32.0598 117.329 32.5188C117.371 32.9788 117.451 33.4408 117.459 33.9118C117.471 34.3818 117.508 34.8498 117.498 35.3128C117.478 35.7758 117.46 36.2308 117.441 36.6718C117.394 37.1118 117.325 37.5358 117.271 37.9368C117.234 38.3398 117.104 38.7098 117.023 39.0538C116.928 39.3958 116.864 39.7118 116.748 39.9778C116.636 40.2438 116.538 40.4748 116.458 40.6648C116.29 41.0388 116.194 41.2518 116.194 41.2518C116.166 41.3148 116.09 41.3438 116.028 41.3148C115.972 41.2908 115.944 41.2318 115.956 41.1748L115.96 41.1568C115.96 41.1568 116.007 40.9318 116.089 40.5388C116.134 40.3458 116.188 40.1118 116.25 39.8428C116.316 39.5768 116.319 39.2578 116.374 38.9258C116.41 38.5888 116.484 38.2328 116.488 37.8418C116.508 37.4558 116.528 37.0478 116.55 36.6268C116.545 36.2038 116.54 35.7668 116.534 35.3228C116.534 34.8798 116.486 34.4268 116.465 33.9758C116.451 33.5248 116.388 33.0738 116.351 32.6298C116.313 32.1838 116.253 31.7528 116.203 31.3318C116.145 30.9068 116.089 30.4958 116.036 30.1068C116.009 29.9198 115.981 29.7388 115.956 29.5628C115.922 29.3798 115.888 29.2018 115.856 29.0318C115.605 27.6688 115.486 26.7468 115.486 26.7468C115.472 26.6548 115.536 26.5688 115.628 26.5558C115.706 26.5428 115.781 26.5908 115.809 26.6608Z" fill="#1E1606"/>
<path d="M171.986 107.066C171.986 107.066 171.711 107.533 171.229 108.35C171.009 108.765 170.826 109.293 170.57 109.877C170.34 110.474 170.163 111.197 169.91 111.95C169.746 112.736 169.513 113.572 169.378 114.481C169.24 115.39 169.083 116.345 168.997 117.345C168.866 118.34 168.844 119.378 168.788 120.429C168.788 121.493 168.767 122.531 168.83 123.62C168.872 124.697 168.968 125.741 169.125 126.781C169.268 127.817 169.512 128.815 169.822 129.739C169.972 130.195 170.192 130.648 170.368 131.021C170.627 131.436 170.881 131.841 171.127 132.235C171.622 133.022 172.066 133.792 172.583 134.389C173.091 134.996 173.483 135.634 173.941 136.082C174.39 136.566 174.782 136.988 175.104 137.335C175.42 137.696 175.692 137.927 175.876 138.093C176.061 138.26 176.159 138.349 176.159 138.349L176.172 138.36C176.223 138.407 176.227 138.486 176.181 138.538C176.137 138.586 176.064 138.592 176.013 138.555C176.013 138.555 175.902 138.473 175.693 138.319C175.486 138.163 175.161 137.945 174.83 137.612C174.482 137.29 174.062 136.898 173.578 136.448C173.057 136.004 172.608 135.398 172.056 134.778C171.481 134.165 171.011 133.425 170.48 132.661C170.215 132.278 169.944 131.885 169.666 131.483C169.387 130.991 169.17 130.547 168.991 130.04C168.278 128.055 167.97 125.857 167.84 123.666C167.8 123.136 167.796 122.573 167.805 122.026C167.813 121.48 167.801 120.936 167.826 120.397C167.896 119.321 167.933 118.26 168.08 117.242C168.171 116.219 168.368 115.243 168.556 114.319C168.737 113.395 169.013 112.541 169.216 111.746C169.505 110.97 169.731 110.253 170.026 109.641C170.341 109.037 170.586 108.491 170.839 108.088C171.394 107.319 171.71 106.88 171.71 106.88C171.764 106.805 171.869 106.788 171.944 106.842C172.012 106.894 172.029 106.993 171.986 107.066Z" fill="#D3A289"/>
<path d="M206.073 124.188C206.073 124.188 206.126 124.038 206.234 123.785C206.351 123.535 206.474 123.167 206.75 122.754C206.987 122.318 207.34 121.868 207.746 121.41C207.936 121.169 208.194 120.976 208.434 120.76C208.672 120.541 208.928 120.334 209.218 120.172C209.503 120.007 209.77 119.81 210.067 119.678C210.368 119.558 210.664 119.441 210.951 119.326C211.229 119.191 211.534 119.173 211.805 119.107C212.079 119.057 212.338 119.01 212.577 118.966C213.063 118.94 213.469 118.968 213.746 118.965C214.025 118.973 214.182 118.986 214.182 118.986C214.251 118.992 214.303 119.053 214.297 119.123C214.293 119.176 214.257 119.218 214.209 119.233L214.191 119.238C214.191 119.238 214.039 119.286 213.776 119.353C213.516 119.416 213.146 119.506 212.702 119.615C212.49 119.692 212.261 119.776 212.017 119.865C211.778 119.956 211.513 120.016 211.271 120.157C211.023 120.279 210.767 120.405 210.506 120.533C210.245 120.657 210.015 120.846 209.766 120.999C209.511 121.146 209.275 121.32 209.06 121.516C208.847 121.712 208.595 121.859 208.409 122.067C208.216 122.267 208.021 122.454 207.834 122.63C207.653 122.812 207.51 123.003 207.354 123.166C207.211 123.339 207.056 123.475 206.943 123.634C206.825 123.785 206.722 123.916 206.637 124.025C206.466 124.24 206.359 124.358 206.359 124.358C206.295 124.428 206.187 124.433 206.118 124.369C206.066 124.324 206.051 124.25 206.073 124.188Z" fill="#7A4426"/>
<path d="M206.062 124.349C206.059 124.34 206.072 124.295 206.056 124.316C206.047 124.327 206.045 124.343 206.049 124.353L206.052 124.354L206.053 124.352L206.035 124.285C205.971 124.038 205.918 123.739 205.865 123.468C205.806 123.194 205.772 122.903 205.731 122.618C205.688 122.332 205.692 122.041 205.67 121.751C205.649 121.461 205.67 121.169 205.688 120.876C205.691 120.288 205.847 119.709 205.955 119.125L206.269 118.281C206.357 117.993 206.51 117.731 206.676 117.475C206.847 117.215 206.972 116.964 207.182 116.701C207.363 116.488 207.537 116.273 207.787 116.059C208.014 115.833 208.261 115.666 208.503 115.487C208.746 115.31 209.02 115.182 209.276 115.033C209.815 114.779 210.374 114.586 210.942 114.459C211.514 114.345 212.086 114.274 212.658 114.26C212.728 114.258 212.787 114.314 212.788 114.383C212.79 114.441 212.753 114.49 212.7 114.507L212.693 114.51C212.425 114.596 212.158 114.677 211.891 114.748C211.626 114.828 211.371 114.937 211.116 115.029C210.607 115.229 210.128 115.475 209.669 115.742C209.236 116.039 208.792 116.35 208.456 116.718C208.285 116.88 208.106 117.102 207.929 117.323C207.795 117.503 207.668 117.761 207.535 117.973C207.402 118.195 207.257 118.411 207.181 118.665L206.895 119.397L206.704 120.17C206.624 120.425 206.608 120.695 206.563 120.961C206.522 121.228 206.477 121.495 206.471 121.768C206.456 122.04 206.414 122.312 206.42 122.587C206.419 122.863 206.392 123.136 206.4 123.421C206.402 123.709 206.407 123.97 206.395 124.283L206.381 124.215C206.394 124.257 206.402 124.306 206.401 124.35C206.401 124.404 206.392 124.393 206.388 124.418C206.372 124.509 206.286 124.571 206.196 124.556C206.104 124.541 206.043 124.455 206.057 124.364L206.058 124.362L206.062 124.349Z" fill="#7A4426"/>
<path d="M207.36 117.727C207.36 117.727 207.322 117.517 207.255 117.149C207.235 116.959 207.212 116.728 207.186 116.463C207.171 116.198 207.168 115.891 207.169 115.558C207.191 115.23 207.218 114.873 207.263 114.496C207.338 114.116 207.395 113.744 207.514 113.306C207.649 112.923 207.724 112.542 207.943 112.126L208.233 111.507L208.595 110.936C208.822 110.543 209.15 110.223 209.438 109.885C209.728 109.547 210.108 109.311 210.424 109.035C210.756 108.777 211.138 108.616 211.466 108.421C211.789 108.211 212.157 108.151 212.462 108.026C212.776 107.92 213.058 107.813 213.326 107.787C213.589 107.746 213.817 107.709 214.006 107.679C214.381 107.623 214.595 107.6 214.595 107.6C214.664 107.593 214.726 107.643 214.734 107.712C214.74 107.77 214.706 107.823 214.654 107.843L214.64 107.848C214.64 107.848 214.443 107.925 214.097 108.058C213.925 108.119 213.717 108.195 213.478 108.281C213.234 108.348 212.991 108.507 212.713 108.639C212.447 108.793 212.124 108.893 211.85 109.111C211.57 109.317 211.251 109.5 210.967 109.743C210.702 110.008 210.384 110.235 210.142 110.543C209.898 110.849 209.615 111.13 209.426 111.485L209.104 111.986L208.851 112.507C208.67 112.829 208.545 113.254 208.398 113.615C208.293 113.975 208.193 114.323 208.097 114.654C208.028 115 207.96 115.326 207.9 115.628C207.856 115.932 207.817 116.211 207.782 116.458C207.76 116.71 207.741 116.931 207.725 117.112C207.705 117.486 207.695 117.7 207.695 117.7C207.693 117.793 207.616 117.867 207.522 117.865C207.442 117.863 207.376 117.802 207.36 117.727Z" fill="#7A4426"/>
<path d="M111.999 43.5419C111.999 43.5419 112.202 43.2459 112.642 42.9699C113.073 42.6969 113.833 42.4609 114.59 42.6969C114.964 42.8049 115.285 43.0229 115.537 43.2579C115.771 43.5089 115.949 43.7619 116.051 44.0009C116.181 44.2249 116.197 44.4469 116.247 44.5809C116.282 44.7229 116.293 44.8059 116.293 44.8059C116.303 44.8779 116.252 44.9449 116.18 44.9539C116.142 44.9589 116.106 44.9479 116.078 44.9249L116.066 44.9149C116.066 44.9149 116.001 44.8619 115.903 44.7659C115.805 44.6719 115.684 44.5219 115.512 44.3869C115.356 44.2329 115.163 44.0879 114.966 43.9449C114.863 43.8889 114.756 43.8309 114.648 43.7719C114.535 43.7379 114.433 43.6649 114.312 43.6539C113.862 43.5189 113.338 43.5719 112.917 43.6509C112.491 43.7279 112.194 43.8149 112.194 43.8149C112.099 43.8429 112.001 43.7889 111.973 43.6939C111.96 43.6399 111.971 43.5839 111.999 43.5419Z" fill="#AC8471"/>
<path d="M189.249 130.693C189.226 130.687 189.555 130.718 189.93 130.955C190.03 131.005 190.115 131.092 190.215 131.173C190.311 131.258 190.43 131.337 190.496 131.465C190.574 131.586 190.653 131.71 190.734 131.836C190.815 131.963 190.847 132.113 190.894 132.257C190.925 132.404 190.982 132.551 190.985 132.695C190.984 132.839 190.983 132.98 190.983 133.116C190.985 133.252 190.966 133.383 190.953 133.504C190.916 133.618 190.881 133.726 190.848 133.825C190.706 134.218 190.58 134.454 190.58 134.454C190.511 134.582 190.35 134.63 190.221 134.561C190.141 134.518 190.092 134.438 190.083 134.353L190.078 134.293C190.078 134.293 190.056 134.038 190.071 133.695C190.078 133.61 190.085 133.518 190.093 133.421C190.082 133.327 190.052 133.23 190.05 133.131C190.044 133.032 190.037 132.931 190.03 132.827C190.023 132.724 189.967 132.636 189.941 132.541C189.903 132.451 189.911 132.339 189.859 132.257C189.814 132.171 189.77 132.087 189.727 132.005C189.692 131.917 189.622 131.855 189.579 131.777C189.527 131.706 189.489 131.625 189.428 131.574C189.315 131.461 189.236 131.345 189.167 131.292C189.109 131.225 189.039 131.178 189.045 131.179C188.911 131.123 188.848 130.968 188.904 130.834C188.96 130.699 189.114 130.636 189.249 130.693Z" fill="#D3A289"/>
<path d="M191.187 120.081C191.187 120.735 190.105 121.263 188.77 121.263C187.434 121.263 186.351 120.736 186.351 120.081C186.351 119.429 187.434 118.898 188.77 118.898C190.105 118.898 191.187 119.429 191.187 120.081Z" fill="#1E120D"/>
<path d="M191.08 108.047C191.08 108.698 189.997 109.229 188.661 109.229C187.326 109.229 186.245 108.699 186.245 108.047C186.245 107.393 187.326 106.864 188.661 106.864C189.997 106.864 191.08 107.393 191.08 108.047Z" fill="#1E120D"/>
<path d="M179.066 110.409C179.066 110.409 178.998 110.536 178.886 110.769C178.772 110.998 178.634 111.338 178.492 111.747C178.347 112.154 178.217 112.638 178.122 113.159C178.073 113.42 178.039 113.69 178.019 113.967C177.977 114.241 178.002 114.524 177.993 114.804C177.998 115.367 178.088 115.926 178.184 116.453C178.318 116.971 178.444 117.462 178.605 117.872C178.732 118.295 178.897 118.629 178.996 118.872C179.097 119.115 179.148 119.261 179.148 119.261L179.152 119.273C179.175 119.339 179.14 119.412 179.074 119.436C179.024 119.454 178.971 119.438 178.937 119.401C178.937 119.401 178.834 119.287 178.664 119.076C178.507 118.857 178.226 118.573 178.007 118.156C177.895 117.95 177.746 117.737 177.644 117.485C177.542 117.234 177.424 116.969 177.324 116.687C177.251 116.397 177.164 116.098 177.097 115.789C177.065 115.474 177.006 115.155 176.998 114.833C176.988 114.188 177.04 113.537 177.208 112.955C177.359 112.371 177.582 111.851 177.826 111.44C178.302 110.611 178.808 110.196 178.808 110.196C178.88 110.136 178.989 110.147 179.048 110.22C179.094 110.273 179.099 110.349 179.066 110.409Z" fill="#1E120D"/>
<path d="M193.845 111.746C193.845 111.746 192.95 111.724 191.614 111.658C190.277 111.601 188.498 111.476 186.726 111.417C185.843 111.374 184.955 111.346 184.153 111.39C183.779 111.415 183.316 111.451 183.162 111.527C183.13 111.537 183.153 111.532 183.174 111.499L183.18 111.478C183.212 111.41 183.18 111.477 183.184 111.47L183.155 111.534L183.042 111.785C182.968 111.95 182.895 112.109 182.826 112.262C182.632 112.855 182.457 113.35 182.366 113.735C182.265 114.106 182.209 114.318 182.209 114.318C182.171 114.46 182.025 114.543 181.884 114.506C181.761 114.473 181.682 114.358 181.688 114.236C181.688 114.236 181.701 114.005 181.762 113.612C181.813 113.227 181.916 112.639 182.103 111.947C182.162 111.789 182.222 111.625 182.286 111.456L182.382 111.197C182.345 111.187 182.608 110.788 182.725 110.781C183.007 110.621 183.213 110.592 183.436 110.542C183.655 110.498 183.872 110.474 184.09 110.457C184.96 110.39 185.863 110.399 186.767 110.421C188.57 110.502 190.356 110.676 191.69 110.862C193.024 111.042 193.907 111.22 193.907 111.22C194.05 111.248 194.143 111.388 194.114 111.531C194.085 111.662 193.971 111.749 193.845 111.746Z" fill="#D3A289"/>
<path d="M198.896 120.892C198.856 120.262 198.858 119.568 198.54 119.008C198.195 118.402 197.29 118.414 196.942 119.008C196.636 119.533 196.626 120.175 196.563 120.765C196.533 121.045 196.498 121.325 196.477 121.605C196.47 121.705 196.461 121.806 196.454 121.908C196.442 122.032 196.442 122.054 196.445 122.04C196.261 123.726 198.697 124.019 198.893 122.263C198.945 121.808 198.925 121.345 198.896 120.892Z" fill="#604320"/>
<path d="M196.836 107.808C196.709 107.142 196.575 106.466 196.262 105.86C195.823 105.013 194.762 105.533 194.661 106.293C194.591 106.818 194.638 107.377 194.624 107.915C194.608 108.499 194.457 109.263 194.657 109.814C194.995 110.744 196.119 110.889 196.684 110.08C197.106 109.475 196.966 108.495 196.836 107.808Z" fill="#604320"/>
<path d="M132.459 29.959C131.856 28.961 126.766 30.138 125.6 33.527C125.414 34.067 127.331 32.457 129.11 31.842C130.656 31.306 133.612 31.876 132.459 29.959Z" fill="#261D0E"/>
<path d="M142.148 30.9789C142.474 30.0969 146.686 30.2569 148.123 32.7649C148.353 33.1639 146.591 32.1779 145.087 31.9619C143.783 31.7739 141.525 32.6719 142.148 30.9789Z" fill="#261D0E"/>
<path d="M144.433 43.3541C143.761 43.3031 143.3 42.1491 143.405 40.7761C143.509 39.4051 144.14 38.336 144.813 38.388C145.487 38.439 145.948 39.5941 145.843 40.9641C145.736 42.3361 145.106 43.4051 144.433 43.3541Z" fill="#1E120D"/>
<path d="M144.849 38.5079C144.844 38.5049 144.928 38.5389 145.034 38.5559C145.129 38.5899 145.294 38.5919 145.464 38.6289C145.546 38.6499 145.649 38.6349 145.739 38.6479C145.833 38.6549 145.928 38.6729 146.031 38.6529C146.131 38.6439 146.231 38.6339 146.332 38.6439C146.436 38.6319 146.538 38.5879 146.645 38.5739C146.748 38.5469 146.861 38.5689 146.961 38.5069C147.064 38.4609 147.17 38.4279 147.274 38.3909C147.375 38.3489 147.488 38.3369 147.585 38.2939C147.678 38.2399 147.773 38.1989 147.859 38.1599C148.213 38.0039 148.504 37.9219 148.504 37.9219L148.529 37.9159C148.607 37.8929 148.688 37.9379 148.711 38.0139C148.72 38.0519 148.716 38.0899 148.701 38.1189C148.701 38.1189 148.573 38.3809 148.297 38.7399C148.167 38.9259 147.987 39.1199 147.727 39.2639C147.601 39.3409 147.474 39.4229 147.338 39.4969C147.21 39.5849 147.033 39.5959 146.88 39.6449C146.718 39.6799 146.558 39.7159 146.398 39.7249C146.233 39.7219 146.071 39.6979 145.917 39.6779C145.762 39.6719 145.623 39.6079 145.492 39.5499C145.363 39.4919 145.239 39.4499 145.145 39.3679C144.742 39.0899 144.591 38.7719 144.606 38.7849C144.529 38.7179 144.52 38.6009 144.588 38.5249C144.655 38.4499 144.77 38.4439 144.849 38.5079Z" fill="#1E120D"/>
<path d="M130.871 42.6148C131.544 42.6568 132.16 41.5768 132.248 40.2038C132.334 38.8328 131.859 37.6878 131.185 37.6428C130.51 37.6008 129.894 38.6788 129.807 40.0498C129.722 41.4248 130.197 42.5718 130.871 42.6148Z" fill="#1E120D"/>
<path d="M131.133 37.7599C131.139 37.7559 131.05 37.7799 130.945 37.7799C130.845 37.8009 130.681 37.7799 130.508 37.7929C130.423 37.8019 130.326 37.7739 130.234 37.7749C130.139 37.7679 130.043 37.7719 129.944 37.7399C129.846 37.7179 129.748 37.6939 129.646 37.6879C129.546 37.6639 129.451 37.6059 129.348 37.5759C129.247 37.5339 129.133 37.5419 129.042 37.4659C128.947 37.4049 128.847 37.3579 128.749 37.3079C128.655 37.2509 128.542 37.2259 128.453 37.1679C128.371 37.1039 128.282 37.0509 128.202 36.9969C127.87 36.7959 127.593 36.6729 127.595 36.6729L127.57 36.6629C127.497 36.6319 127.41 36.6639 127.378 36.7379C127.364 36.7719 127.361 36.8089 127.373 36.8419C127.373 36.8419 127.464 37.1189 127.686 37.5139C127.79 37.7149 127.942 37.9329 128.177 38.1099C128.291 38.2029 128.406 38.3049 128.531 38.3969C128.644 38.5009 128.818 38.5359 128.964 38.6059C129.118 38.6639 129.272 38.7209 129.43 38.7539C129.594 38.7719 129.757 38.7719 129.913 38.7729C130.067 38.7889 130.215 38.7439 130.349 38.7059C130.487 38.6649 130.616 38.6429 130.721 38.5749C131.159 38.3529 131.353 38.0599 131.334 38.0719C131.421 38.0149 131.445 37.9009 131.39 37.8159C131.334 37.7279 131.219 37.7019 131.133 37.7599Z" fill="#1E120D"/>
<path d="M140.839 44.1381C140.762 43.3611 139.075 41.9271 137.88 42.7701C136.686 43.6171 137.622 46.0811 138.74 46.0601C139.859 46.0381 140.912 44.8931 140.839 44.1381Z" fill="url(#paint0_linear_216_627)"/>
<path d="M139.343 32.828C139.343 32.828 139.433 33.835 139.494 35.342C139.562 36.847 139.603 38.86 139.649 40.848C139.659 41.337 139.67 41.855 139.726 42.278L139.743 42.372C139.74 42.368 139.747 42.387 139.735 42.364C139.707 42.302 139.645 42.242 139.58 42.213C139.577 42.219 139.626 42.24 139.645 42.253C139.746 42.304 139.875 42.391 139.995 42.471C140.224 42.631 140.416 42.788 140.608 42.966C140.962 43.328 141.37 43.706 141.402 44.424C141.4 44.48 141.409 44.483 141.394 44.579L141.372 44.656L141.327 44.811C141.271 44.938 141.219 45.086 141.149 45.179C141.025 45.393 140.864 45.559 140.705 45.704C140.047 46.272 139.309 46.383 138.822 46.329C138.313 46.274 138.109 45.991 138.109 46.013C138.109 46.042 138.132 46.065 138.162 46.065C138.185 46.065 138.206 46.048 138.213 46.026L138.27 45.816C138.273 45.803 138.449 45.967 138.843 45.938C139.221 45.933 139.806 45.708 140.251 45.23C140.358 45.11 140.462 44.98 140.526 44.832C140.572 44.756 140.571 44.7 140.603 44.637L140.632 44.483L140.646 44.404C140.632 44.447 140.632 44.397 140.626 44.399C140.616 44.236 140.326 43.89 140.014 43.623C139.856 43.485 139.67 43.347 139.497 43.234C139.413 43.183 139.342 43.13 139.221 43.074C139.189 43.056 139.177 43.055 139.128 43.023C139.043 42.971 138.962 42.886 138.914 42.801C138.889 42.751 138.888 42.74 138.874 42.707C138.824 42.578 138.822 42.525 138.802 42.442C138.708 41.886 138.688 41.397 138.656 40.882C138.578 38.851 138.671 36.841 138.768 35.331C138.868 33.822 139.005 32.819 139.005 32.819C139.018 32.727 139.103 32.662 139.195 32.675C139.276 32.687 139.335 32.752 139.343 32.828Z" fill="#AC8471"/>
<path d="M129.576 47.0109C129.934 44.5989 128.268 42.3539 125.857 41.9969C123.446 41.6399 121.2 43.3059 120.843 45.7149C120.485 48.1279 122.152 50.3719 124.563 50.7319C126.976 51.0889 129.221 49.4229 129.576 47.0109Z" fill="#E5A0A0"/>
<path d="M137.874 51.6601C137.874 51.6601 137.119 52.0501 135.899 52.3021C135.287 52.4141 134.559 52.5341 133.766 52.5041C133.371 52.4971 132.961 52.4491 132.548 52.3951C132.14 52.3021 131.712 52.2541 131.314 52.0861L130.712 51.8621L130.147 51.5641C129.76 51.3871 129.443 51.1131 129.117 50.8801C128.773 50.6651 128.551 50.3341 128.286 50.0841C128.018 49.8331 127.843 49.5351 127.659 49.2791C127.484 49.0161 127.299 48.7921 127.205 48.5531C127.096 48.3241 127.001 48.1241 126.923 47.9601C126.775 47.6311 126.69 47.4431 126.69 47.4431C126.63 47.3111 126.689 47.1551 126.821 47.0961C126.939 47.0421 127.077 47.0841 127.147 47.1891L127.167 47.2191C127.167 47.2191 127.276 47.3831 127.468 47.6691C127.56 47.8121 127.672 47.9861 127.8 48.1861C127.912 48.3961 128.117 48.5741 128.288 48.8041C128.474 49.0231 128.651 49.2821 128.91 49.4841C129.162 49.6901 129.385 49.9581 129.688 50.1401C129.981 50.3351 130.26 50.5721 130.603 50.7141L131.1 50.9621L131.632 51.1431C131.979 51.2851 132.355 51.3451 132.714 51.4371C133.081 51.4951 133.446 51.5491 133.804 51.5651C134.518 51.5991 135.195 51.5841 135.774 51.5151C136.938 51.3851 137.686 51.1681 137.686 51.1681C137.826 51.1271 137.973 51.2081 138.013 51.3481C138.049 51.4711 137.991 51.6001 137.881 51.6571L137.874 51.6601Z" fill="#1E120D"/>
<path d="M164.816 133.96C164.447 131.961 162.408 129.432 160.329 129.1C159.823 129.019 159.542 129.626 159.98 129.928C161.244 130.801 162.294 131.894 163.05 133.236C163.476 133.993 163.803 134.781 163.775 135.658C163.744 136.673 162.745 137.203 162.035 137.74C161.777 137.936 161.839 138.377 162.209 138.381C164.727 138.404 165.183 135.951 164.816 133.96Z" fill="#D3A289"/>
<path d="M123.885 5.90009C123.615 5.70409 123.309 6.02609 123.368 6.29709C123.456 6.70209 123.538 7.09709 123.656 7.49409C123.801 7.97909 123.8 8.49408 123.951 8.97308C124.232 9.86308 125.373 9.60608 125.479 8.76608C125.621 7.64808 124.728 6.51709 123.885 5.90009Z" fill="white"/>
<path d="M122.629 9.17591C122.373 8.51891 121.993 8.00491 121.404 7.61591C121.069 7.39491 120.677 7.82391 120.87 8.15091C121.251 8.80091 121.404 9.4529 121.471 10.1969C121.52 10.7349 121.793 11.6639 122.505 11.2709C123.164 10.9079 122.836 9.70691 122.629 9.17591Z" fill="white"/>
<path d="M134.896 14.6301C134.566 14.4291 134.206 14.8211 134.382 15.1431C134.572 15.4881 134.762 15.8171 134.769 16.2191C134.775 16.5501 134.523 16.8511 134.527 17.2031C134.53 17.4231 134.721 17.6511 134.957 17.6331C135.692 17.5761 136.09 16.9211 136.049 16.2191C136.007 15.5121 135.468 14.9781 134.896 14.6301Z" fill="white"/>
<path d="M132.977 15.546C132.862 15.342 132.554 15.344 132.438 15.546C132.133 16.074 131.934 16.7021 132.126 17.2951C132.199 17.5221 132.424 17.593 132.631 17.501C133.409 17.151 133.345 16.191 132.977 15.546Z" fill="white"/>
<path d="M145.195 17.5679C145.081 16.9829 144.787 16.6129 144.317 16.2649C144.146 16.1379 143.966 16.3469 143.996 16.5119C144.057 16.8589 144.055 17.2299 143.953 17.5679C143.906 17.7249 143.782 17.8619 143.747 18.0249C143.697 18.2519 143.676 18.4719 143.668 18.7039C143.654 19.1269 144.132 19.3559 144.48 19.1689C145.099 18.8359 145.33 18.2509 145.195 17.5679Z" fill="white"/>
<path d="M121.263 21.149C121.215 21.089 121.135 21.145 121.129 21.204C121.049 21.947 120.477 22.632 120.106 23.249C119.916 23.566 120.226 23.924 120.565 23.846C121.185 23.703 121.521 23.213 121.685 22.625C121.846 22.053 121.607 21.577 121.263 21.149Z" fill="white"/>
<path d="M208.367 101.437C206.984 102.279 205.922 104.478 206.55 106.066C206.668 106.364 207.152 106.537 207.322 106.167C207.609 105.541 207.787 104.885 208.133 104.284C208.507 103.636 209.004 103.113 209.444 102.513C209.923 101.858 209.006 101.047 208.367 101.437Z" fill="white"/>
<path d="M210.832 103.002C209.701 103.237 208.938 104.032 208.505 105.08C208.312 105.547 208.976 105.821 209.288 105.536C209.617 105.237 209.974 104.976 210.349 104.74C210.779 104.47 211.079 104.106 211.362 103.692C211.611 103.325 211.203 102.925 210.832 103.002Z" fill="white"/>
<path d="M219.909 110.69C219.43 109.813 218.688 109.538 217.712 109.57C217.041 109.592 216.182 109.771 215.79 110.375C215.614 110.647 215.852 110.947 216.133 110.971C216.601 111.01 217.037 111.047 217.496 111.167C217.824 111.254 218.129 111.393 218.464 111.465C218.812 111.54 219.11 111.494 219.457 111.477C219.856 111.458 220.104 111.048 219.909 110.69Z" fill="white"/>
<path d="M217.643 111.526C217.351 111.417 216.997 111.596 216.849 111.849C216.64 112.207 216.794 112.583 217.102 112.811C217.366 113.007 217.599 113.267 217.842 113.49C218.171 113.791 218.523 113.899 218.956 113.939C219.202 113.961 219.463 113.701 219.44 113.455C219.347 112.434 218.548 111.865 217.643 111.526Z" fill="white"/>
<path d="M216.875 115.959C216.245 115.015 215.054 114.585 214.002 115.103C213.728 115.238 213.748 115.664 214.002 115.804C214.724 116.204 215.514 116.537 216.328 116.671C216.709 116.733 217.136 116.35 216.875 115.959Z" fill="white"/>
<path d="M210.9 124.123C210.117 123.724 209.235 124.19 208.744 124.829C208.245 125.479 208.211 126.283 208.398 127.039C208.475 127.354 208.928 127.336 209.015 127.039C209.153 126.575 209.427 126.116 209.769 125.773C210.144 125.397 210.652 125.143 210.977 124.724C211.119 124.543 211.142 124.246 210.9 124.123Z" fill="white"/>
<path d="M212.457 126.532C211.037 126.495 210.11 127.845 209.785 129.088C209.681 129.487 210.223 129.864 210.517 129.514C211.228 128.665 212.206 128.084 212.822 127.167C213.007 126.891 212.759 126.54 212.457 126.532Z" fill="white"/>
<defs>
<linearGradient id="paint0_linear_216_627" x1="139.69" y1="44.4139" x2="136.317" y2="43.9608" gradientUnits="userSpaceOnUse">
<stop stop-color="#E8AA9A"/>
<stop offset="1" stop-color="#E1A697" stop-opacity="0"/>
</linearGradient>
</defs>
</svg>
