<svg width="228" height="224" viewBox="0 0 228 224" fill="none" xmlns="http://www.w3.org/2000/svg">
<path d="M125.347 148.784H114.707H99.4765H23.4565C20.4165 148.784 17.9565 146.324 17.9565 143.284C17.9565 141.763 18.5665 140.394 19.5665 139.394C20.5165 138.454 21.7965 137.843 23.2265 137.793C21.9065 138.923 21.6565 139.883 21.9565 140.283C22.4565 140.953 30.6265 138.123 33.1265 139.123C35.6265 140.123 70.2865 145.123 72.6265 138.623C80.3865 139.064 89.1165 139.283 98.3265 139.343C117.017 139.473 137.697 138.953 156.337 138.253C160.167 138.104 163.917 137.943 167.547 137.783H221.557C222.597 138.063 223.587 138.273 224.407 138.373C226.217 139.263 227.457 141.133 227.457 143.283C227.457 144.803 226.847 146.183 225.847 147.173C224.847 148.163 223.477 148.783 221.957 148.783H144.707L125.347 148.784Z" fill="#2C73B5"/>
<path d="M60.4866 108.984C60.7966 109.644 63.3366 115.013 66.1466 117.414C66.1466 117.414 62.6766 117.734 58.7966 116.734C55.3966 115.843 51.6666 113.934 49.7066 109.874C48.2166 106.794 47.3966 103.065 46.7966 99.1853C45.6966 92.0943 45.3466 84.4953 43.0866 79.4143C39.5866 71.5343 30.9566 68.6643 27.9566 71.2843L27.5966 71.4243C27.3566 71.0043 27.0366 70.5943 26.6266 70.2843C25.7366 69.6143 24.3266 68.5243 23.0566 68.2343L23.1266 67.9543C23.1266 67.9543 25.1266 55.4543 41.1266 58.9543C57.1266 62.4543 63.1266 85.9543 63.6266 96.9543C63.6666 97.8143 63.7266 98.6543 63.8066 99.4543C64.7766 108.934 68.3766 114.454 67.4566 114.454C66.4666 114.454 62.3766 112.744 60.4866 108.984Z" fill="#775020"/>
<path d="M18.4666 90.6742C18.5266 90.9352 19.7666 95.5842 17.8266 97.2842C15.8266 99.0342 12.0866 96.0342 12.0866 96.0342C12.0866 96.0342 12.6866 102.854 11.6166 104.924C11.5066 105.145 11.3666 105.315 11.2066 105.414C9.5866 106.414 5.9566 105.414 1.2066 93.9142C-3.5434 82.4142 6.8966 76.3142 12.3266 74.4142C15.3066 73.3742 17.9166 73.2942 19.5366 73.3942C20.6366 73.4632 21.2866 73.6232 21.2866 73.6232C21.2866 73.6232 24.3766 72.4732 28.2166 73.5132C31.2166 74.3332 34.6766 76.5032 37.4566 81.6232C37.4566 81.6232 38.6266 83.3732 38.4566 85.2032V85.2132C37.5466 84.6632 36.5666 84.4132 35.8266 84.6632C34.1566 85.2232 33.5766 86.8032 33.3866 87.7932C29.0566 87.7732 23.8266 80.0332 23.8266 80.0332C23.8266 80.0332 26.4566 85.9132 24.4566 89.2832C22.5266 92.5542 18.7266 90.7942 18.4666 90.6742Z" fill="#775020"/>
<path d="M28.2866 73.2843L28.2166 73.5133C24.3766 72.4733 21.2866 73.6233 21.2866 73.6233C21.2866 73.6233 20.6366 73.4633 19.5366 73.3943C19.3566 72.8343 18.8466 70.5933 21.3266 68.5343C21.8166 68.1343 22.4266 68.0843 23.0566 68.2343C24.3266 68.5243 25.7366 69.6143 26.6266 70.2843C27.0366 70.5933 27.3566 71.0043 27.5966 71.4243C28.1266 72.3343 28.2866 73.2843 28.2866 73.2843Z" fill="#A7C3EA"/>
<path d="M123.407 24.2942C119.197 24.2942 110.087 7.41419 110.087 7.41419C110.087 7.41419 105.587 14.5342 100.957 17.5342C96.3265 20.5342 93.7065 18.6642 93.7065 18.6642C93.7065 18.6642 92.9566 20.4442 91.6466 21.9842C90.6966 23.1142 89.4365 24.1142 87.9565 24.1642C84.4565 24.2842 86.0865 18.1642 86.0865 18.1642C86.0865 18.1642 84.0865 18.2842 82.9565 15.1642C81.8265 12.0342 89.8266 2.03418 96.8266 0.534182C103.827 -0.965819 108.707 2.66419 108.707 2.66419C108.707 2.66419 116.957 -1.71581 120.827 2.91419C124.667 7.48419 127.037 19.1442 125.997 23.2742C125.127 23.5342 124.487 24.1242 124.057 24.6542L123.407 24.2942Z" fill="#2D1A14"/>
<path d="M138.207 102.544L137.627 102.624C130.957 104.284 115.457 103.784 115.457 103.784L115.427 103.763C120.327 97.4841 127.967 86.5341 131.587 73.9131L131.607 73.7231C132.857 73.8731 133.967 73.8941 134.787 73.7841C135.837 73.6441 136.957 71.5341 137.837 68.4441C137.547 74.6041 136.917 91.6141 138.207 102.544Z" fill="#75D3CC"/>
<path d="M137.837 68.4441C136.957 71.5341 135.837 73.6441 134.787 73.784C133.967 73.8941 132.857 73.8741 131.607 73.7231C128.227 73.3331 123.837 72.0431 121.517 69.9631C119.077 80.0031 106.767 103.283 104.957 103.623C104.887 103.633 104.807 103.653 104.707 103.684V103.663C99.7266 94.5131 98.4166 75.2631 98.3266 73.8631H98.2966C98.2966 73.7831 98.2966 73.7131 98.2966 73.633L97.7866 73.6231C95.5966 74.1731 91.1066 73.2031 88.0466 72.0531C86.4466 71.4531 85.2366 70.8031 84.9566 70.2831C84.1266 68.7831 90.9566 50.4531 93.7866 46.6231C96.4866 42.9631 101.607 43.7031 102.087 43.7731C102.097 43.7731 102.097 43.7731 102.097 43.7731C104.197 45.7831 106.647 47.0831 109.457 47.1231C109.807 47.1231 110.147 47.1231 110.477 47.0931C111.207 47.9231 114.457 51.2531 118.087 49.1631C122.207 46.7841 123.207 44.7041 123.207 44.7041C123.207 44.7041 127.307 37.8741 134.457 41.7841C140.857 45.2941 140.167 60.2841 137.837 68.4441Z" fill="#75D3CC"/>
<path d="M149.377 192.144C149.457 193.144 149.487 193.803 149.457 194.034C149.207 196.284 134.457 203.534 134.207 202.284C133.957 201.034 138.207 193.784 138.207 193.784H138.257C138.257 193.784 146.777 194.554 149.377 192.144Z" fill="#2C625B"/>
<path d="M112.537 197.704H112.627C112.547 199.204 112.487 200.124 112.457 200.284C112.207 201.534 94.7066 203.284 94.9566 201.784C95.2066 200.284 100.957 196.534 100.957 196.534C100.957 196.534 109.537 199.704 112.537 197.704Z" fill="#2C625B"/>
<path d="M138.207 102.544C138.647 106.204 139.297 109.185 140.257 110.834C138.257 109.914 135.707 108.584 131.827 106.914C123.707 103.414 112.957 107.414 112.957 107.414L112.687 107.194C113.417 106.294 114.357 105.144 115.427 103.763L115.457 103.784C115.457 103.784 130.957 104.284 137.627 102.624L138.207 102.544Z" fill="#68BCB4"/>
<path d="M167.547 137.784C163.917 137.944 160.167 138.104 156.337 138.254L156.327 137.914C153.587 130.784 158.457 117.664 158.457 117.664C158.457 117.654 158.447 117.634 158.447 117.624C178.007 120.514 212.087 125.924 215.457 127.284C216.247 127.604 217.117 128.084 218.007 128.654C222.327 131.444 227.177 136.584 226.457 138.034C226.257 138.434 225.477 138.513 224.407 138.374C223.667 137.994 222.837 137.784 221.957 137.784H221.557C218.047 136.864 213.957 135.284 213.957 135.284C213.957 135.284 193.967 136.644 167.547 137.784Z" fill="#EFD1BD"/>
<path d="M218.087 128.534L218.007 128.654C217.117 128.084 216.247 127.604 215.457 127.284C212.087 125.924 178.007 120.513 158.447 117.624C158.117 116.244 159.707 114.034 159.707 114.034L159.727 113.864C178.167 116.364 208.787 121.184 212.707 123.534C215.207 125.034 218.087 128.534 218.087 128.534Z" fill="#D2B7A6"/>
<path d="M140.257 110.834C142.447 111.834 143.997 112.354 145.957 112.284C147.017 112.254 152.417 112.874 159.727 113.864L159.707 114.034C159.707 114.034 158.117 116.244 158.447 117.624C151.147 116.544 145.877 115.815 144.957 115.784C141.587 115.664 135.837 110.874 127.457 110.034C120.037 109.294 115.647 112.194 113.877 113.744L112.457 113.723C112.497 113.694 112.527 113.663 112.537 113.623C112.787 112.953 110.127 111.373 110.127 111.373C110.127 111.373 114.037 112.123 113.877 111.283C113.707 110.453 110.787 109.873 110.787 109.873L110.647 109.743C110.797 109.593 110.917 109.443 111.017 109.283C111.187 109.003 111.787 108.283 112.687 107.193L112.957 107.413C112.957 107.413 123.707 103.413 131.827 106.913C135.707 108.584 138.257 109.914 140.257 110.834Z" fill="#4E6C8C"/>
<path d="M113.877 113.744C115.647 112.194 120.037 109.294 127.457 110.034C135.837 110.874 141.587 115.664 144.957 115.784C145.877 115.814 151.147 116.544 158.447 117.624C158.447 117.634 158.457 117.654 158.457 117.664C158.457 117.664 153.587 130.784 156.327 137.914L156.337 138.254C137.697 138.954 117.017 139.474 98.3267 139.344V138.664C98.3267 138.664 99.8767 120.454 105.327 115.164L105.367 114.954C107.967 115.414 110.937 115.864 111.127 115.534C111.457 114.954 108.127 113.204 108.127 113.204C108.127 113.204 111.817 114.164 112.457 113.724L113.877 113.744Z" fill="#6A8DB7"/>
<path d="M144.707 149.034C144.707 149.034 148.737 183.444 149.377 192.144C146.777 194.553 138.257 193.784 138.257 193.784H138.207L125.347 148.784H144.707V149.034Z" fill="#68BCB4"/>
<path d="M96.8166 107.744C99.6566 105.834 103.337 104.064 104.707 103.684C104.807 103.654 104.887 103.633 104.957 103.623C106.767 103.283 119.077 80.0031 121.517 69.9631C123.837 72.0431 128.227 73.3331 131.607 73.7231L131.587 73.9131C127.967 86.5331 120.327 97.4831 115.427 103.763C114.357 105.144 113.417 106.293 112.687 107.194C111.787 108.284 111.187 109.004 111.017 109.284C110.917 109.444 110.797 109.593 110.647 109.744C109.367 111.024 106.287 111.774 104.767 112.164C104.027 112.354 102.717 113.214 101.377 114.084C99.6866 115.174 97.9366 116.254 97.2066 115.974C95.8966 115.474 99.9566 111.035 99.8966 110.855C99.8266 110.665 95.3966 115.415 94.5866 114.224C93.7666 113.035 97.4566 109.974 97.3266 109.974C97.2066 109.974 92.7066 114.164 93.1466 111.474C93.2566 110.815 93.9066 110.025 94.8666 109.204C95.4266 108.724 96.0966 108.224 96.8166 107.744Z" fill="#EFD1BD"/>
<path d="M126.197 33.5541L126.207 33.785C126.207 33.785 125.357 36.4251 123.347 39.3551C120.927 42.8651 116.827 46.7941 110.477 47.0941C110.147 47.1241 109.807 47.1241 109.457 47.1241C106.647 47.0841 104.197 45.7841 102.097 43.7741C102.097 43.7741 102.097 43.7741 102.087 43.7741C94.8966 36.9441 91.7066 22.0341 91.7066 22.0341L91.6466 21.9841C92.9566 20.4441 93.7066 18.6641 93.7066 18.6641C93.7066 18.6641 96.3266 20.5341 100.957 17.5341C105.587 14.5341 110.087 7.41406 110.087 7.41406C110.087 7.41406 119.197 24.2941 123.407 24.2941L124.057 24.6541C124.487 24.1241 125.127 23.5341 125.997 23.2741C126.577 23.0941 127.257 23.0641 128.037 23.2841C131.067 24.1641 131.127 33.2341 126.197 33.5541Z" fill="#EFD1BD"/>
<path d="M123.347 39.3542L123.377 39.3743C123.377 39.6243 123.207 44.7043 123.207 44.7043C123.207 44.7043 122.207 46.7842 118.087 49.1642C114.457 51.2542 111.207 47.9243 110.477 47.0943C116.827 46.7943 120.927 42.8642 123.347 39.3542Z" fill="#EFD1BD"/>
<path d="M99.4766 148.784H114.707C114.707 148.784 113.177 187.234 112.627 197.704H112.537C109.537 199.704 100.957 196.534 100.957 196.534L99.4766 148.784Z" fill="#68BCB4"/>
<path d="M113.877 111.284C114.037 112.124 110.127 111.374 110.127 111.374C110.127 111.374 112.787 112.954 112.537 113.624C112.527 113.664 112.497 113.694 112.457 113.724C111.817 114.164 108.127 113.204 108.127 113.204C108.127 113.204 111.457 114.954 111.127 115.534C110.937 115.864 107.967 115.414 105.367 114.954C103.287 114.584 101.457 114.204 101.457 114.204L101.377 114.084C102.717 113.214 104.027 112.354 104.767 112.164C106.287 111.774 109.367 111.024 110.647 109.744L110.787 109.874C110.787 109.874 113.707 110.454 113.877 111.284Z" fill="#DABEAC"/>
<path d="M105.367 114.954L105.327 115.164C99.8766 120.454 98.3266 138.664 98.3266 138.664V139.344C89.1166 139.285 80.3866 139.065 72.6266 138.624C74.9566 132.124 58.7866 116.784 58.7866 116.784L58.7966 116.734C62.6766 117.734 66.1466 117.414 66.1466 117.414C63.3366 115.014 60.7966 109.644 60.4866 108.984C62.3766 112.744 66.4666 114.454 67.4566 114.454C68.3766 114.454 64.7766 108.934 63.8066 99.4541L64.2066 99.4141C64.2066 99.4141 69.0866 98.1641 74.7066 100.414C80.3266 102.664 89.9566 108.784 94.8266 109.164L94.8666 109.204C93.9066 110.024 93.2566 110.814 93.1466 111.474C92.7066 114.164 97.2066 109.974 97.3266 109.974C97.4566 109.974 93.7666 113.035 94.5866 114.224C95.3966 115.414 99.8266 110.664 99.8966 110.855C99.9566 111.035 95.8966 115.474 97.2066 115.974C97.9366 116.254 99.6866 115.174 101.377 114.084L101.457 114.204C101.457 114.204 103.287 114.584 105.367 114.954Z" fill="#A7C3EA"/>
<path d="M98.2966 73.8642H98.3267C98.4167 75.2632 99.7267 94.5132 104.707 103.664V103.685C103.337 104.065 99.6567 105.834 96.8167 107.745C89.9267 97.7751 87.7867 72.9552 87.9567 72.2852L88.0466 72.0552C91.1066 73.2052 95.5967 74.1752 97.7867 73.6252L98.2966 73.6352C98.2966 73.7142 98.2966 73.7842 98.2966 73.8642Z" fill="#DABEAC"/>
<path d="M23.2266 137.794C24.0866 137.054 25.3866 136.234 27.2866 135.454C30.1166 134.284 49.9566 133.624 49.9566 133.624L49.9966 133.574C46.0966 130.054 37.2466 121.234 38.2866 114.454C38.6066 112.414 39.4066 111.074 40.4466 110.234C43.8166 107.484 49.7066 109.874 49.7066 109.874C51.6666 113.935 55.3966 115.844 58.7966 116.734L58.7866 116.784C58.7866 116.784 74.9566 132.124 72.6266 138.624C70.2866 145.124 35.6266 140.124 33.1266 139.124C30.6266 138.124 22.4566 140.954 21.9566 140.284C21.6566 139.884 21.9066 138.924 23.2266 137.794Z" fill="#EFD1BD"/>
<path d="M33.3866 87.7942C33.5766 86.8042 34.1566 85.2242 35.8266 84.6642C36.5666 84.4142 37.5466 84.6642 38.4566 85.2142C40.1866 86.2752 41.6466 88.4442 40.6466 90.5252L40.8766 90.6252C40.8766 90.6252 43.7366 96.9552 46.7966 99.1862C47.3966 103.066 48.2166 106.795 49.7066 109.875C49.7066 109.875 43.8166 107.485 40.4466 110.235L40.2866 110.035L39.0366 109.535L38.7866 109.355C37.5766 111.105 36.1666 112.735 34.6266 114.035C29.7066 118.205 12.1266 104.955 12.1266 104.955L11.6166 104.925C12.6866 102.856 12.0866 96.0352 12.0866 96.0352C12.0866 96.0352 15.8266 99.0352 17.8266 97.2852C19.7666 95.5852 18.5266 90.9352 18.4666 90.6752C18.7266 90.7952 22.5266 92.5552 24.4566 89.2852C26.4566 85.9152 23.8266 80.0352 23.8266 80.0352C23.8266 80.0352 29.0566 87.7742 33.3866 87.7942Z" fill="#EFD1BD"/>
<path d="M33.1205 88.6074C33.1205 88.6074 33.1255 88.3533 33.1355 87.9113C33.1565 87.6243 33.1835 87.4193 33.2675 87.0743C33.3405 86.7473 33.4575 86.3974 33.6565 86.0334C33.8425 85.6654 34.1205 85.3004 34.4705 84.9564C34.6575 84.8014 34.8605 84.6453 35.0765 84.5053L35.4305 84.3363L35.6115 84.2534L35.6575 84.2324L35.6685 84.2274L35.6745 84.2243L35.7495 84.2043L35.7705 84.2003L35.8575 84.1834C36.1015 84.1504 36.2905 84.0654 36.6335 84.1074C36.9525 84.1184 37.2685 84.1644 37.5145 84.2614C37.7855 84.3384 38.0485 84.4314 38.2855 84.5684L38.6545 84.7563C38.8375 84.8583 38.8825 84.9103 39.0015 84.9923C39.3915 85.2583 39.8585 85.6853 40.1885 86.0923C40.5405 86.4993 40.8165 86.9633 41.0285 87.4373C41.1145 87.6853 41.2185 87.9224 41.2665 88.1704C41.2955 88.4234 41.3235 88.6703 41.3505 88.9113C41.3095 89.3953 41.2775 89.8564 41.0885 90.2354C40.9925 90.4324 40.9865 90.6073 40.8215 90.7943C40.7155 90.9313 40.6135 91.0603 40.5195 91.1823C40.3525 91.4363 40.1215 91.6213 39.9365 91.7693C39.5715 92.0693 39.3635 92.2224 39.3635 92.2224C39.3075 92.2634 39.2295 92.2514 39.1885 92.1964C39.1545 92.1494 39.1575 92.0873 39.1915 92.0433L39.2075 92.0233C39.2075 92.0233 39.3655 91.8283 39.6395 91.5173C39.7805 91.3653 39.9525 91.1933 40.0875 90.9013C40.1625 90.7653 40.2415 90.6223 40.3255 90.4703C40.3915 90.3883 40.4155 90.1764 40.4675 90.0284C40.5985 89.7074 40.5725 89.3323 40.5765 88.9543C40.5355 88.7663 40.4945 88.5733 40.4515 88.3763C40.3895 88.1853 40.2905 87.9963 40.2205 87.7993C40.0325 87.4193 39.7915 87.0394 39.4795 86.7054C39.3395 86.5194 39.1645 86.3874 39.0015 86.2364C38.8555 86.0864 38.6415 85.9433 38.4295 85.8013C38.3385 85.7443 38.1905 85.6294 38.1495 85.6154L37.8455 85.4594C37.6465 85.3394 37.4385 85.2663 37.2295 85.2043C37.0105 85.1123 36.8355 85.1063 36.6675 85.0753C36.5245 85.0053 36.2405 85.0844 36.0165 85.1064L35.9285 85.1183L35.9065 85.1213C35.8895 85.1253 36.0335 85.0903 35.9705 85.1053L35.9665 85.1074L35.9575 85.1114L35.9225 85.1263L35.7835 85.1853L35.5055 85.2954C35.3335 85.3884 35.1695 85.4913 35.0115 85.5953C34.7195 85.8373 34.4645 86.1054 34.2805 86.3994C34.0935 86.6874 33.9445 86.9863 33.8365 87.2463C33.7285 87.4853 33.6345 87.8073 33.6035 87.9583C33.5075 88.3933 33.4525 88.6414 33.4525 88.6414L33.4515 88.6483C33.4315 88.7383 33.3415 88.7953 33.2505 88.7763C33.1715 88.7573 33.1185 88.6854 33.1205 88.6074Z" fill="#C99781"/>
<path d="M102.209 43.6494C102.209 43.6494 102.304 43.7254 102.482 43.8684C102.663 44.0044 102.917 44.2374 103.259 44.4724C103.595 44.7184 104.008 45.0073 104.515 45.2903C105.019 45.5744 105.602 45.8674 106.264 46.1074C106.921 46.3644 107.667 46.5233 108.458 46.6303C108.851 46.6413 109.282 46.6903 109.668 46.6653C109.888 46.6564 110.109 46.6473 110.333 46.6393C110.488 46.6383 110.761 46.5894 110.973 46.5674C111.879 46.4534 112.836 46.3674 113.683 46.0634C114.574 45.8734 115.421 45.4424 116.288 45.0764C116.718 44.8864 117.107 44.6113 117.518 44.3843L118.125 44.0273L118.683 43.6024C119.046 43.3114 119.44 43.0624 119.771 42.7444C120.106 42.4314 120.436 42.1203 120.761 41.8153C121.358 41.1543 121.984 40.5494 122.469 39.8824C122.711 39.5584 122.998 39.2444 123.183 38.9374C123.398 38.6074 123.605 38.2894 123.804 37.9824C124.005 37.6764 124.197 37.3834 124.379 37.1054C124.537 36.8204 124.688 36.5483 124.829 36.2943C125.11 35.7823 125.369 35.3414 125.534 34.9514C125.906 34.1884 126.085 33.7434 126.085 33.7434C126.11 33.6794 126.183 33.6454 126.249 33.6704C126.309 33.6934 126.341 33.7604 126.326 33.8214C126.326 33.8214 126.199 34.3003 125.893 35.1033C125.757 35.5123 125.53 35.9854 125.283 36.5374C125.158 36.8124 125.025 37.1064 124.884 37.4164C124.718 37.7044 124.544 38.0084 124.362 38.3254C124.179 38.6414 123.988 38.9703 123.79 39.3103C123.584 39.6883 123.328 39.9894 123.088 40.3484C122.615 41.0564 122.02 41.7384 121.397 42.4304C121.062 42.7564 120.722 43.0873 120.377 43.4233C120.036 43.7633 119.626 44.0363 119.248 44.3503L118.665 44.8094L118.029 45.2023C117.597 45.4533 117.187 45.7504 116.732 45.9634C115.811 46.3694 114.9 46.7944 113.904 47.0024C112.924 47.3184 111.992 47.3814 111.085 47.4844C110.842 47.5064 110.669 47.5433 110.375 47.5523C110.151 47.5563 109.929 47.5603 109.71 47.5653C109.218 47.5703 108.792 47.4973 108.351 47.4613C107.49 47.3043 106.69 47.0884 105.998 46.7794C105.297 46.4944 104.7 46.1373 104.2 45.7943C103.695 45.4553 103.286 45.1164 102.955 44.8304C102.614 44.5564 102.404 44.3004 102.233 44.1444C102.071 43.9824 101.985 43.8963 101.985 43.8963C101.92 43.8313 101.919 43.7243 101.985 43.6593C102.046 43.6013 102.143 43.5974 102.209 43.6494Z" fill="#C99781"/>
<path d="M123.228 25.6273C123.228 25.6273 123.258 25.5573 123.313 25.4253C123.359 25.2923 123.479 25.1043 123.623 24.8643C123.7 24.7423 123.768 24.6173 123.877 24.4593C123.977 24.3333 124.085 24.1963 124.199 24.0503C124.344 23.9063 124.498 23.7543 124.66 23.5933C124.845 23.4643 125.038 23.3213 125.25 23.1903C125.487 23.0883 125.702 22.9653 125.991 22.8753C126.11 22.8423 126.231 22.8103 126.353 22.7763C126.501 22.7573 126.652 22.7383 126.805 22.7193C127.109 22.7013 127.407 22.7033 127.707 22.7543C127.999 22.8013 128.318 22.8563 128.633 23.0373C129.305 23.4053 129.688 23.9723 129.981 24.5673C130.267 25.1653 130.44 25.8003 130.531 26.4393C130.703 27.7193 130.602 29.0123 130.27 30.1733C129.938 31.3333 129.288 32.3413 128.503 32.9543C127.719 33.5873 126.852 33.7203 126.308 33.7353C125.995 33.7433 125.822 33.6913 125.669 33.6843C125.527 33.6673 125.451 33.6593 125.451 33.6593C125.382 33.6513 125.331 33.5893 125.34 33.5193C125.347 33.4563 125.4 33.4103 125.46 33.4073C125.46 33.4073 125.536 33.4023 125.679 33.3933C125.811 33.3803 126.056 33.3813 126.273 33.3463C126.771 33.2743 127.471 33.0323 128.077 32.4553C128.382 32.1723 128.66 31.8063 128.886 31.3773C129.116 30.9483 129.276 30.4553 129.415 29.9383C129.681 28.8993 129.737 27.7143 129.549 26.5883C129.456 26.0273 129.321 25.4713 129.09 24.9873C128.87 24.5133 128.544 24.0653 128.21 23.8713C128.038 23.7453 127.793 23.6953 127.549 23.6413C127.315 23.5793 127.068 23.5633 126.853 23.5563L126.535 23.5633C126.41 23.5873 126.287 23.6103 126.166 23.6343C125.983 23.6773 125.771 23.7733 125.583 23.8333C125.403 23.9363 125.231 24.0343 125.067 24.1273C124.917 24.2403 124.774 24.3483 124.64 24.4483C124.507 24.5783 124.383 24.6993 124.268 24.8113C124.175 24.9253 124.09 25.0303 124.013 25.1253C123.681 25.5013 123.524 25.7793 123.524 25.7793C123.479 25.8593 123.376 25.8883 123.295 25.8423C123.22 25.8003 123.19 25.7083 123.223 25.6313L123.228 25.6273Z" fill="#C99781"/>
<path d="M123.065 44.6154C123.065 44.6154 123.232 44.3264 123.605 43.8434C123.982 43.3644 124.569 42.6733 125.481 41.9713C126.386 41.2783 127.661 40.5684 129.283 40.3484C130.898 40.1104 132.794 40.4764 134.536 41.4214C136.393 42.3474 137.699 44.2884 138.495 46.3814C139.306 48.5003 139.712 50.8554 139.877 53.2824C140.04 55.7134 139.978 58.2294 139.734 60.7664C139.481 63.3014 139.067 65.8663 138.369 68.3753C138.016 69.6203 137.599 70.8754 137.004 72.0634C136.691 72.6544 136.363 73.2464 135.805 73.7624C135.666 73.8894 135.504 74.0113 135.305 74.1054C135.208 74.1553 135.104 74.1973 134.984 74.2203C134.916 74.2333 134.891 74.2503 134.787 74.2553L134.668 74.2603L133.72 74.3013C133.092 74.3343 132.412 74.2304 131.766 74.1964C131.101 74.1204 130.525 74.0394 129.892 73.9174C128.638 73.6874 127.445 73.3634 126.28 72.9764C125.123 72.5764 124 72.1133 122.976 71.4923L122.216 71.0233L121.514 70.4703C121.395 70.3683 121.288 70.3113 121.162 70.1733L120.869 69.8713C120.671 69.6923 120.488 69.4253 120.306 69.1813C119.949 68.6863 119.731 68.1274 119.597 67.5464C119.572 67.2974 119.595 67.2464 119.591 67.0884C119.588 66.9594 119.634 66.7953 119.655 66.6523C119.704 66.3423 119.777 66.0794 119.852 65.8314C120.142 64.8094 120.496 63.8684 120.838 62.9644C122.232 59.3624 123.566 56.4463 124.416 54.3703C124.845 53.3353 125.177 52.5184 125.376 51.9564C125.582 51.3954 125.663 51.0923 125.663 51.0923C125.681 51.0253 125.749 50.9854 125.817 51.0024C125.883 51.0204 125.923 51.0873 125.908 51.1523C125.908 51.1523 125.834 51.4723 125.644 52.0483C125.461 52.6263 125.156 53.4544 124.761 54.5074C123.968 56.6104 122.77 59.5903 121.452 63.1913C121.13 64.0923 120.797 65.0374 120.54 66.0164C120.469 66.2664 120.413 66.5083 120.379 66.7213C120.364 66.8373 120.32 66.9304 120.325 67.0684L120.326 67.4084C120.445 67.8674 120.634 68.3333 120.932 68.7283C121.185 69.0933 121.639 69.5703 122.029 69.8503L122.677 70.3423L123.396 70.7654C124.365 71.3244 125.444 71.7584 126.559 72.1374C127.678 72.5014 128.853 72.8103 130.035 73.0183C131.265 73.2403 132.436 73.3643 133.663 73.3663L134.611 73.3184C134.832 73.3154 134.957 73.2324 135.167 73.0544C135.548 72.7044 135.865 72.1653 136.138 71.6293C136.681 70.5253 137.073 69.3323 137.409 68.1093C138.721 63.2243 139.22 58.0814 138.951 53.3434C138.793 50.9774 138.431 48.6964 137.705 46.6754C136.984 44.6724 135.817 42.9034 134.19 42.0594C132.558 41.1484 130.838 40.7703 129.348 40.9313C127.851 41.0823 126.632 41.7023 125.746 42.3333C124.855 42.9733 124.264 43.6203 123.886 44.0703C123.508 44.5273 123.344 44.7914 123.344 44.7914C123.295 44.8694 123.192 44.8943 123.114 44.8453C123.037 44.7983 123.012 44.6974 123.057 44.6194L123.065 44.6154Z" fill="#4E6C8C"/>
<path d="M99.9536 53.9752C99.9536 53.9752 99.8406 55.6712 99.6726 58.2162C99.6236 58.8512 99.5696 59.5372 99.5136 60.2642C99.4656 60.9922 99.4156 61.7582 99.3636 62.5522C99.3066 63.3452 99.2476 64.1642 99.1876 64.9962C99.1346 65.8282 99.0526 66.6742 99.0206 67.5192C98.9396 69.2092 98.8586 70.9002 98.7836 72.4852C98.7416 73.2842 98.6926 74.0342 98.7016 74.7682C98.6886 75.5002 98.6816 76.1902 98.7106 76.8162C98.7316 77.4462 98.7296 78.0262 98.7806 78.5362C98.8286 79.0442 98.8256 79.5012 98.9016 79.8572C99.0156 80.5842 99.0806 80.9992 99.0806 80.9992L99.0836 81.0172C99.0946 81.0852 99.0476 81.1502 98.9786 81.1612C98.9156 81.1712 98.8556 81.1312 98.8386 81.0702C98.8386 81.0702 98.7216 80.6552 98.5186 79.9292C98.4066 79.5642 98.3676 79.1112 98.2696 78.5952C98.1696 78.0782 98.1086 77.4922 98.0586 76.8482C97.9916 76.2022 97.9576 75.5122 97.9286 74.7832C97.8846 74.0572 97.8626 73.2672 97.9016 72.4742C97.9436 70.8742 97.9886 69.1672 98.0336 67.4612C98.0526 66.6072 98.1676 65.7622 98.2296 64.9262C98.3036 64.0902 98.3756 63.2692 98.4466 62.4732C98.5616 60.8802 98.7936 59.4052 98.9566 58.1372C99.2926 55.6032 99.6256 53.9342 99.6256 53.9342C99.6416 53.8432 99.7296 53.7832 99.8206 53.7982C99.8996 53.8132 99.9566 53.8922 99.9536 53.9752Z" fill="#4E6C8C"/>
<path d="M51.6775 135.251C51.6775 135.251 51.1885 134.86 50.3325 134.178C49.4745 133.478 48.2825 132.466 46.9305 131.144C45.5875 129.82 44.0365 128.245 42.5785 126.373C41.8495 125.439 41.1145 124.454 40.4585 123.386C39.7785 122.336 39.1875 121.197 38.6785 120.016C38.2515 118.803 37.8245 117.561 37.7805 116.254L37.7395 115.772L37.7695 115.286C37.7995 114.949 37.7995 114.673 37.8555 114.293C37.9265 113.999 37.9965 113.707 38.0655 113.418L38.1695 112.985C38.2175 112.838 38.2885 112.688 38.3465 112.542C38.7425 111.308 39.6065 110.369 40.5365 109.699C40.7495 109.546 40.9845 109.404 41.2595 109.287C41.5195 109.154 41.7775 109.047 42.0325 108.978C42.5375 108.802 43.0465 108.718 43.5295 108.665C44.4995 108.556 45.3875 108.626 46.1545 108.745C46.9225 108.864 47.5795 109.015 48.1115 109.174C49.1765 109.483 49.7515 109.758 49.7515 109.758C49.8155 109.786 49.8435 109.862 49.8145 109.925C49.7875 109.985 49.7165 110.012 49.6565 109.992C49.6565 109.992 49.0745 109.78 48.0155 109.552C46.9665 109.332 45.4065 109.061 43.6125 109.316C42.7065 109.458 41.8135 109.729 40.9785 110.337C40.2055 110.935 39.5065 111.795 39.1875 112.816C39.1385 112.941 39.0795 113.057 39.0365 113.191L38.9385 113.625C38.8735 113.916 38.8075 114.208 38.7415 114.503L38.6925 115.322L38.6695 115.753L38.7155 116.187C38.7655 117.355 39.1825 118.512 39.5975 119.642C40.0915 120.752 40.6235 121.855 41.2775 122.877C41.8975 123.915 42.6055 124.885 43.3085 125.806C44.7295 127.639 46.1535 129.287 47.4455 130.634C48.7375 131.974 49.8365 133.095 50.6395 133.82C51.4385 134.569 51.8955 134.998 51.8955 134.998C51.9635 135.061 51.9685 135.166 51.9055 135.234C51.8465 135.299 51.7465 135.305 51.6775 135.251Z" fill="#C99781"/>
<path d="M38.2886 85.2144C38.2886 85.2144 38.2086 85.2134 38.0896 85.2124C38.0026 85.2124 37.9506 85.2104 37.9586 85.2094C38.1446 85.2064 38.3296 85.2044 38.3296 85.2044C38.3986 85.2034 38.5136 85.2034 38.5826 85.2044C38.5826 85.2044 38.7676 85.2064 38.9536 85.2094C38.9616 85.2104 38.9096 85.2124 38.8226 85.2124C38.7026 85.2134 38.6236 85.2144 38.6236 85.2144C38.5516 85.2154 38.3616 85.2144 38.2886 85.2144Z" fill="#C99781"/>
<path d="M28.7165 66.6582C28.7165 66.6582 28.8845 66.4932 29.2395 66.2392C29.5865 65.9762 30.1295 65.6412 30.8625 65.2932C31.5995 64.9492 32.5465 64.6482 33.6725 64.4662C34.7995 64.3442 36.1105 64.3322 37.4755 64.6832C37.8265 64.7322 38.1525 64.8852 38.5015 64.9912C38.8405 65.1212 39.2115 65.2002 39.5435 65.3782C40.2125 65.7192 40.9455 66.0102 41.5945 66.4772C41.9305 66.6932 42.2705 66.9122 42.6145 67.1342C42.9425 67.3762 43.2555 67.6462 43.5825 67.9042C43.9035 68.1712 44.2385 68.4292 44.5515 68.7172C44.8515 69.0172 45.1545 69.3212 45.4595 69.6262C45.7675 69.9422 46.0655 70.2162 46.3885 70.5742C46.6635 70.9042 46.9405 71.2362 47.1975 71.6382C47.7245 72.4062 48.1325 73.2012 48.5325 74.0222C49.3015 75.6692 49.9355 77.3892 50.4915 79.1282C51.5895 82.6112 52.4535 86.1412 53.2735 89.4412C54.0825 92.7432 54.7985 95.8302 55.5465 98.4332C56.2925 101.034 57.0215 103.177 57.7985 104.532C58.1765 105.216 58.5735 105.677 58.8755 105.948C59.0195 106.094 59.1655 106.148 59.2475 106.214C59.3345 106.271 59.3795 106.3 59.3795 106.3L59.4065 106.318C59.4645 106.356 59.4805 106.433 59.4425 106.491C59.4065 106.547 59.3325 106.563 59.2755 106.531C59.2755 106.531 59.2235 106.501 59.1235 106.444C59.0305 106.379 58.8585 106.316 58.6945 106.168C58.3505 105.889 57.9055 105.413 57.4795 104.725C56.6195 103.354 55.7405 101.228 54.9175 98.6242C54.1025 96.0172 53.2655 92.9492 52.4135 89.6592C51.5615 86.3702 50.6645 82.8592 49.5455 79.4342C48.9855 77.7232 48.3925 76.0242 47.6585 74.4322C47.2845 73.6482 46.8845 72.8612 46.4245 72.1822C46.2165 71.8412 45.9415 71.5022 45.6655 71.1662C45.4125 70.8832 45.0845 70.5682 44.8015 70.2752C44.5085 69.9762 44.2175 69.6802 43.9305 69.3872C43.6325 69.1072 43.3095 68.8632 43.0075 68.5982C42.7005 68.3412 42.4055 68.0742 42.0985 67.8332C41.7765 67.6132 41.4575 67.3972 41.1435 67.1832C40.5335 66.7182 39.8515 66.4332 39.2255 66.0902C38.9145 65.9102 38.5705 65.8322 38.2535 65.7002C37.9285 65.5932 37.6235 65.4362 37.2965 65.3862C36.0235 65.0322 34.8075 64.9942 33.7385 65.0502C32.6745 65.1732 31.7595 65.4142 31.0415 65.7082C30.3275 66.0082 29.7895 66.3052 29.4475 66.5392C29.0995 66.7642 28.9345 66.9102 28.9345 66.9102C28.8655 66.9722 28.7595 66.9662 28.6985 66.8962C28.6385 66.8292 28.6435 66.7272 28.7065 66.6662L28.7165 66.6582Z" fill="#633E00"/>
<path d="M35.1195 89.2684C35.1195 89.2684 35.0325 89.0064 35.0275 88.6194C35.0245 88.2314 35.1255 87.7084 35.4135 87.2284C35.5535 86.9904 35.7535 86.7704 35.9725 86.6014C36.2055 86.4394 36.4585 86.3394 36.6795 86.3094C37.1345 86.2594 37.3815 86.4264 37.3805 86.4094C37.4505 86.4124 37.5045 86.4704 37.5015 86.5414C37.4985 86.6104 37.4395 86.6644 37.3705 86.6614C37.3705 86.6614 37.3125 86.6954 37.2235 86.7384C37.1305 86.7644 37.0185 86.8544 36.9015 86.9334C36.7875 87.0254 36.6785 87.1364 36.5705 87.2634C36.4725 87.4084 36.3615 87.5514 36.2715 87.7324C36.0775 88.0754 35.8985 88.4724 35.7435 88.7804C35.5825 89.0894 35.4525 89.3024 35.4525 89.3024L35.4495 89.3064C35.3965 89.3934 35.2845 89.4204 35.1975 89.3684C35.1605 89.3434 35.1335 89.3074 35.1195 89.2684Z" fill="#C99781"/>
<path d="M23.5806 111.961C23.5806 111.961 24.0176 112.147 24.7816 112.472C25.5376 112.798 26.6416 113.227 27.9756 113.658C28.6416 113.877 29.3756 114.066 30.1526 114.214C30.9286 114.355 31.7576 114.434 32.5696 114.356C32.9676 114.294 33.3726 114.219 33.7216 114.041C34.0986 113.884 34.3446 113.643 34.7116 113.304C35.4246 112.675 36.0236 112.004 36.6416 111.314C36.9386 110.957 37.2476 110.608 37.5366 110.244C37.8156 109.872 38.0926 109.502 38.3676 109.134C38.8546 108.387 39.3906 107.591 39.7816 106.837C40.2166 106.09 40.5726 105.316 40.9176 104.594C41.2176 103.852 41.5186 103.153 41.7016 102.479C41.9326 101.815 42.0436 101.188 42.1756 100.633C42.2836 100.077 42.3016 99.5832 42.3566 99.1772C42.3406 98.3632 42.3326 97.8972 42.3326 97.8972L42.3316 97.8792C42.3306 97.8102 42.3856 97.7532 42.4546 97.7512C42.5176 97.7502 42.5716 97.7962 42.5806 97.8562C42.5806 97.8562 42.6596 98.3302 42.7466 99.1782C42.7266 99.5982 42.7506 100.119 42.6866 100.705C42.6006 101.287 42.5436 101.959 42.3336 102.653C42.1786 103.365 41.9076 104.1 41.6366 104.887C41.3116 105.65 41.0126 106.473 40.5556 107.268C40.1366 108.102 39.6566 108.841 39.1386 109.668C38.8616 110.054 38.5816 110.442 38.3006 110.833C38.0096 111.216 37.6956 111.585 37.3936 111.962C36.7576 112.695 36.0576 113.415 35.3616 114.016C35.0456 114.304 34.5986 114.714 34.1176 114.899C33.6426 115.127 33.1436 115.212 32.6636 115.277C31.7006 115.366 30.7986 115.232 29.9826 115.037C29.1656 114.84 28.4126 114.604 27.7376 114.346C26.3786 113.846 25.3226 113.281 24.5766 112.899C23.8366 112.508 23.4316 112.264 23.4316 112.264C23.3506 112.218 23.3226 112.116 23.3686 112.035C23.4116 111.959 23.5046 111.931 23.5806 111.961Z" fill="#C99781"/>
<path d="M112.757 114.492C112.757 114.492 112.862 114.343 113.126 114.083C113.377 113.823 113.78 113.425 114.29 113.02C114.813 112.611 115.498 112.108 116.321 111.664C116.721 111.412 117.178 111.208 117.663 110.995C117.905 110.889 118.153 110.779 118.408 110.667C118.672 110.583 118.942 110.497 119.219 110.408C119.771 110.231 120.343 110.032 120.963 109.937C121.578 109.838 122.204 109.637 122.869 109.615C123.53 109.565 124.21 109.495 124.905 109.461C125.6 109.488 126.31 109.517 127.032 109.545C127.79 109.565 128.462 109.696 129.202 109.789C129.938 109.925 130.688 110.055 131.417 110.248C132.884 110.613 134.352 111.075 135.769 111.65C137.188 112.218 138.571 112.86 139.917 113.493C141.263 114.112 142.58 114.771 143.874 115.127C144.197 115.217 144.515 115.28 144.823 115.303C145.17 115.348 145.514 115.392 145.854 115.437C146.531 115.526 147.192 115.613 147.837 115.698C149.126 115.856 150.343 116.049 151.467 116.223C155.955 116.948 158.947 117.431 158.947 117.431L158.871 117.952C158.871 117.952 155.878 117.574 151.389 117.007C150.269 116.857 149.057 116.691 147.763 116.559C147.118 116.488 146.454 116.414 145.777 116.34C145.44 116.303 145.099 116.265 144.755 116.228C144.367 116.202 143.996 116.128 143.634 116.031C142.188 115.64 140.869 114.979 139.509 114.369C138.158 113.745 136.793 113.123 135.401 112.577C134.014 112.021 132.598 111.552 131.18 111.192C130.471 110.998 129.766 110.872 129.07 110.736C128.366 110.642 127.616 110.497 126.956 110.483C126.262 110.449 125.58 110.416 124.913 110.383C124.247 110.402 123.596 110.455 122.961 110.487C122.321 110.493 121.725 110.676 121.132 110.756C120.536 110.832 119.988 111.012 119.457 111.169C119.191 111.247 118.931 111.323 118.677 111.398C118.432 111.499 118.193 111.598 117.96 111.694C117.49 111.879 117.043 112.056 116.654 112.282C115.839 112.684 115.207 113.112 114.672 113.493C114.129 113.892 113.784 114.216 113.53 114.454C113.277 114.679 113.155 114.836 113.155 114.836L112.757 114.492Z" fill="#3D5874"/>
<path d="M123.962 28.6601C123.962 28.6601 123.93 28.3341 124.023 27.8731C124.07 27.6421 124.154 27.3771 124.286 27.1081C124.415 26.8361 124.593 26.5611 124.824 26.3131C125.053 26.0661 125.34 25.8541 125.646 25.7221C125.806 25.6651 125.953 25.6011 126.109 25.5891C126.262 25.5741 126.403 25.5451 126.534 25.5701C126.797 25.5891 126.993 25.6661 127.123 25.7291C127.254 25.7881 127.322 25.8301 127.322 25.8301C127.384 25.8681 127.403 25.9491 127.364 26.0111C127.345 26.0411 127.317 26.0611 127.285 26.0691L127.26 26.0751C127.26 26.0751 127.183 26.0951 127.062 26.1141C126.94 26.1151 126.775 26.1691 126.599 26.2291C126.246 26.3531 125.879 26.6011 125.559 26.9841C125.233 27.3541 124.935 27.8031 124.701 28.1531C124.461 28.5031 124.286 28.7451 124.286 28.7451C124.229 28.8251 124.118 28.8451 124.037 28.7881C123.994 28.7591 123.968 28.7091 123.962 28.6601Z" fill="#C99781"/>
<path d="M102.208 22.9451C102.208 22.9451 102.26 23.1551 102.36 23.5731C102.45 23.9821 102.616 24.5601 102.771 25.2601C103.108 26.6541 103.545 28.5151 104.044 30.3371C104.29 31.2421 104.563 32.1591 104.941 32.8961C105.124 33.2551 105.37 33.5811 105.488 33.5751C105.69 33.5961 105.9 33.6341 106.078 33.6391C106.239 33.6241 106.393 33.6111 106.542 33.5971C106.858 33.5181 107.163 33.4541 107.419 33.3431C107.682 33.2501 107.897 33.1271 108.076 33.0321C108.434 32.8341 108.62 32.6961 108.62 32.6961C108.677 32.6541 108.756 32.6661 108.798 32.7221C108.834 32.7701 108.83 32.8351 108.794 32.8791C108.794 32.8791 108.634 33.0771 108.297 33.3531C107.953 33.6141 107.447 34.0051 106.688 34.2351C106.48 34.2721 106.264 34.3101 106.04 34.3511C105.833 34.3631 105.641 34.3481 105.432 34.3471C105.098 34.3421 104.773 34.1191 104.614 33.9371C104.423 33.7451 104.288 33.5361 104.165 33.3221C103.689 32.4701 103.384 31.5431 103.089 30.6101C102.542 28.7361 102.233 26.8261 102.056 25.3891C101.954 24.6721 101.929 24.0661 101.893 23.6441C101.866 23.2311 101.872 22.9631 101.872 22.9631C101.874 22.8711 101.951 22.7981 102.044 22.8001C102.121 22.8021 102.185 22.8561 102.202 22.9281L102.208 22.9451Z" fill="#C99781"/>
<path d="M105.686 36.1143C105.686 36.1143 106.364 36.2053 107.396 36.2043C107.908 36.1963 108.504 36.1633 109.124 36.0613C109.748 35.9783 110.392 35.7943 110.993 35.5373C111.292 35.4043 111.597 35.2813 111.859 35.0953C112.143 34.9403 112.387 34.7423 112.613 34.5353C112.857 34.3483 113.05 34.1233 113.239 33.9123C113.443 33.7133 113.591 33.4883 113.722 33.2733C113.847 33.0583 114.008 32.8833 114.091 32.6943C114.182 32.5083 114.26 32.3453 114.325 32.2123C114.462 31.9443 114.54 31.7913 114.54 31.7913L114.558 31.7563C114.624 31.6273 114.782 31.5763 114.91 31.6433C115.024 31.7013 115.077 31.8313 115.042 31.9503C115.042 31.9503 114.99 32.1263 114.9 32.4343C114.851 32.5873 114.791 32.7753 114.723 32.9903C114.66 33.2093 114.523 33.4293 114.397 33.6793C114.271 33.9323 114.125 34.2003 113.914 34.4523C113.716 34.7103 113.525 35.0033 113.241 35.2263C112.983 35.4763 112.701 35.7153 112.376 35.9083C112.071 36.1353 111.725 36.2913 111.38 36.4543C111.036 36.6193 110.663 36.6993 110.31 36.8113C109.947 36.8753 109.594 36.9733 109.246 36.9953C108.552 37.0993 107.902 37.0343 107.355 37.0033C106.263 36.8893 105.561 36.6283 105.561 36.6283C105.423 36.5803 105.35 36.4293 105.398 36.2913C105.442 36.1703 105.565 36.1003 105.686 36.1143Z" fill="#1E120D"/>
<path d="M113.055 25.8381C113.409 26.7371 113.28 27.6301 112.766 27.8331C112.251 28.0351 111.547 27.4701 111.194 26.5701C110.841 25.6701 110.969 24.7771 111.484 24.5751C111.997 24.3731 112.701 24.9381 113.055 25.8381Z" fill="#1E120D"/>
<path d="M100.721 30.5881C101.075 31.4871 100.946 32.3801 100.432 32.5831C99.9176 32.7851 99.2136 32.2201 98.8596 31.3201C98.5056 30.4211 98.6356 29.5271 99.1506 29.3251C99.6636 29.1231 100.367 29.6881 100.721 30.5881Z" fill="#1E120D"/>
<path d="M98.0226 25.4632C97.3216 25.8402 96.1846 26.9082 96.8486 27.7732C97.0886 28.0842 97.4616 28.2462 97.8326 28.0312C98.3496 27.7322 98.3836 27.0832 98.7976 26.6772C99.1566 26.3242 99.7526 26.1932 100.056 25.8042C100.099 25.7482 100.107 25.6982 100.077 25.6332C99.7706 24.9452 98.5246 25.1922 98.0226 25.4632Z" fill="#2D1A14"/>
<path d="M111.969 19.0103C110.973 18.7773 109.758 18.8913 108.967 19.5723C108.207 20.2253 109.174 21.2033 109.956 20.8543C110.787 20.4853 111.592 20.5023 112.49 20.5453C112.723 20.5563 113.926 20.6103 113.892 20.1203C113.842 19.3623 112.521 19.1393 111.969 19.0103Z" fill="#2D1A14"/>
<path d="M40.2906 148.787V223.12" stroke="#5B5B5F" stroke-width="4" stroke-miterlimit="10"/>
<path d="M205.291 148.787V223.12" stroke="#5B5B5F" stroke-width="4" stroke-miterlimit="10"/>
<path d="M20.2615 94.5562C20.1575 93.6962 23.6755 92.0572 25.9065 93.5052C26.2615 93.7372 24.4045 93.6712 23.0825 94.1262C21.9325 94.5192 20.4625 96.2052 20.2615 94.5562Z" fill="#845B36"/>
<path d="M13.9336 99.7713C13.2446 99.6523 11.7816 102.419 12.8586 104.277C13.0296 104.573 13.0526 103.073 13.4716 102.026C13.8366 101.117 15.2536 100.002 13.9336 99.7713Z" fill="#845B36"/>
<path d="M21.5486 107.557C21.1636 106.952 21.5726 104.959 22.9146 104.894C24.2576 104.831 24.9736 107.143 24.1516 107.76C23.3316 108.378 21.9226 108.144 21.5486 107.557Z" fill="url(#paint0_linear_216_485)"/>
<path d="M16.4846 98.3273C16.4846 98.3273 17.1556 98.9723 18.0916 99.9963C19.0246 101.025 20.2196 102.432 21.3176 103.941C21.5886 104.33 21.8526 104.693 22.1046 105.15C22.1386 105.227 22.1666 105.258 22.2076 105.388L22.2316 105.472C22.2486 105.556 22.2446 105.681 22.2106 105.778C22.1796 105.874 22.1816 105.848 22.1646 105.889C22.1076 105.998 22.0846 106.076 22.0536 106.157C21.9906 106.331 21.9326 106.535 21.8936 106.722C21.8106 107.086 21.8086 107.499 21.8776 107.601L21.8826 107.629C21.8926 107.638 21.7946 107.558 21.8376 107.593L21.8416 107.596L21.8486 107.602L21.8636 107.613L21.8926 107.635L22.0086 107.722C22.0816 107.766 22.1726 107.868 22.2236 107.865C22.3426 107.893 22.4326 107.97 22.5926 107.976C22.7366 108.005 22.8776 108.019 23.0166 108.005C23.1576 108.012 23.2876 107.995 23.4076 107.959C23.6566 107.92 23.8516 107.811 23.9926 107.717C24.0576 107.662 24.1196 107.614 24.1766 107.573C24.2176 107.523 24.2396 107.474 24.2666 107.436C24.3196 107.358 24.3466 107.316 24.3466 107.316L24.3786 107.268C24.4146 107.212 24.4886 107.198 24.5446 107.234C24.5906 107.265 24.6096 107.322 24.5926 107.373C24.5926 107.373 24.5716 107.436 24.5326 107.554C24.5106 107.612 24.4886 107.692 24.4476 107.773C24.3936 107.843 24.3286 107.923 24.2506 108.01C24.0896 108.168 23.8606 108.345 23.5676 108.45C23.4236 108.519 23.2636 108.568 23.0876 108.593C22.9136 108.643 22.7256 108.645 22.5226 108.633C22.3316 108.649 22.0876 108.567 21.8496 108.49C21.7116 108.453 21.6716 108.397 21.5766 108.348L21.4526 108.272L21.4216 108.252L21.4056 108.242L21.3976 108.237L21.3936 108.235L21.3416 108.193L21.2656 108.097C20.8736 107.533 20.9696 107.032 21.0136 106.564C21.0506 106.325 21.0986 106.101 21.1726 105.852C21.2136 105.722 21.2576 105.585 21.2996 105.492C21.3026 105.481 21.3396 105.407 21.3136 105.448C21.2816 105.515 21.2786 105.612 21.2956 105.669L21.2916 105.673C21.3026 105.693 21.2686 105.628 21.2546 105.602C21.0616 105.268 20.7786 104.885 20.5126 104.525C19.4286 103.058 18.3136 101.586 17.5206 100.454C16.7256 99.3214 16.2256 98.5393 16.2256 98.5393C16.1756 98.4603 16.1986 98.3563 16.2776 98.3063C16.3436 98.2643 16.4296 98.2743 16.4846 98.3273Z" fill="#D3A289"/>
<path d="M29.7146 103.445C28.4016 102.197 28.3496 100.122 29.5976 98.8092C30.8456 97.4972 32.9206 97.4452 34.2326 98.6922C35.5456 99.9402 35.5976 102.015 34.3496 103.328C33.1026 104.639 31.0266 104.692 29.7146 103.445Z" fill="#E5A0A0"/>
<path d="M30.1966 102.312C30.1966 102.312 30.3226 102.476 30.4706 102.784C30.6136 103.094 30.8156 103.552 30.9196 104.143C31.0326 104.729 31.0616 105.447 30.9206 106.194C30.8566 106.569 30.7436 106.948 30.5976 107.318C30.4456 107.687 30.2656 108.048 30.0456 108.386C29.8146 108.723 29.6026 109.031 29.3046 109.343C29.1936 109.473 29.0316 109.608 28.8466 109.744C28.6746 109.889 28.4966 109.97 28.3256 110.073C27.6176 110.438 26.8896 110.529 26.2966 110.53C25.0966 110.509 24.3766 110.174 24.3766 110.174C24.3126 110.145 24.2836 110.069 24.3136 110.004C24.3376 109.953 24.3906 109.925 24.4436 109.93C24.4436 109.93 24.6246 109.948 24.9446 109.956C25.2636 109.971 25.7236 109.951 26.2496 109.87C26.5126 109.832 26.7896 109.763 27.0686 109.674C27.3506 109.587 27.6246 109.449 27.8896 109.294C28.0126 109.205 28.1586 109.126 28.2546 109.026C28.3596 108.944 28.4726 108.836 28.6016 108.684C28.8076 108.458 29.0216 108.139 29.2036 107.855L29.4706 107.407L29.6886 106.941C29.8116 106.626 29.9346 106.314 30.0066 105.998C30.0846 105.685 30.1406 105.374 30.1656 105.076C30.1966 104.778 30.2006 104.492 30.1906 104.227C30.1666 103.699 30.1066 103.249 30.0276 102.944C29.9546 102.633 29.8996 102.466 29.8996 102.466C29.8706 102.377 29.9176 102.281 30.0076 102.252C30.0786 102.229 30.1536 102.257 30.1966 102.312Z" fill="#1E120D"/>
<path d="M26.1346 94.9432C26.1346 94.9432 26.5336 95.3012 26.8816 96.0252C27.0506 96.3862 27.1976 96.8502 27.2206 97.3802C27.2536 97.9072 27.1246 98.5021 26.8416 99.0081C26.7806 99.1411 26.6836 99.2481 26.6036 99.3661C26.5436 99.4411 26.5596 99.4422 26.4376 99.5762L26.3046 99.7021C26.1066 99.8651 25.9946 100.025 25.7026 100.172C25.4486 100.325 25.1936 100.443 24.9506 100.478C24.7126 100.551 24.4806 100.554 24.2706 100.543C24.0606 100.557 23.8756 100.489 23.7156 100.459C23.5546 100.422 23.4236 100.357 23.3156 100.321C23.1036 100.223 22.9906 100.141 22.9906 100.141C22.9336 100.099 22.9206 100.018 22.9626 99.9611C22.9916 99.9211 23.0386 99.9031 23.0836 99.9091L23.0956 99.9102C23.0956 99.9102 23.2096 99.9262 23.4136 99.9432C23.6166 99.9572 23.9096 99.9542 24.2276 99.8812C24.3886 99.8522 24.5536 99.8052 24.7136 99.7232C24.8936 99.6722 25.0176 99.5502 25.1586 99.4622C25.2976 99.4162 25.4666 99.1652 25.6306 99.0102L25.7576 98.8791C25.7156 98.9211 25.7946 98.8162 25.8066 98.7922C25.8586 98.7042 25.9316 98.6252 25.9656 98.5292C26.3696 97.8202 26.3306 96.9291 26.1846 96.2581C26.1086 95.9241 26.0376 95.6342 25.9636 95.4402C25.8956 95.2432 25.8566 95.1302 25.8566 95.1302C25.8226 95.0412 25.8676 94.9412 25.9566 94.9072C26.0196 94.8882 26.0886 94.9042 26.1346 94.9432Z" fill="#1E120D"/>
<path d="M28.6135 95.8082C28.6135 95.8082 28.5945 95.9872 28.4875 96.2062C28.3795 96.4182 28.1865 96.6592 27.9135 96.8282C27.7865 96.9152 27.6255 96.9812 27.4755 97.0262C27.3385 97.0802 27.1445 97.0782 27.0185 97.0752C26.8875 97.0792 26.7415 96.9912 26.6755 96.9672C26.6005 96.9272 26.5675 96.8962 26.5675 96.8962C26.5125 96.8432 26.5105 96.7552 26.5645 96.7002C26.5675 96.6962 26.5715 96.6932 26.5755 96.6892L26.6235 96.6502C26.6235 96.6502 26.6545 96.6242 26.7085 96.5792C26.7625 96.5362 26.8015 96.5062 26.8695 96.4312C26.9375 96.3492 26.9975 96.3182 27.0835 96.2262C27.1655 96.1452 27.2585 96.0892 27.3565 96.0042C27.5565 95.8662 27.7865 95.7332 27.9925 95.6652C28.1975 95.6012 28.3735 95.5752 28.3735 95.5752C28.4885 95.5582 28.5965 95.6402 28.6125 95.7562C28.6145 95.7712 28.6145 95.7922 28.6135 95.8082Z" fill="#1E120D"/>
<path d="M29.5845 97.7692C29.5805 97.7682 29.5776 97.8232 29.5326 97.9102C29.4846 97.9912 29.4236 98.1312 29.3156 98.2482C29.2186 98.3822 29.0706 98.5042 28.9006 98.6212C28.7336 98.7432 28.5106 98.8172 28.2966 98.8912C28.0606 98.9132 27.8306 98.9752 27.6076 98.9142C27.3896 98.8532 27.1816 98.8262 27.0446 98.7072C26.7616 98.4862 26.6395 98.3112 26.6395 98.3112C26.5965 98.2512 26.6115 98.1662 26.6725 98.1232C26.6915 98.1102 26.7135 98.1032 26.7345 98.1002L26.7715 98.0962C26.7715 98.0962 26.9986 98.0712 27.2386 98.0732C27.3576 98.0892 27.4996 98.0202 27.6296 98.0202C27.7616 98.0172 27.9036 97.9392 28.0436 97.9262C28.1856 97.8732 28.3306 97.8342 28.4746 97.7862C28.6156 97.7302 28.7606 97.6962 28.8866 97.6512C29.0146 97.6082 29.1335 97.5912 29.2095 97.5642C29.2985 97.5412 29.3496 97.5272 29.3496 97.5272C29.4526 97.5012 29.5565 97.5622 29.5825 97.6652C29.5885 97.6882 29.5906 97.7132 29.5876 97.7362L29.5845 97.7692Z" fill="#1E120D"/>
<path d="M15.2486 107.164C15.2486 107.164 15.3536 107.186 15.5076 107.215C15.6626 107.247 15.9006 107.282 16.1646 107.3C16.4276 107.324 16.7346 107.334 17.0256 107.276C17.1756 107.259 17.3226 107.228 17.4576 107.162C17.5996 107.115 17.7426 107.065 17.8586 106.959L18.0506 106.833C18.0656 106.829 18.1556 106.755 18.1086 106.81L18.2046 106.702C18.3166 106.565 18.5116 106.409 18.5296 106.314C18.5846 106.21 18.6736 106.117 18.7046 105.978C18.7606 105.854 18.7916 105.728 18.8086 105.604C18.9006 105.106 18.7926 104.707 18.8046 104.72C18.7706 104.66 18.7916 104.582 18.8526 104.548C18.9136 104.514 18.9906 104.535 19.0246 104.597C19.0246 104.597 19.1046 104.68 19.2036 104.84C19.2876 105.004 19.4286 105.251 19.4716 105.591C19.4976 105.761 19.5156 105.95 19.4756 106.151C19.4656 106.351 19.3916 106.573 19.2816 106.796C19.1756 107.053 19.0656 107.147 18.9486 107.316L18.8596 107.43C18.7446 107.552 18.7486 107.526 18.6866 107.58L18.4036 107.794C18.2216 107.953 17.9936 108.026 17.7686 108.098C17.5486 108.194 17.3226 108.208 17.1046 108.21C16.8856 108.234 16.6836 108.205 16.4976 108.161C16.3066 108.135 16.1376 108.082 15.9886 108.014C15.6796 107.91 15.4686 107.743 15.3096 107.644C15.1526 107.533 15.0876 107.458 15.0876 107.458L15.0796 107.449C15.0166 107.377 15.0236 107.266 15.0966 107.203C15.1396 107.165 15.1966 107.152 15.2486 107.164Z" fill="#1E120D"/>
<path d="M15.7186 109.128C15.7186 109.128 15.7096 108.973 15.7306 108.798C15.7556 108.622 15.8346 108.429 15.9266 108.271C16.0306 108.109 16.1436 107.992 16.2546 107.9C16.3176 107.847 16.3526 107.825 16.3896 107.781C16.4316 107.735 16.4556 107.71 16.4556 107.71L16.5046 107.656C16.5546 107.601 16.6366 107.593 16.6966 107.634C16.6966 107.634 16.7296 107.656 16.7746 107.716C16.8056 107.768 16.8976 107.887 16.9106 107.996C16.9306 108.102 16.9496 108.268 16.9196 108.384C16.8986 108.512 16.8556 108.651 16.7956 108.759C16.6766 108.992 16.4886 109.157 16.3116 109.248C16.1296 109.338 15.9726 109.35 15.9726 109.35C15.8436 109.36 15.7306 109.264 15.7206 109.135L15.7186 109.128Z" fill="#1E120D"/>
<path d="M17.3246 109.772C17.3246 109.764 17.3356 109.593 17.3536 109.381C17.3716 109.277 17.3796 109.16 17.4086 109.05C17.4296 108.936 17.4476 108.827 17.4786 108.72C17.4796 108.619 17.5346 108.511 17.5356 108.416C17.5336 108.322 17.5886 108.211 17.5796 108.119C17.5846 107.933 17.6096 107.739 17.6096 107.739L17.6136 107.702C17.6236 107.625 17.6956 107.569 17.7736 107.579C17.7866 107.581 17.8006 107.585 17.8116 107.591C17.8116 107.591 17.9776 107.663 18.1926 107.875C18.3066 107.976 18.3516 108.143 18.4206 108.32C18.4906 108.502 18.4586 108.696 18.4566 108.894C18.4116 109.075 18.3646 109.263 18.2716 109.406C18.1846 109.552 18.0876 109.678 17.9796 109.76C17.8866 109.851 17.7666 109.903 17.6996 109.944C17.6276 109.982 17.5796 109.982 17.5806 109.986L17.5436 109.989C17.4306 109.998 17.3316 109.914 17.3226 109.801C17.3236 109.793 17.3236 109.782 17.3246 109.772Z" fill="#1E120D"/>
<path d="M95.0146 7.90708C94.9186 7.62808 94.6886 7.52407 94.4096 7.56307C93.5206 7.68907 93.1446 8.43807 92.6246 9.10207C92.4446 9.33207 92.2306 9.53908 92.0296 9.75108C91.9386 9.84708 91.7316 10.3231 91.5616 10.2951C91.4736 10.2801 91.4276 10.3851 91.5006 10.4381C91.7326 10.6031 91.8516 10.7771 92.1356 10.8641C92.5636 10.9941 93.0076 10.7961 93.3756 10.5931C93.8426 10.3351 94.2866 9.97008 94.6176 9.55308C95.0416 9.01608 95.2446 8.57208 95.0146 7.90708Z" fill="white"/>
<path d="M97.7606 8.2971C97.4146 8.4021 97.1116 8.4801 96.8016 8.6781C96.4796 8.8861 96.2506 9.2161 96.0076 9.5051C95.4716 10.1421 94.9976 10.8121 94.5896 11.5381C94.4276 11.8261 94.7496 12.1491 95.0386 11.9871C95.6916 11.6201 96.3166 11.2051 96.8906 10.7211C97.1916 10.4681 97.5076 10.2281 97.7726 9.9371C98.0696 9.6111 98.1566 9.2211 98.2796 8.8161C98.3726 8.5121 98.0646 8.2051 97.7606 8.2971Z" fill="white"/>
<path d="M100.348 9.24028C100.28 9.04428 100.099 8.86028 99.8725 8.87928C99.0595 8.94528 98.7705 9.73729 98.4685 10.3903C98.1335 11.1163 97.9015 11.8903 97.6015 12.6303C97.4915 12.9013 97.8865 13.0923 98.0715 12.9033C98.5965 12.3673 99.0625 11.7943 99.5245 11.2053C99.9335 10.6843 100.593 9.94928 100.348 9.24028Z" fill="white"/>
<path d="M118.343 10.5683C117.683 9.99626 116.883 10.8423 117.404 11.5073C117.993 12.2593 118.209 13.1863 118.422 14.0923C118.637 15.0093 119.977 14.7653 120.011 13.8773C120.058 12.6523 119.24 11.3463 118.343 10.5683Z" fill="white"/>
<path d="M122.634 12.4942C122.419 11.8032 121.77 11.3632 121.293 10.8382C120.703 10.1892 120.13 9.51118 119.631 8.78918C119.333 8.35618 118.531 8.61317 118.732 9.16817C119.038 10.0162 119.398 10.8422 119.891 11.5992C120.342 12.2912 120.852 13.1962 121.663 13.4652C122.23 13.6532 122.808 13.0522 122.634 12.4942Z" fill="white"/>
<path d="M6.83165 93.3471C6.36365 92.4051 6.48065 91.2631 6.30165 90.2531C6.23465 89.8741 5.65565 89.8181 5.48865 90.1471C4.91365 91.2651 4.93865 92.5311 5.24965 93.7251C5.49965 94.6881 6.19065 95.9851 7.33265 95.8321C7.48265 95.8111 7.63765 95.6421 7.66565 95.4991C7.82565 94.6961 7.17265 94.0321 6.83165 93.3471Z" fill="white"/>
<path d="M10.1336 92.2412C9.37959 91.7182 9.1836 91.0982 8.8716 90.2792C8.7496 89.9622 8.3236 89.9442 8.2086 90.2792C7.8316 91.3762 8.3216 92.7472 9.1596 93.5032C9.4486 93.7632 9.78959 93.7912 10.1336 93.6292C10.4316 93.4872 10.5016 93.2392 10.5316 92.9352C10.5606 92.6452 10.3526 92.3932 10.1336 92.2412Z" fill="white"/>
<path d="M12.8387 90.6542C12.6547 90.0442 12.2007 89.6051 11.7857 89.1391C11.4167 88.7251 11.0267 88.3311 10.5987 87.9781C10.0397 87.5161 9.37666 88.2031 9.81466 88.7631C10.1247 89.1591 10.3807 89.5951 10.6297 90.0301C10.9027 90.5081 11.1057 91.0551 11.5387 91.4101C12.1017 91.8721 13.0817 91.4602 12.8387 90.6542Z" fill="white"/>
<path d="M31.1467 79.3582C31.0447 78.6572 30.3957 78.1282 29.8937 77.6832C29.3717 77.2212 28.7747 76.8682 28.1487 76.5642C27.6147 76.3052 27.0067 76.9782 27.4857 77.4232C27.9487 77.8532 28.3507 78.3342 28.7687 78.8072C29.1827 79.2762 29.4917 79.8982 30.0657 80.1892C30.6857 80.5022 31.2397 79.9952 31.1467 79.3582Z" fill="white"/>
<path d="M29.3836 80.7602C29.2046 80.2302 28.7796 79.8572 28.4026 79.4602C28.0016 79.0382 27.5676 78.6641 27.0976 78.3191C26.7396 78.0561 26.2396 78.5712 26.4886 78.9282C27.0956 79.8012 27.5626 81.1101 28.5976 81.5441C29.0466 81.7331 29.5276 81.1852 29.3836 80.7602Z" fill="white"/>
<path d="M48.9136 65.8801C47.7636 65.0161 46.5176 64.5851 45.2766 63.9161C45.1156 63.8291 44.9846 64.0581 45.1346 64.1581C46.1356 64.8321 47.0276 65.8131 47.9276 66.6191C48.5726 67.1971 49.2626 68.4701 50.2056 68.4431C50.3796 68.4381 50.5586 68.3241 50.5976 68.1451C50.8166 67.1391 49.6196 66.4091 48.9136 65.8801Z" fill="white"/>
<path d="M47.7256 68.258C47.0546 67.613 46.2936 67.2101 45.5686 66.6571C45.5256 66.6241 45.4616 66.6881 45.4936 66.7311C45.9886 67.3801 46.3536 68.1021 46.8756 68.7441C47.3976 69.3881 47.9166 70.5191 48.7736 70.7321C49.0136 70.7921 49.2416 70.6181 49.2486 70.3711C49.2696 69.4841 48.3076 68.816 47.7256 68.258Z" fill="white"/>
<path d="M45.8476 73.2583C45.2106 72.4553 44.2406 71.8553 43.2066 71.8113C43.0096 71.8023 42.9056 72.0653 43.0466 72.1983C43.8186 72.9293 44.6516 73.5673 45.0736 74.5833C45.2756 75.0693 45.7897 76.7613 46.6037 75.9473C47.3277 75.2223 46.3026 73.8323 45.8476 73.2583Z" fill="white"/>
<defs>
<linearGradient id="paint0_linear_216_485" x1="22.5341" y1="107.107" x2="24.7181" y2="104.872" gradientUnits="userSpaceOnUse">
<stop stop-color="#E8AA9A"/>
<stop offset="1" stop-color="#E1A697" stop-opacity="0"/>
</linearGradient>
</defs>
</svg>
